<?xml version="1.0" standalone="no"?>
<!DOCTYPE svg PUBLIC "-//W3C//DTD SVG 1.1//EN" "http://www.w3.org/Graphics/SVG/1.1/DTD/svg11.dtd" >
<svg xmlns="http://www.w3.org/2000/svg" xmlns:xlink="http://www.w3.org/1999/xlink" version="1.1">
<metadata></metadata>
<defs>
<font id="live_nationbold" horiz-adv-x="1179" >
<font-face units-per-em="2048" ascent="1516" descent="-532" />
<missing-glyph horiz-adv-x="573" />
<glyph horiz-adv-x="0" />
<glyph horiz-adv-x="682" />
<glyph unicode=" "  horiz-adv-x="573" />
<glyph unicode="&#x09;" horiz-adv-x="573" />
<glyph unicode="&#xa0;" horiz-adv-x="573" />
<glyph unicode="!" horiz-adv-x="573" d="M121 150q0 69 48.5 117t117.5 48t117.5 -48t48.5 -117t-48.5 -117.5t-117.5 -48.5t-117.5 48.5t-48.5 117.5zM156 1434h262l-4 -977h-254z" />
<glyph unicode="&#x22;" horiz-adv-x="864" d="M82 1434h270l-10 -643h-250zM512 1434h270l-10 -643h-250z" />
<glyph unicode="#" horiz-adv-x="1564" d="M14 340l68 227h237l91 299h-238l66 228h239l101 340h243l-100 -340h348l100 340h246l-100 -340h235l-65 -228h-238l-90 -299h238l-68 -227h-237l-101 -340h-246l101 340h-348l-101 -340h-243l100 340h-238zM563 567h348l90 299h-348z" />
<glyph unicode="$" horiz-adv-x="1226" d="M76 451h260q13 -118 92 -181t197 -63q120 0 184.5 54.5t64.5 144.5q0 53 -27 91t-72 60.5t-104 39t-124 31t-130 32.5t-124 48t-104 72t-72 110t-27 157q0 154 106 263t289 136v295h250v-297q324 -57 391 -367l-254 -51q-21 97 -94.5 149t-179.5 52q-117 0 -177.5 -45.5 t-60.5 -122.5q0 -48 27 -82t72.5 -54t104 -35t124 -29.5t130.5 -33t123.5 -51t104 -77.5t72.5 -118t27 -167q0 -163 -110.5 -279t-299.5 -145v-295h-250v297q-183 31 -288.5 147t-120.5 314z" />
<glyph unicode="%" horiz-adv-x="2076" d="M55 1004q0 209 106.5 325.5t284.5 116.5q180 0 287 -116.5t107 -325.5t-107 -326t-287 -117q-178 0 -284.5 117t-106.5 326zM293 1004q0 -124 39.5 -188t113.5 -64q76 0 116 64t40 188t-40 187.5t-116 63.5q-74 0 -113.5 -63.5t-39.5 -187.5zM444 -20l1024 1579l177 -105 l-1022 -1579zM1225 430q0 209 106.5 325.5t286.5 116.5q178 0 284.5 -116.5t106.5 -325.5t-106.5 -325.5t-284.5 -116.5q-180 0 -286.5 116.5t-106.5 325.5zM1462 430q0 -124 40 -188t116 -64q74 0 114 64.5t40 187.5t-40 187.5t-114 64.5q-76 0 -116 -64t-40 -188z" />
<glyph unicode="&#x26;" horiz-adv-x="1400" d="M63 383q0 189 175 334l96 80l-47 47q-125 134 -125 272q0 63 24.5 123t69 108t115.5 77.5t157 29.5q171 0 271 -94.5t100 -222.5q0 -163 -170 -301l-61 -50l305 -319q54 130 31 313h262q30 -293 -109 -506l264 -274h-325l-101 104q-178 -124 -422 -124 q-231 0 -370.5 108.5t-139.5 294.5zM344 414q0 -85 65.5 -146t178.5 -61q130 0 239 74l-342 356l-26 -21q-115 -93 -115 -202zM399 1126q0 -29 16 -59.5t33 -50t58 -62.5l8 -8l21 17q56 45 86 83t30 80q0 50 -32.5 89.5t-92.5 39.5q-61 0 -94 -39.5t-33 -89.5z" />
<glyph unicode="'" horiz-adv-x="434" d="M82 1434h270l-10 -643h-250z" />
<glyph unicode="(" horiz-adv-x="702" d="M137 717q0 307 94.5 575t255.5 461l218 -113q-299 -412 -299 -923q0 -512 299 -924l-218 -112q-161 193 -255.5 461t-94.5 575z" />
<glyph unicode=")" horiz-adv-x="702" d="M-2 -207q299 412 299 924q0 511 -299 923l217 113q161 -193 255.5 -461t94.5 -575t-94.5 -575t-255.5 -461z" />
<glyph unicode="*" horiz-adv-x="993" d="M74 1219l63 194l266 -98l-8 291h203l-8 -291l266 96l64 -192l-277 -84l188 -246l-165 -117l-168 250l-168 -250l-166 117l186 248z" />
<glyph unicode="+" horiz-adv-x="1089" d="M57 600v240h363v362h250v-362h362v-240h-362v-362h-250v362h-363z" />
<glyph unicode="," horiz-adv-x="593" d="M102 -229l93 526h278l-123 -526h-248z" />
<glyph unicode="-" horiz-adv-x="690" d="M74 420v221h542v-221h-542z" />
<glyph unicode="." horiz-adv-x="593" d="M131 150q0 69 48.5 117t117.5 48t117.5 -48t48.5 -117t-48.5 -117.5t-117.5 -48.5t-117.5 48.5t-48.5 117.5z" />
<glyph unicode="/" horiz-adv-x="966" d="M-2 -305l764 2101l207 -57l-764 -2101z" />
<glyph unicode="0" horiz-adv-x="1376" d="M96 717q0 343 161 540t431 197t431 -197t161 -540t-161 -540t-431 -197t-431 197t-161 540zM365 717q0 -260 87 -385t236 -125q148 0 236 124.5t88 385.5q0 259 -88 384.5t-236 125.5q-149 0 -236 -124t-87 -386z" />
<glyph unicode="1" horiz-adv-x="792" d="M31 922v252l391 260h233v-1434h-256v1153z" />
<glyph unicode="2" horiz-adv-x="1239" d="M102 0v47q0 133 41 241t106.5 179t144.5 129.5t158 104.5t144.5 91.5t106.5 103t41 126.5q0 92 -64 148.5t-166 56.5q-122 0 -184.5 -83t-56.5 -206l-256 33q-3 98 27 184.5t90 153.5t158 106t222 39q225 0 361.5 -117.5t136.5 -312.5q0 -88 -30.5 -163t-82.5 -129.5 t-116 -102t-135.5 -92t-135.5 -87.5t-121.5 -99t-89.5 -118h721v-233h-1020z" />
<glyph unicode="3" horiz-adv-x="1167" d="M31 475h254q-6 -120 67.5 -194t200.5 -74q117 0 187.5 67.5t70.5 159.5q0 125 -88.5 185.5t-280.5 60.5h-20v192l305 322h-635v240h967v-236l-328 -340q348 -85 348 -430q0 -194 -142.5 -321t-371.5 -127q-252 0 -399 134t-135 361z" />
<glyph unicode="4" horiz-adv-x="1200" d="M25 338v221l659 875h256v-873h227v-223h-227v-338h-256v338h-659zM311 559l373 2v490z" />
<glyph unicode="5" horiz-adv-x="1214" d="M94 438h254q-6 -103 64.5 -167t191.5 -64q123 0 193.5 71t70.5 189q0 119 -71 184.5t-187 65.5q-134 0 -270 -86l-217 74l92 729h832v-240h-631l-47 -348q143 82 299 82q94 0 177 -29t149 -84.5t104.5 -146.5t38.5 -207q0 -146 -71 -256.5t-191.5 -167.5t-270.5 -57 q-152 0 -268.5 51.5t-183 157t-58.5 249.5z" />
<glyph unicode="6" horiz-adv-x="1261" d="M82 453q0 120 53 215l412 766h291l-281 -523q73 15 123 15q214 0 357 -137t143 -336q0 -201 -151.5 -337t-397.5 -136t-397.5 136t-151.5 337zM352 457q0 -109 76 -180.5t203 -71.5t202.5 71.5t75.5 180.5q0 110 -75.5 182t-202.5 72q-128 0 -203.5 -72t-75.5 -182z" />
<glyph unicode="7" horiz-adv-x="1097" d="M43 1200v234h1012v-234l-500 -1200h-289l508 1200h-731z" />
<glyph unicode="8" horiz-adv-x="1239" d="M72 395q0 116 64 207t181 146q-78 56 -120.5 133.5t-42.5 167.5q0 112 62.5 205t170 146.5t234.5 53.5q126 0 233 -53.5t169 -147t62 -204.5q0 -180 -163 -301q116 -55 180.5 -146.5t64.5 -206.5q0 -176 -154 -295.5t-392 -119.5q-240 0 -394.5 119.5t-154.5 295.5z M340 414q0 -91 78.5 -149t202.5 -58q123 0 200.5 58t77.5 149q0 95 -77 153t-201 58q-125 0 -203 -58t-78 -153zM410 1030q0 -83 61 -139.5t150 -56.5q88 0 148 56.5t60 139.5q0 87 -59.5 142t-148.5 55q-90 0 -150.5 -55t-60.5 -142z" />
<glyph unicode="9" horiz-adv-x="1236" d="M57 981q0 201 151.5 337t397.5 136t397.5 -136t151.5 -337q0 -115 -53 -215l-414 -766h-289l281 522q-68 -14 -123 -14q-214 0 -357 137t-143 336zM328 977q0 -110 75.5 -182t202.5 -72q128 0 203.5 72t75.5 182q0 109 -76 180.5t-203 71.5t-202.5 -71.5t-75.5 -180.5z " />
<glyph unicode=":" horiz-adv-x="593" d="M129 909q0 69 48.5 117.5t117.5 48.5t117.5 -48.5t48.5 -117.5t-48.5 -117.5t-117.5 -48.5t-117.5 48.5t-48.5 117.5zM131 150q0 69 48.5 117t117.5 48t117.5 -48t48.5 -117t-48.5 -117.5t-117.5 -48.5t-117.5 48.5t-48.5 117.5z" />
<glyph unicode=";" horiz-adv-x="552" d="M55 -229l92 526h277l-123 -526h-246zM137 909q0 69 48.5 117.5t117.5 48.5t116.5 -48.5t47.5 -117.5t-47.5 -117.5t-116.5 -48.5t-117.5 48.5t-48.5 117.5z" />
<glyph unicode="&#x3c;" horiz-adv-x="1089" d="M57 600v240l975 391v-254l-643 -256l643 -254v-258z" />
<glyph unicode="=" horiz-adv-x="1105" d="M66 358v240h974v-240h-974zM66 842v239h974v-239h-974z" />
<glyph unicode="&#x3e;" horiz-adv-x="1089" d="M57 209v254l643 256l-643 254v258l975 -391v-240z" />
<glyph unicode="?" horiz-adv-x="1083" d="M55 993q-4 87 24.5 167.5t86.5 147t156 106.5t223 40q215 0 349 -117t134 -288q0 -68 -19.5 -124t-51 -94t-69.5 -71t-76 -63t-69.5 -62.5t-51 -77.5t-19.5 -100h-256q0 77 19 139.5t49.5 103.5t67 75t73 62t67 56t49.5 64.5t19 80.5q0 78 -58.5 133.5t-162.5 55.5 q-116 0 -175 -75.5t-53 -186.5zM377 150q0 69 48.5 117t117.5 48t117.5 -48t48.5 -117t-48.5 -117.5t-117.5 -48.5t-117.5 48.5t-48.5 117.5z" />
<glyph unicode="@" horiz-adv-x="2146" d="M82 543q0 202 69.5 379.5t195 309t313.5 208t413 76.5t413 -71.5t313.5 -197t195 -296t69.5 -367.5q0 -129 -25.5 -233.5t-68 -172.5t-99.5 -113.5t-117 -65t-124 -19.5q-95 0 -177.5 40.5t-123.5 106.5q-147 -147 -323 -147q-94 0 -176 34.5t-145.5 100.5t-100.5 172.5 t-37 240.5t36.5 240.5t100 173t145.5 101t177 34.5q150 0 270 -94v74h250v-735q0 -57 33.5 -92t82.5 -35q37 0 71.5 21.5t65.5 65t49.5 121.5t18.5 181q0 159 -54 296t-152 236.5t-244.5 156t-323.5 56.5q-176 0 -323.5 -61.5t-245.5 -167.5t-152.5 -249.5t-54.5 -307.5 t54.5 -307.5t152.5 -250t245.5 -168t323.5 -61.5q254 0 453 97v-203q-195 -80 -453 -80q-225 0 -413 76.5t-313.5 208t-195 309t-69.5 379.5zM803 528q0 -165 72 -249t190 -84q113 0 211 92v489q-114 86 -217 86q-110 0 -183 -85.5t-73 -248.5z" />
<glyph unicode="A" horiz-adv-x="1480" d="M23 0l651 1442h117l667 -1442h-289l-122 268h-631l-121 -268h-272zM500 489h456l-231 523z" />
<glyph unicode="B" horiz-adv-x="1343" d="M137 0v1434h576q107 0 195 -22.5t155.5 -67.5t105 -119.5t37.5 -173.5q0 -199 -174 -303q102 -48 160.5 -134.5t58.5 -210.5q0 -104 -40.5 -183t-112.5 -126t-164 -70.5t-203 -23.5h-594zM387 215h334q116 0 186 48.5t70 152.5q0 102 -70.5 150t-185.5 48h-334v-399z M387 829h305q252 0 252 195t-252 195h-305v-390z" />
<glyph unicode="C" horiz-adv-x="1499" d="M92 717q0 227 85 394.5t238.5 255t358.5 87.5q241 0 402.5 -111.5t201.5 -295.5l-260 -70q-32 118 -120 181t-224 63q-184 0 -292.5 -131.5t-108.5 -372.5t108.5 -372.5t292.5 -131.5q158 0 259 83t122 251l254 -64q-25 -232 -198 -367.5t-437 -135.5q-205 0 -358.5 87.5 t-238.5 255t-85 394.5z" />
<glyph unicode="D" horiz-adv-x="1445" d="M137 0v1434h584q185 0 329.5 -89t227 -256.5t82.5 -388.5q0 -330 -173.5 -515t-457.5 -185h-592zM399 227h310q82 0 146.5 25t116 79t79.5 147.5t28 221.5q0 251 -106 378.5t-273 127.5h-301v-979z" />
<glyph unicode="E" horiz-adv-x="1163" d="M137 0v1434h930v-228h-668v-336h486v-227h-486v-416h668v-227h-930z" />
<glyph unicode="F" horiz-adv-x="1093" d="M137 0v1434h910v-228h-648v-336h465v-227h-465v-643h-262z" />
<glyph unicode="G" horiz-adv-x="1546" d="M92 717q0 345 186 541t508 196q248 0 413.5 -111t207.5 -296l-262 -70q-31 118 -123 181t-236 63q-189 0 -301 -131.5t-112 -372.5t112 -372.5t301 -131.5q331 0 392 328h-426v227h698q2 -41 2 -81q0 -120 -22 -222q-31 -135 -91.5 -224.5t-149 -149t-188.5 -85.5 t-215 -26q-322 0 -508 196t-186 541z" />
<glyph unicode="H" horiz-adv-x="1460" d="M137 0v1434h262v-590h662v590h262v-1434h-262v610h-662v-610h-262z" />
<glyph unicode="I" horiz-adv-x="536" d="M137 0v1434h262v-1434h-262z" />
<glyph unicode="J" horiz-adv-x="1120" d="M39 459h262q10 -126 65.5 -186t157.5 -60q115 0 166 73.5t51 219.5v928h263v-951q0 -232 -126.5 -367.5t-353.5 -135.5q-221 0 -349.5 125.5t-135.5 353.5z" />
<glyph unicode="K" horiz-adv-x="1351" d="M137 0v1434h262v-590h230l370 590h287l-438 -686l471 -748h-309l-379 610h-232v-610h-262z" />
<glyph unicode="L" horiz-adv-x="1095" d="M137 0v1434h262v-1207h643v-227h-905z" />
<glyph unicode="M" horiz-adv-x="1720" d="M137 0v1434h316l417 -686l416 686h297v-1434h-250v1081l-411 -698h-119l-416 692v-1075h-250z" />
<glyph unicode="N" horiz-adv-x="1468" d="M137 0v1442h119l819 -916v908h256v-1442h-119l-819 917v-909h-256z" />
<glyph unicode="O" horiz-adv-x="1585" d="M92 717q0 344 188 540.5t511 196.5q324 0 513 -196.5t189 -540.5t-189 -540.5t-513 -196.5q-323 0 -511 196.5t-188 540.5zM373 717q0 -241 113 -372.5t305 -131.5q193 0 307 131.5t114 372.5t-114 372.5t-307 131.5q-192 0 -305 -131.5t-113 -372.5z" />
<glyph unicode="P" horiz-adv-x="1253" d="M137 0v1434h537q118 0 213 -25t165.5 -76.5t109 -136t38.5 -197.5q0 -112 -39 -196t-110 -135t-165.5 -76t-211.5 -25h-275v-567h-262zM399 795h279q248 0 248 204q0 207 -248 207h-279v-411z" />
<glyph unicode="Q" horiz-adv-x="1560" d="M92 717q0 343 186 540t500 197q316 0 503 -197t187 -540q0 -258 -108.5 -437t-302.5 -253l76 -236h-256l-62 189h-37q-314 0 -500 197t-186 540zM373 717q0 -227 99.5 -357.5t266.5 -144.5l-77 240h256l61 -191q99 57 154 172.5t55 280.5q0 240 -112.5 372t-297.5 132 q-183 0 -294 -132t-111 -372z" />
<glyph unicode="R" horiz-adv-x="1310" d="M137 0v1434h537q118 0 213 -25t165.5 -76.5t109 -136t38.5 -197.5q0 -297 -266 -393l332 -606h-299l-305 567h-263v-567h-262zM399 795h279q248 0 248 204q0 207 -248 207h-279v-411z" />
<glyph unicode="S" horiz-adv-x="1226" d="M76 451h260q13 -118 92 -181t197 -63q120 0 184.5 54.5t64.5 144.5q0 53 -27 91t-72 60.5t-104 39t-124 31t-130 32.5t-124 48t-104 72t-72 110t-27 157q0 177 139 292t369 115q219 0 353 -95t175 -282l-254 -51q-21 97 -94.5 149t-179.5 52q-117 0 -177.5 -45.5 t-60.5 -122.5q0 -48 27 -82t72.5 -54t104 -35t124 -29.5t130.5 -33t123.5 -51t104 -77.5t72.5 -118t27 -167q0 -186 -143 -309t-377 -123q-242 0 -386.5 118.5t-162.5 352.5z" />
<glyph unicode="T" horiz-adv-x="1165" d="M39 1206v228h1087v-228h-411v-1206h-262v1206h-414z" />
<glyph unicode="U" horiz-adv-x="1419" d="M117 547v887h262v-904q0 -147 89.5 -232t240.5 -85q152 0 241.5 85t89.5 232v904h263v-887q0 -260 -161.5 -413.5t-432.5 -153.5q-269 0 -430.5 153.5t-161.5 413.5z" />
<glyph unicode="V" horiz-adv-x="1452" d="M18 1434h287l436 -957l420 957h273l-641 -1442h-117z" />
<glyph unicode="W" horiz-adv-x="2136" d="M18 1434h289l344 -928l365 936h119l378 -934l332 926h273l-545 -1442h-117l-385 913l-375 -913h-116z" />
<glyph unicode="X" horiz-adv-x="1357" d="M31 0l495 711l-495 723h313l340 -504l344 504h299l-493 -711l493 -723h-313l-340 504l-344 -504h-299z" />
<glyph unicode="Y" horiz-adv-x="1339" d="M18 1434h301l357 -529l360 529h285l-520 -787v-647h-262v647z" />
<glyph unicode="Z" horiz-adv-x="1196" d="M70 0v227l723 979h-723v228h1052v-228l-723 -979h723v-227h-1052z" />
<glyph unicode="[" horiz-adv-x="698" d="M158 -307v2048h526v-221h-270v-1606h270v-221h-526z" />
<glyph unicode="\" horiz-adv-x="966" d="M-2 1739l207 57l764 -2101l-207 -57z" />
<glyph unicode="]" horiz-adv-x="698" d="M14 -86h271v1606h-271v221h527v-2048h-527v221z" />
<glyph unicode="^" horiz-adv-x="1140" d="M35 459l411 1057h250l410 -1057h-266l-277 739l-274 -739h-254z" />
<glyph unicode="_" horiz-adv-x="1040" d="M8 -20h1024v-197h-1024v197z" />
<glyph unicode="a" d="M72 528q0 134 36.5 240.5t100 173t146 101t177.5 34.5q148 0 271 -94v74h250v-1057h-238v88q-132 -108 -283 -108q-95 0 -177 34.5t-146 100.5t-100.5 172.5t-36.5 240.5zM328 528q0 -165 72 -249t192 -84q108 0 211 92v489q-114 86 -219 86q-110 0 -183 -85.5 t-73 -248.5z" />
<glyph unicode="b" horiz-adv-x="1189" d="M137 0v1516h250v-533q123 94 270 94q95 0 177.5 -34.5t146.5 -101t100.5 -173t36.5 -240.5t-37 -240.5t-101.5 -172.5t-146.5 -100.5t-176 -34.5q-150 0 -282 108v-88h-238zM387 287q103 -92 211 -92q119 0 191.5 84t72.5 249q0 163 -73.5 248.5t-184.5 85.5 q-103 0 -217 -86v-489z" />
<glyph unicode="c" horiz-adv-x="1110" d="M72 528q0 126 39 230.5t107 173.5t158.5 107t194.5 38q84 0 158.5 -21t138.5 -63t108.5 -113t61.5 -165l-245 -58q-19 106 -77.5 155.5t-137.5 49.5q-109 0 -179.5 -82.5t-70.5 -251.5t70.5 -251t179.5 -82q79 0 137.5 49t77.5 155l245 -57q-19 -94 -63.5 -165t-108 -113 t-137.5 -63t-158 -21q-104 0 -194.5 38t-158.5 106.5t-107 173t-39 230.5z" />
<glyph unicode="d" horiz-adv-x="1189" d="M72 528q0 134 36.5 240.5t100 173t146 101t177.5 34.5q148 0 271 -94v533h250v-1516h-238v88q-132 -108 -283 -108q-95 0 -177 34.5t-146 100.5t-100.5 172.5t-36.5 240.5zM328 528q0 -165 72 -249t192 -84q108 0 211 92v489q-114 86 -219 86q-110 0 -183 -85.5 t-73 -248.5z" />
<glyph unicode="e" horiz-adv-x="1144" d="M72 528q0 125 41 230t110 174t159 107t189 38q79 0 151 -20.5t138 -68.5t113 -118t73 -177q22 -90 22 -196q0 -21 -1 -42h-750q16 -143 89 -208t176 -65q84 0 146 43t87 131l221 -82q-46 -144 -166.5 -219t-289.5 -75q-106 0 -198.5 37.5t-161.5 107t-108.5 173.5 t-39.5 230zM324 639h489q-12 113 -76 174t-159 61t-163.5 -57t-90.5 -178z" />
<glyph unicode="f" horiz-adv-x="768" d="M39 842v215h162v119q0 360 344 360q81 0 176 -25v-217q-72 17 -135 17q-135 0 -135 -144v-110h262v-215h-262v-842h-250v842h-162z" />
<glyph unicode="g" d="M72 569q0 128 36.5 229.5t100.5 164.5t146 96t177 33q150 0 283 -109v90h238v-1042q0 -207 -128 -334t-358 -127q-118 0 -213 35t-162 113.5t-86 193.5l242 47q11 -96 73.5 -141t149.5 -45q112 0 172 69t60 193v108q-122 -96 -271 -96q-95 0 -177.5 33t-146 96t-100 164 t-36.5 229zM328 569q0 -151 72.5 -229t183.5 -78q107 0 219 88v434q-104 93 -211 93q-120 0 -192 -76.5t-72 -231.5z" />
<glyph unicode="h" horiz-adv-x="1185" d="M137 0v1516h250v-564q80 64 151.5 94.5t159.5 30.5q75 0 139 -23.5t114.5 -71t79 -127.5t28.5 -185v-670h-250v655q0 109 -53 158t-135 49q-112 0 -234 -90v-772h-250z" />
<glyph unicode="i" horiz-adv-x="524" d="M106 1350q0 64 45.5 109.5t110.5 45.5t110.5 -45.5t45.5 -109.5t-46 -110t-110 -46t-110 46t-46 110zM137 0v1057h250v-1057h-250z" />
<glyph unicode="j" horiz-adv-x="530" d="M-76 -207q39 -9 71 -9q62 0 99 32q56 48 56 151v1090h249v-1110q0 -75 -16.5 -137.5t-52 -115t-91 -83.5t-133.5 -43q-32 -5 -67 -5q-53 0 -115 11v219zM119 1350q0 64 45.5 109.5t109.5 45.5q65 0 110.5 -45.5t45.5 -109.5t-46 -110t-110 -46t-109.5 45.5t-45.5 110.5z " />
<glyph unicode="k" horiz-adv-x="1118" d="M137 0v1516h250v-859h158l237 400h279l-295 -486l334 -571h-295l-254 442h-164v-442h-250z" />
<glyph unicode="l" horiz-adv-x="524" d="M137 0v1516h250v-1516h-250z" />
<glyph unicode="m" horiz-adv-x="1726" d="M137 0v1057h238v-115q81 71 145 103t146 32q187 0 270 -143q162 143 336 143q151 0 239 -100t88 -307v-670h-249v655q0 111 -40.5 159t-115.5 48q-56 0 -103 -22t-104 -70q6 -47 6 -100v-670h-250v655q0 112 -40 159.5t-115 47.5q-55 0 -100.5 -20.5t-100.5 -65.5v-776 h-250z" />
<glyph unicode="n" horiz-adv-x="1185" d="M137 0v1057h238v-115q81 68 157 101.5t166 33.5q75 0 139 -23.5t114.5 -71t79 -127.5t28.5 -185v-670h-250v655q0 109 -53 158t-135 49q-112 0 -234 -90v-772h-250z" />
<glyph unicode="o" horiz-adv-x="1155" d="M72 528q0 129 39 234t107.5 173t160.5 105t199 37t198.5 -37t160 -105t107.5 -173t39 -234t-39 -233.5t-107.5 -173t-160 -105t-198.5 -36.5q-221 0 -363.5 146t-142.5 402zM328 528q0 -170 69.5 -251.5t180.5 -81.5q110 0 179.5 81.5t69.5 251.5t-69.5 252t-179.5 82 q-111 0 -180.5 -82t-69.5 -252z" />
<glyph unicode="p" horiz-adv-x="1189" d="M137 -410v1467h238v-90q132 108 282 108q94 0 176 -34.5t146.5 -101t101.5 -173t37 -240.5t-36.5 -240t-100.5 -172.5t-146.5 -101.5t-177.5 -35q-147 0 -270 97v-484h-250zM387 281q112 -88 217 -88q112 0 185 85t73 248q0 166 -72.5 250t-191.5 84q-108 0 -211 -92 v-487z" />
<glyph unicode="q" d="M72 526q0 134 36.5 240.5t100.5 173t146 101t177 34.5q151 0 283 -108v90h238v-1467h-250v484q-123 -97 -271 -97q-95 0 -177.5 35t-146 101.5t-100 172.5t-36.5 240zM328 526q0 -163 73 -248t183 -85q107 0 219 88v487q-103 92 -211 92q-120 0 -192 -84t-72 -250z" />
<glyph unicode="r" horiz-adv-x="813" d="M137 0v1057h238v-121q62 86 165 122q55 19 117 20q55 0 115 -15v-223q-68 23 -132 23q-38 -1 -76 -9q-100 -22 -177 -98v-756h-250z" />
<glyph unicode="s" horiz-adv-x="1007" d="M74 317h241q13 -68 68 -104.5t133 -36.5q71 0 121.5 34.5t50.5 90.5q0 38 -26 64t-68 37.5t-96 23t-110 21t-110 32t-96 54.5t-68 90.5t-26 138.5q0 130 115 222.5t293 92.5q160 0 270 -76.5t143 -224.5l-231 -47q-11 76 -66 114t-123 38q-64 0 -110.5 -32.5t-46.5 -84.5 q0 -34 20.5 -57.5t55 -37t80 -23t95 -19t99 -22t95 -35.5t80 -56t55 -87t20.5 -124q0 -136 -119 -229.5t-303 -93.5q-182 0 -294.5 85t-141.5 252z" />
<glyph unicode="t" horiz-adv-x="796" d="M39 842v215h162v360h250v-360h262v-215h-262v-496q0 -141 135 -141q64 0 135 14v-217q-84 -22 -176 -22q-344 0 -344 358v504h-162z" />
<glyph unicode="u" horiz-adv-x="1185" d="M137 387v670h250v-656q0 -109 53 -157.5t135 -48.5q112 0 234 90v772h250v-1057h-238v115q-81 -68 -156.5 -101.5t-166.5 -33.5q-75 0 -138.5 23.5t-114 71t-79.5 127.5t-29 185z" />
<glyph unicode="v" horiz-adv-x="1107" d="M18 1057h269l274 -623l275 623h254l-480 -1065h-112z" />
<glyph unicode="w" horiz-adv-x="1658" d="M18 1057h271l235 -615l256 623h111l256 -623l235 615h258l-436 -1065h-110l-265 614l-264 -614h-112z" />
<glyph unicode="x" horiz-adv-x="1083" d="M29 0l366 524l-366 533h299l221 -332l221 332h285l-367 -525l367 -532h-299l-219 330l-222 -330h-286z" />
<glyph unicode="y" horiz-adv-x="1107" d="M18 1057h269l274 -623l275 623h254l-660 -1467h-260l258 562z" />
<glyph unicode="z" horiz-adv-x="978" d="M70 0v215l522 627h-502v215h815v-215l-522 -627h522v-215h-835z" />
<glyph unicode="{" horiz-adv-x="796" d="M35 608v217q103 0 160 62.5t57 148.5v301q0 62 17 121.5t56 116.5t96 98.5t145 66t196 21.5v-221q-117 3 -185.5 -63.5t-68.5 -173.5v-299q0 -95 -40 -172.5t-106 -114.5q66 -37 106 -114.5t40 -172.5v-299q0 -108 68 -174t186 -63v-222q-108 -3 -196 21.5t-145 66 t-96 98.5t-56 116.5t-17 121.5v301q0 86 -57 148.5t-160 62.5z" />
<glyph unicode="|" horiz-adv-x="524" d="M137 -410v2253h250v-2253h-250z" />
<glyph unicode="}" horiz-adv-x="796" d="M35 -106q118 -3 186 63t68 174v299q0 95 39.5 172.5t105.5 114.5q-66 37 -105.5 114.5t-39.5 172.5v299q0 107 -68.5 173.5t-185.5 63.5v221q108 3 196 -21.5t145 -66t96 -98.5t56 -116.5t17 -121.5v-301q0 -86 57 -148.5t160 -62.5v-217q-103 0 -160 -62.5t-57 -148.5 v-301q0 -62 -17 -121.5t-56 -116.5t-96 -98.5t-145 -66t-196 -21.5v222z" />
<glyph unicode="~" horiz-adv-x="1048" d="M27 651q39 130 125 197t190 67q59 0 115 -22.5t91.5 -49t74.5 -49t67 -22.5q91 0 125 117l207 -103q-40 -130 -126 -197t-191 -67q-58 0 -114 23t-91.5 50t-75 50t-68.5 23q-88 0 -125 -117z" />
<glyph unicode="&#xa1;" horiz-adv-x="573" d="M121 907q0 69 48.5 117.5t117.5 48.5t117.5 -48.5t48.5 -117.5t-48.5 -117.5t-117.5 -48.5t-117.5 48.5t-48.5 117.5zM156 -377l4 977h254l4 -977h-262z" />
<glyph unicode="&#xa2;" horiz-adv-x="1118" d="M76 528q0 209 100 349t264 184v272h250v-266q136 -26 230 -113.5t122 -238.5l-245 -58q-19 106 -77.5 155.5t-137.5 49.5q-109 0 -179.5 -82.5t-70.5 -251.5t70.5 -251t179.5 -82q79 0 137.5 49t77.5 155l245 -57q-29 -151 -123 -238.5t-229 -113.5v-266h-250v272 q-164 44 -264 183.5t-100 348.5z" />
<glyph unicode="&#xa3;" horiz-adv-x="1382" d="M66 0v221h217v387h-217v221h217v162q0 141 68.5 248t177 161t237.5 54q204 0 334.5 -91t167.5 -280l-260 -51q-35 193 -240 193q-91 0 -157 -61t-66 -171v-164h413v-221h-413v-387h731v-221h-1210z" />
<glyph unicode="&#xa4;" horiz-adv-x="1409" d="M6 190l209 209q-96 142 -96 318q0 174 98 319l-211 213l170 170l215 -215q145 92 314 92q171 0 313 -92l215 215l170 -170l-211 -213q98 -145 98 -319q0 -172 -96 -318l209 -209l-170 -170l-211 211q-143 -94 -317 -94q-175 0 -318 94l-211 -211zM369 717 q0 -141 98.5 -240.5t237.5 -99.5t237 99.5t98 240.5t-98 240.5t-237 99.5t-237.5 -99.5t-98.5 -240.5z" />
<glyph unicode="&#xa5;" horiz-adv-x="1339" d="M18 1434h301l357 -529l360 529h285l-471 -711h332v-221h-381v-502h-262v502h-381v221h331z" />
<glyph unicode="&#xa6;" horiz-adv-x="524" d="M137 -410v881h250v-881h-250zM137 963v880h250v-880h-250z" />
<glyph unicode="&#xa7;" horiz-adv-x="1198" d="M96 -27h254q14 -90 85.5 -138t172.5 -48q96 0 159.5 45.5t63.5 116.5q0 40 -20.5 70.5t-56 48t-82.5 32.5t-100 24.5t-108.5 24t-108.5 30t-100 43.5t-82.5 64t-56 92.5t-20.5 127.5q0 76 41 149t113 119q-146 100 -146 295q0 162 139.5 273.5t348.5 111.5q210 0 343 -94 t167 -264l-254 -52q-17 94 -87.5 143.5t-170.5 49.5q-96 0 -159.5 -45.5t-63.5 -116.5q0 -40 20.5 -70.5t56 -48t82.5 -32.5t100 -24.5t108.5 -24t108.5 -30t100 -43.5t82.5 -64t56 -92.5t20.5 -127.5q0 -76 -41 -149t-113 -119q146 -100 146 -295q0 -162 -139.5 -273.5 t-348.5 -111.5q-217 0 -350.5 102t-159.5 301zM358 537q0 -28 9 -51.5t20.5 -40t37 -31.5t44.5 -24t57 -19t61 -15t70.5 -15t71.5 -15q47 25 79 71t32 90q0 25 -5.5 46t-19.5 38t-27.5 29.5t-39.5 23.5t-44.5 18.5t-54 15.5t-57 12.5t-64 12.5t-65.5 13q-45 -27 -75 -72 t-30 -87z" />
<glyph unicode="&#xa9;" horiz-adv-x="1634" d="M80 717q0 150 58 286.5t157 235.5t235.5 157t286.5 58t286.5 -58t235.5 -157t157 -235.5t58 -286.5t-58 -286.5t-157 -235.5t-235.5 -157t-286.5 -58t-286.5 58t-235.5 157t-157 235.5t-58 286.5zM244 717q0 -160 76.5 -296t208.5 -215t288 -79t288 79t209 215t77 296 t-77 296t-209 215t-288 79t-288 -79t-208.5 -215t-76.5 -296zM477 717q0 168 96 268t238 100q118 0 205 -60t110 -181l-176 -39q-10 65 -47.5 97t-85.5 32q-68 0 -114 -54.5t-46 -162.5t46 -162.5t114 -54.5q48 0 85.5 32t47.5 97l176 -39q-25 -121 -111 -181.5t-204 -60.5 q-141 0 -237.5 100.5t-96.5 268.5z" />
<glyph unicode="&#xaa;" horiz-adv-x="702" d="M33 1108q0 161 80.5 249.5t201.5 88.5q90 0 160 -55v43h164v-650h-154v52q-82 -64 -170 -64q-121 0 -201.5 87t-80.5 249zM215 1108q0 -87 38 -134.5t103 -47.5q59 0 119 51v266q-62 49 -123 49q-60 0 -98.5 -48.5t-38.5 -135.5z" />
<glyph unicode="&#xab;" horiz-adv-x="1220" d="M55 528l389 498l213 -117l-311 -381l311 -381l-213 -116zM563 528l389 498l213 -117l-311 -381l311 -381l-213 -116z" />
<glyph unicode="&#xac;" horiz-adv-x="1062" d="M39 600v240h975v-602h-250v362h-725z" />
<glyph unicode="&#xad;" horiz-adv-x="690" d="M74 420v221h542v-221h-542z" />
<glyph unicode="&#xae;" horiz-adv-x="944" d="M55 1178q0 172 122.5 294.5t295.5 122.5q172 0 294 -122.5t122 -294.5t-122 -295t-294 -123q-173 0 -295.5 123t-122.5 295zM164 1178q0 -132 90 -225t219 -93t218 93t89 225t-89 224.5t-218 92.5t-219 -92.5t-90 -224.5zM299 954v443h186q75 0 121.5 -35t46.5 -105 q-3 -89 -73 -122l96 -181h-127l-84 162h-55v-162h-111zM410 1206h59q61 0 61 51q0 50 -61 50h-59v-101z" />
<glyph unicode="&#xb0;" horiz-adv-x="862" d="M68 1098q0 148 105.5 252t256.5 104t258 -104t107 -252q0 -149 -107 -254t-258 -105t-256.5 105t-105.5 254zM285 1098q0 -63 42.5 -107.5t102.5 -44.5q61 0 104.5 44.5t43.5 107.5q0 62 -43.5 105.5t-104.5 43.5q-60 0 -102.5 -43.5t-42.5 -105.5z" />
<glyph unicode="&#xb1;" horiz-adv-x="1089" d="M57 0v240h975v-240h-975zM57 725v240h363v362h250v-362h362v-240h-362v-363h-250v363h-363z" />
<glyph unicode="&#xb5;" horiz-adv-x="1185" d="M127 -410v1467h250v-656q0 -109 53 -157.5t135 -48.5q112 0 234 90v772h250v-1057h-238v115q-81 -68 -157 -101.5t-167 -33.5q-61 0 -110 14v-404h-250z" />
<glyph unicode="&#xb6;" horiz-adv-x="1122" d="M14 1092q0 147 90.5 244.5t249.5 97.5h631v-1434h-164v1280h-188v-1280h-164v752h-115q-159 0 -249.5 96.5t-90.5 243.5z" />
<glyph unicode="&#xb7;" horiz-adv-x="585" d="M127 719q0 69 48.5 116.5t117.5 47.5t117.5 -47.5t48.5 -116.5t-48.5 -117.5t-117.5 -48.5t-117.5 48.5t-48.5 117.5z" />
<glyph unicode="&#xba;" horiz-adv-x="688" d="M27 1126q0 156 94.5 251.5t222.5 95.5t223 -95.5t95 -251.5q0 -155 -95 -249.5t-223 -94.5t-222.5 94.5t-94.5 249.5zM225 1126q0 -92 36 -133t83 -41q48 0 84.5 41t36.5 133q0 93 -36.5 135t-84.5 42q-47 0 -83 -42t-36 -135z" />
<glyph unicode="&#xbb;" horiz-adv-x="1220" d="M55 147l312 381l-312 381l213 117l389 -498l-389 -497zM563 147l311 381l-311 381l213 117l389 -498l-389 -497z" />
<glyph unicode="&#xbc;" horiz-adv-x="1847" d="M102 1300l260 134h158v-861h-190v668l-221 -108zM315 -20l1024 1579l177 -105l-1024 -1579zM1026 158v168l342 534h246v-534h131v-168h-131v-158h-191v158h-397zM1217 313h219v346z" />
<glyph unicode="&#xbd;" horiz-adv-x="1824" d="M102 1300l260 134h158v-861h-190v668l-221 -108zM276 -20l1024 1579l177 -105l-1022 -1579zM1081 565q13 151 96.5 229t229.5 78q139 0 222 -77.5t83 -204.5q0 -64 -30 -116t-77.5 -88.5t-98 -67.5t-101.5 -70t-78 -80h387v-168h-631v47q0 69 23.5 126.5t61 96t83 70.5 t91 59t83 54t61 61.5t23.5 75.5q0 54 -30.5 84.5t-81.5 30.5q-58 0 -93 -48t-32 -129z" />
<glyph unicode="&#xbe;" horiz-adv-x="1910" d="M104 862h185q-2 -62 34 -100.5t97 -38.5q57 0 92 35.5t35 83.5q0 73 -54.5 106t-164.5 33v106l198 197h-385v162h584v-182l-188 -197q77 -7 141.5 -68.5t64.5 -158.5q0 -116 -89 -197.5t-230 -81.5q-160 0 -244.5 82t-75.5 219zM385 -20l1022 1579l178 -105l-1024 -1579z M1087 158v168l345 534h243v-534h133v-168h-133v-158h-190v158h-398zM1280 313h217v344z" />
<glyph unicode="&#xbf;" horiz-adv-x="1083" d="M55 8q0 68 19.5 124t51 94t69.5 71t76.5 63t70 62.5t51 77.5t19.5 100h256q0 -77 -19 -139.5t-49.5 -104t-67 -75.5t-73 -62t-67 -55.5t-49.5 -64.5t-19 -81q0 -77 58 -132.5t163 -55.5q116 0 174.5 75.5t52.5 186.5l254 -29q3 -69 -13.5 -134.5t-55 -124.5t-95 -103.5 t-140 -71t-183.5 -26.5q-215 0 -349.5 117t-134.5 288zM375 907q0 69 48.5 117.5t117.5 48.5t116.5 -48.5t47.5 -117.5t-47.5 -117.5t-116.5 -48.5t-117.5 48.5t-48.5 117.5z" />
<glyph unicode="&#xc0;" horiz-adv-x="1480" d="M23 0l651 1442h117l667 -1442h-289l-122 268h-631l-121 -268h-272zM424 1819l289 8l139 -291h-199zM500 489h456l-231 523z" />
<glyph unicode="&#xc1;" horiz-adv-x="1480" d="M23 0l651 1442h117l667 -1442h-289l-122 268h-631l-121 -268h-272zM500 489h456l-231 523zM606 1536l168 289l295 -10l-244 -279h-219z" />
<glyph unicode="&#xc2;" horiz-adv-x="1480" d="M23 0l651 1442h117l667 -1442h-289l-122 268h-631l-121 -268h-272zM356 1540l273 281h225l272 -281l-231 -10l-154 143l-153 -143zM500 489h456l-231 523z" />
<glyph unicode="&#xc3;" horiz-adv-x="1480" d="M23 0l651 1442h117l667 -1442h-289l-122 268h-631l-121 -268h-272zM330 1640q30 105 101 164.5t151 59.5q50 0 99.5 -17t82 -37.5t66.5 -37.5t57 -17q66 0 92 90l170 -86q-30 -106 -100 -165.5t-152 -59.5q-62 0 -123 28t-107 55.5t-73 27.5q-68 0 -94 -91zM500 489h456 l-231 523z" />
<glyph unicode="&#xc4;" horiz-adv-x="1480" d="M23 0l651 1442h117l667 -1442h-289l-122 268h-631l-121 -268h-272zM332 1690q0 63 45 108t108 45t108.5 -45t45.5 -108t-45.5 -108.5t-108.5 -45.5t-108 45.5t-45 108.5zM500 489h456l-231 523zM844 1690q0 63 45 108t108 45t108.5 -45t45.5 -108t-45.5 -108.5 t-108.5 -45.5t-108 45.5t-45 108.5z" />
<glyph unicode="&#xc5;" horiz-adv-x="1480" d="M23 0l651 1442h117l667 -1442h-289l-122 268h-631l-121 -268h-272zM449 1710q0 104 81.5 175t210.5 71q128 0 210.5 -71.5t82.5 -174.5q0 -104 -82 -174t-211 -70q-130 0 -211 69.5t-81 174.5zM500 489h456l-231 523zM627 1710q0 -44 31 -72t83 -28q51 0 83 28.5t32 71.5 t-32.5 72.5t-82.5 29.5q-51 0 -82.5 -29t-31.5 -73z" />
<glyph unicode="&#xc6;" horiz-adv-x="2043" d="M10 0l916 1434h1022v-228h-670v-336h487v-227h-487v-416h670v-227h-932v272h-545l-172 -272h-289zM612 500h404v641z" />
<glyph unicode="&#xc7;" horiz-adv-x="1499" d="M92 717q0 227 85 394.5t238.5 255t358.5 87.5q241 0 402.5 -111.5t201.5 -295.5l-260 -70q-32 118 -120 181t-224 63q-184 0 -292.5 -131.5t-108.5 -372.5t108.5 -372.5t292.5 -131.5q158 0 259 83t122 251l254 -64q-23 -218 -178.5 -352t-396.5 -149q68 -19 115.5 -70 t47.5 -125q0 -101 -77.5 -157t-192.5 -56q-110 0 -190 41l45 147q51 -26 120 -26q93 0 93 55q0 59 -113 59h-55l18 140q-255 39 -404 230.5t-149 496.5z" />
<glyph unicode="&#xc8;" horiz-adv-x="1163" d="M137 0v1434h930v-228h-668v-336h486v-227h-486v-416h668v-227h-930zM295 1819l289 8l139 -291h-199z" />
<glyph unicode="&#xc9;" horiz-adv-x="1163" d="M137 0v1434h930v-228h-668v-336h486v-227h-486v-416h668v-227h-930zM475 1536l168 289l295 -10l-244 -279h-219z" />
<glyph unicode="&#xca;" horiz-adv-x="1163" d="M137 0v1434h930v-228h-668v-336h486v-227h-486v-416h668v-227h-930zM227 1540l273 281h225l272 -281l-231 -10l-154 143l-153 -143z" />
<glyph unicode="&#xcb;" horiz-adv-x="1163" d="M137 0v1434h930v-228h-668v-336h486v-227h-486v-416h668v-227h-930zM203 1690q0 63 45 108t108 45t108.5 -45t45.5 -108t-45.5 -108.5t-108.5 -45.5t-108 45.5t-45 108.5zM715 1690q0 63 45 108t108 45t108.5 -45t45.5 -108t-45.5 -108.5t-108.5 -45.5t-108 45.5 t-45 108.5z" />
<glyph unicode="&#xcc;" horiz-adv-x="536" d="M-49 1819l289 8l139 -291h-199zM137 0v1434h262v-1434h-262z" />
<glyph unicode="&#xcd;" horiz-adv-x="536" d="M133 1536l168 289l295 -10l-244 -279h-219zM137 0v1434h262v-1434h-262z" />
<glyph unicode="&#xce;" horiz-adv-x="536" d="M-117 1540l273 281h225l272 -281l-231 -10l-154 143l-153 -143zM137 0v1434h262v-1434h-262z" />
<glyph unicode="&#xcf;" horiz-adv-x="536" d="M-141 1690q0 63 45 108t108 45t108.5 -45t45.5 -108t-45.5 -108.5t-108.5 -45.5t-108 45.5t-45 108.5zM137 0v1434h262v-1434h-262zM371 1690q0 63 45 108t108 45t108.5 -45t45.5 -108t-45.5 -108.5t-108.5 -45.5t-108 45.5t-45 108.5z" />
<glyph unicode="&#xd0;" horiz-adv-x="1445" d="M8 618v197h129v619h584q185 0 329.5 -89t227 -256.5t82.5 -388.5q0 -330 -173.5 -515t-457.5 -185h-592v618h-129zM399 227h310q82 0 146.5 25t116 79t79.5 147.5t28 221.5q0 251 -106 378.5t-273 127.5h-301v-391h326v-197h-326v-391z" />
<glyph unicode="&#xd1;" horiz-adv-x="1468" d="M137 0v1442h119l819 -916v908h256v-1442h-119l-819 917v-909h-256zM324 1640q30 105 100.5 164.5t150.5 59.5q50 0 100 -17t82.5 -37.5t66.5 -37.5t57 -17q66 0 92 90l170 -86q-30 -106 -100 -165.5t-152 -59.5q-62 0 -123 28t-107 55.5t-73 27.5q-68 0 -94 -91z" />
<glyph unicode="&#xd2;" horiz-adv-x="1585" d="M92 717q0 344 188 540.5t511 196.5q324 0 513 -196.5t189 -540.5t-189 -540.5t-513 -196.5q-323 0 -511 196.5t-188 540.5zM373 717q0 -241 113 -372.5t305 -131.5q193 0 307 131.5t114 372.5t-114 372.5t-307 131.5q-192 0 -305 -131.5t-113 -372.5zM475 1819l289 8 l139 -291h-198z" />
<glyph unicode="&#xd3;" horiz-adv-x="1585" d="M92 717q0 344 188 540.5t511 196.5q324 0 513 -196.5t189 -540.5t-189 -540.5t-513 -196.5q-323 0 -511 196.5t-188 540.5zM373 717q0 -241 113 -372.5t305 -131.5q193 0 307 131.5t114 372.5t-114 372.5t-307 131.5q-192 0 -305 -131.5t-113 -372.5zM657 1536l168 289 l295 -10l-243 -279h-220z" />
<glyph unicode="&#xd4;" horiz-adv-x="1585" d="M92 717q0 344 188 540.5t511 196.5q324 0 513 -196.5t189 -540.5t-189 -540.5t-513 -196.5q-323 0 -511 196.5t-188 540.5zM373 717q0 -241 113 -372.5t305 -131.5q193 0 307 131.5t114 372.5t-114 372.5t-307 131.5q-192 0 -305 -131.5t-113 -372.5zM408 1540l272 281 h225l273 -281l-232 -10l-153 143l-154 -143z" />
<glyph unicode="&#xd5;" horiz-adv-x="1585" d="M92 717q0 344 188 540.5t511 196.5q324 0 513 -196.5t189 -540.5t-189 -540.5t-513 -196.5q-323 0 -511 196.5t-188 540.5zM373 717q0 -241 113 -372.5t305 -131.5q193 0 307 131.5t114 372.5t-114 372.5t-307 131.5q-192 0 -305 -131.5t-113 -372.5zM381 1640 q30 105 101 164.5t151 59.5q50 0 99.5 -17t82 -37.5t66.5 -37.5t57 -17q66 0 92 90l170 -86q-30 -106 -100 -165.5t-152 -59.5q-62 0 -123 28t-107 55.5t-73 27.5q-68 0 -94 -91z" />
<glyph unicode="&#xd6;" horiz-adv-x="1585" d="M92 717q0 344 188 540.5t511 196.5q324 0 513 -196.5t189 -540.5t-189 -540.5t-513 -196.5q-323 0 -511 196.5t-188 540.5zM373 717q0 -241 113 -372.5t305 -131.5q193 0 307 131.5t114 372.5t-114 372.5t-307 131.5q-192 0 -305 -131.5t-113 -372.5zM383 1690 q0 63 45.5 108t108.5 45t108 -45t45 -108t-45 -108.5t-108 -45.5t-108.5 45.5t-45.5 108.5zM895 1690q0 63 45.5 108t108.5 45t108 -45t45 -108t-45 -108.5t-108 -45.5t-108.5 45.5t-45.5 108.5z" />
<glyph unicode="&#xd7;" horiz-adv-x="1087" d="M86 430l285 285l-285 284l176 177l285 -285l284 285l170 -170l-284 -285l284 -285l-176 -176l-284 285l-285 -285z" />
<glyph unicode="&#xd8;" horiz-adv-x="1585" d="M92 717q0 344 188 540.5t511 196.5q186 0 335 -70l144 211l174 -102l-152 -223q201 -198 201 -553q0 -344 -189 -540.5t-513 -196.5q-187 0 -334 69l-127 -186l-174 102l135 199q-199 199 -199 553zM373 717q0 -195 76 -322l536 783q-85 43 -194 43q-192 0 -305 -131.5 t-113 -372.5zM598 256q82 -43 193 -43q193 0 307 131.5t114 372.5q0 194 -77 323z" />
<glyph unicode="&#xd9;" horiz-adv-x="1419" d="M117 547v887h262v-904q0 -147 89.5 -232t240.5 -85q152 0 241.5 85t89.5 232v904h263v-887q0 -260 -161.5 -413.5t-432.5 -153.5q-269 0 -430.5 153.5t-161.5 413.5zM393 1819l289 8l139 -291h-198z" />
<glyph unicode="&#xda;" horiz-adv-x="1419" d="M117 547v887h262v-904q0 -147 89.5 -232t240.5 -85q152 0 241.5 85t89.5 232v904h263v-887q0 -260 -161.5 -413.5t-432.5 -153.5q-269 0 -430.5 153.5t-161.5 413.5zM573 1536l168 289l295 -10l-243 -279h-220z" />
<glyph unicode="&#xdb;" horiz-adv-x="1419" d="M117 547v887h262v-904q0 -147 89.5 -232t240.5 -85q152 0 241.5 85t89.5 232v904h263v-887q0 -260 -161.5 -413.5t-432.5 -153.5q-269 0 -430.5 153.5t-161.5 413.5zM326 1540l272 281h225l273 -281l-232 -10l-153 143l-154 -143z" />
<glyph unicode="&#xdc;" horiz-adv-x="1419" d="M117 547v887h262v-904q0 -147 89.5 -232t240.5 -85q152 0 241.5 85t89.5 232v904h263v-887q0 -260 -161.5 -413.5t-432.5 -153.5q-269 0 -430.5 153.5t-161.5 413.5zM301 1690q0 63 45.5 108t108.5 45t108 -45t45 -108t-45 -108.5t-108 -45.5t-108.5 45.5t-45.5 108.5z M813 1690q0 63 45.5 108t108.5 45t108 -45t45 -108t-45 -108.5t-108 -45.5t-108.5 45.5t-45.5 108.5z" />
<glyph unicode="&#xdd;" horiz-adv-x="1339" d="M18 1434h301l357 -529l360 529h285l-520 -787v-647h-262v647zM535 1536l167 289l295 -10l-243 -279h-219z" />
<glyph unicode="&#xde;" horiz-adv-x="1247" d="M137 0v1434h262v-258h250q114 0 210 -26t171.5 -79.5t118.5 -144t43 -209.5t-43.5 -209.5t-119.5 -143.5t-171.5 -79.5t-208.5 -26.5h-250v-258h-262zM399 485h256q50 0 95 13t83.5 39t61.5 72.5t23 107.5t-23 107.5t-61.5 72.5t-83.5 38.5t-95 12.5h-256v-463z" />
<glyph unicode="&#xdf;" horiz-adv-x="1318" d="M137 0v1026q0 163 69 279.5t187 173.5t273 57q111 0 205 -33.5t156.5 -91t97 -133.5t34.5 -160q0 -113 -60 -205.5t-153 -140.5q131 -46 208 -144t77 -235q0 -111 -45 -196t-119 -132.5t-166 -69t-189.5 -12t-185.5 45.5l33 204q136 -49 228.5 -32.5t140 73.5t47.5 140 q0 104 -84.5 171.5t-269.5 67.5v215q138 0 210 69t72 171q0 87 -68 150t-178 63q-118 0 -194 -72t-76 -221v-1028h-250z" />
<glyph unicode="&#xe0;" d="M72 528q0 134 36.5 240.5t100 173t146 101t177.5 34.5q148 0 271 -94v74h250v-1057h-238v88q-132 -108 -283 -108q-95 0 -177 34.5t-146 100.5t-100.5 172.5t-36.5 240.5zM299 1483l264 10l150 -319h-205zM328 528q0 -165 72 -249t192 -84q108 0 211 92v489 q-114 86 -219 86q-110 0 -183 -85.5t-73 -248.5z" />
<glyph unicode="&#xe1;" d="M72 528q0 134 36.5 240.5t100 173t146 101t177.5 34.5q148 0 271 -94v74h250v-1057h-238v88q-132 -108 -283 -108q-95 0 -177 34.5t-146 100.5t-100.5 172.5t-36.5 240.5zM328 528q0 -165 72 -249t192 -84q108 0 211 92v489q-114 86 -219 86q-110 0 -183 -85.5 t-73 -248.5zM453 1174l147 319l266 -10l-209 -309h-204z" />
<glyph unicode="&#xe2;" d="M72 528q0 134 36.5 240.5t100 173t146 101t177.5 34.5q148 0 271 -94v74h250v-1057h-238v88q-132 -108 -283 -108q-95 0 -177 34.5t-146 100.5t-100.5 172.5t-36.5 240.5zM236 1184l231 309h225l232 -309l-205 -10l-139 172l-140 -172zM328 528q0 -165 72 -249t192 -84 q108 0 211 92v489q-114 86 -219 86q-110 0 -183 -85.5t-73 -248.5z" />
<glyph unicode="&#xe3;" d="M72 528q0 134 36.5 240.5t100 173t146 101t177.5 34.5q148 0 271 -94v74h250v-1057h-238v88q-132 -108 -283 -108q-95 0 -177 34.5t-146 100.5t-100.5 172.5t-36.5 240.5zM186 1292q29 103 99.5 157t152.5 54q46 0 89.5 -17t71.5 -37t58.5 -37t53.5 -17q70 0 96 88 l166 -84q-29 -103 -99 -157t-153 -54q-46 0 -89.5 17t-71 38t-57.5 38t-52 17q-71 0 -97 -90zM328 528q0 -165 72 -249t192 -84q108 0 211 92v489q-114 86 -219 86q-110 0 -183 -85.5t-73 -248.5z" />
<glyph unicode="&#xe4;" d="M72 528q0 134 36.5 240.5t100 173t146 101t177.5 34.5q148 0 271 -94v74h250v-1057h-238v88q-132 -108 -283 -108q-95 0 -177 34.5t-146 100.5t-100.5 172.5t-36.5 240.5zM201 1346q0 62 43.5 105.5t105.5 43.5t106 -44t44 -105q0 -62 -44 -106t-106 -44q-61 0 -105 44 t-44 106zM328 528q0 -165 72 -249t192 -84q108 0 211 92v489q-114 86 -219 86q-110 0 -183 -85.5t-73 -248.5zM664 1346q0 62 44 105.5t105 43.5q62 0 106 -44t44 -105q0 -62 -44.5 -106t-105.5 -44t-105 44t-44 106z" />
<glyph unicode="&#xe5;" d="M72 528q0 134 36.5 240.5t100 173t146 101t177.5 34.5q148 0 271 -94v74h250v-1057h-238v88q-132 -108 -283 -108q-95 0 -177 34.5t-146 100.5t-100.5 172.5t-36.5 240.5zM301 1382q0 104 78 175t203 71q124 0 202 -71t78 -175t-78 -173.5t-202 -69.5q-125 0 -203 69 t-78 174zM328 528q0 -165 72 -249t192 -84q108 0 211 92v489q-114 86 -219 86q-110 0 -183 -85.5t-73 -248.5zM479 1382q0 -45 29 -75.5t74 -30.5q44 0 73 30.5t29 75.5t-29 77t-73 32q-45 0 -74 -32t-29 -77z" />
<glyph unicode="&#xe6;" horiz-adv-x="1880" d="M72 528q0 134 36.5 240.5t100 173t146 101t177.5 34.5q148 0 271 -94v74h250v-90q120 110 278 110q68 0 134.5 -20.5t130 -68.5t111 -118t74 -177t21.5 -238h-745q9 -71 35 -125.5t62 -85.5t76 -46.5t83 -15.5q73 0 133 42.5t88 123.5l240 -53q-59 -147 -179 -231 t-264 -84q-157 0 -278 118v-98h-238v88q-132 -108 -283 -108q-95 0 -177 34.5t-146 100.5t-100.5 172.5t-36.5 240.5zM328 528q0 -165 72 -249t192 -84q108 0 211 92v489q-114 86 -219 86q-110 0 -183 -85.5t-73 -248.5zM1063 639h485q-12 111 -79 173t-156 62 q-92 0 -160.5 -62t-89.5 -173z" />
<glyph unicode="&#xe7;" horiz-adv-x="1110" d="M72 528q0 126 39 230.5t107 173.5t158.5 107t194.5 38q84 0 158.5 -21t138.5 -63t108.5 -113t61.5 -165l-245 -58q-19 106 -77.5 155.5t-137.5 49.5q-109 0 -179.5 -82.5t-70.5 -251.5t70.5 -251t179.5 -82q79 0 137.5 49t77.5 155l245 -57q-34 -166 -142.5 -255 t-260.5 -103q70 -19 119 -70t49 -127q0 -101 -78 -157t-193 -56q-110 0 -190 41l45 147q51 -26 121 -26q92 0 92 55q0 59 -113 59h-55l21 144q-170 38 -275.5 179t-105.5 355z" />
<glyph unicode="&#xe8;" horiz-adv-x="1144" d="M72 528q0 125 41 230t110 174t159 107t189 38q79 0 151 -20.5t138 -68.5t113 -118t73 -177t21 -238h-750q16 -143 89 -208t176 -65q84 0 146 43t87 131l221 -82q-46 -144 -166.5 -219t-289.5 -75q-106 0 -198.5 37.5t-161.5 107t-108.5 173.5t-39.5 230zM289 1483l264 10 l149 -319h-204zM324 639h489q-12 113 -76 174t-159 61t-163.5 -57t-90.5 -178z" />
<glyph unicode="&#xe9;" horiz-adv-x="1144" d="M72 528q0 125 41 230t110 174t159 107t189 38q79 0 151 -20.5t138 -68.5t113 -118t73 -177t21 -238h-750q16 -143 89 -208t176 -65q84 0 146 43t87 131l221 -82q-46 -144 -166.5 -219t-289.5 -75q-106 0 -198.5 37.5t-161.5 107t-108.5 173.5t-39.5 230zM324 639h489 q-12 113 -76 174t-159 61t-163.5 -57t-90.5 -178zM442 1174l148 319l266 -10l-209 -309h-205z" />
<glyph unicode="&#xea;" horiz-adv-x="1144" d="M72 528q0 125 41 230t110 174t159 107t189 38q79 0 151 -20.5t138 -68.5t113 -118t73 -177t21 -238h-750q16 -143 89 -208t176 -65q84 0 146 43t87 131l221 -82q-46 -144 -166.5 -219t-289.5 -75q-106 0 -198.5 37.5t-161.5 107t-108.5 173.5t-39.5 230zM225 1184 l232 309h225l231 -309l-204 -10l-140 172l-139 -172zM324 639h489q-12 113 -76 174t-159 61t-163.5 -57t-90.5 -178z" />
<glyph unicode="&#xeb;" horiz-adv-x="1144" d="M72 528q0 125 41 230t110 174t159 107t189 38q79 0 151 -20.5t138 -68.5t113 -118t73 -177t21 -238h-750q16 -143 89 -208t176 -65q84 0 146 43t87 131l221 -82q-46 -144 -166.5 -219t-289.5 -75q-106 0 -198.5 37.5t-161.5 107t-108.5 173.5t-39.5 230zM190 1346 q0 61 44 105t106 44t105.5 -43.5t43.5 -105.5t-44 -106t-105 -44q-62 0 -106 44t-44 106zM324 639h489q-12 113 -76 174t-159 61t-163.5 -57t-90.5 -178zM653 1346q0 61 44 105t106 44q61 0 105 -43.5t44 -105.5t-44 -106t-105 -44t-105.5 44t-44.5 106z" />
<glyph unicode="&#xec;" horiz-adv-x="524" d="M-20 1483l264 10l149 -319h-205zM137 0v1057h250v-1057h-250z" />
<glyph unicode="&#xed;" horiz-adv-x="524" d="M133 1174l148 319l266 -10l-209 -309h-205zM137 0v1057h250v-1057h-250z" />
<glyph unicode="&#xee;" horiz-adv-x="524" d="M-82 1184l232 309h225l231 -309l-205 -10l-139 172l-139 -172zM137 0v1057h250v-1057h-250z" />
<glyph unicode="&#xef;" horiz-adv-x="524" d="M-119 1346q0 61 44 105t106 44q61 0 105 -43.5t44 -105.5t-44 -106t-105 -44t-105.5 44t-44.5 106zM137 0v1057h250v-1057h-250zM344 1346q0 61 44 105t106 44t105.5 -43.5t43.5 -105.5t-44 -106t-105 -44q-62 0 -106 44t-44 106z" />
<glyph unicode="&#xf0;" horiz-adv-x="1183" d="M76 492q0 110 35.5 204.5t97 158.5t144.5 100t177 36q98 0 189 -39q-58 101 -162 215l-285 -133l-90 162l230 107q-104 87 -232 172l264 61q101 -61 189 -131l241 113l93 -160l-191 -88q150 -162 230.5 -346.5t80.5 -362.5q0 -261 -141.5 -421t-363.5 -160 q-98 0 -188.5 35t-161.5 99t-113.5 162t-42.5 216zM332 492q0 -127 70.5 -212t179.5 -85q102 0 175.5 85.5t73.5 256.5q0 91 -18 174q-107 69 -219 69q-115 0 -188.5 -78.5t-73.5 -209.5z" />
<glyph unicode="&#xf1;" horiz-adv-x="1185" d="M137 0v1057h238v-115q81 68 157 101.5t166 33.5q75 0 139 -23.5t114.5 -71t79 -127.5t28.5 -185v-670h-250v655q0 109 -53 158t-135 49q-112 0 -234 -90v-772h-250zM203 1292q29 103 99.5 157t152.5 54q46 0 89.5 -17t71 -37t58 -37t53.5 -17q70 0 96 88l166 -84 q-29 -103 -99 -157t-153 -54q-46 0 -89.5 17t-71 38t-57.5 38t-52 17q-70 0 -96 -90z" />
<glyph unicode="&#xf2;" horiz-adv-x="1155" d="M72 528q0 129 39 234t107.5 173t160.5 105t199 37t198.5 -37t160 -105t107.5 -173t39 -234t-39 -233.5t-107.5 -173t-160 -105t-198.5 -36.5q-221 0 -363.5 146t-142.5 402zM295 1483l264 10l150 -319h-205zM328 528q0 -170 69.5 -251.5t180.5 -81.5q110 0 179.5 81.5 t69.5 251.5t-69.5 252t-179.5 82q-111 0 -180.5 -82t-69.5 -252z" />
<glyph unicode="&#xf3;" horiz-adv-x="1155" d="M72 528q0 129 39 234t107.5 173t160.5 105t199 37t198.5 -37t160 -105t107.5 -173t39 -234t-39 -233.5t-107.5 -173t-160 -105t-198.5 -36.5q-221 0 -363.5 146t-142.5 402zM328 528q0 -170 69.5 -251.5t180.5 -81.5q110 0 179.5 81.5t69.5 251.5t-69.5 252t-179.5 82 q-111 0 -180.5 -82t-69.5 -252zM449 1174l147 319l266 -10l-209 -309h-204z" />
<glyph unicode="&#xf4;" horiz-adv-x="1155" d="M72 528q0 129 39 234t107.5 173t160.5 105t199 37t198.5 -37t160 -105t107.5 -173t39 -234t-39 -233.5t-107.5 -173t-160 -105t-198.5 -36.5q-221 0 -363.5 146t-142.5 402zM231 1184l232 309h225l232 -309l-205 -10l-140 172l-139 -172zM328 528q0 -170 69.5 -251.5 t180.5 -81.5q110 0 179.5 81.5t69.5 251.5t-69.5 252t-179.5 82q-111 0 -180.5 -82t-69.5 -252z" />
<glyph unicode="&#xf5;" horiz-adv-x="1155" d="M72 528q0 129 39 234t107.5 173t160.5 105t199 37t198.5 -37t160 -105t107.5 -173t39 -234t-39 -233.5t-107.5 -173t-160 -105t-198.5 -36.5q-221 0 -363.5 146t-142.5 402zM182 1292q29 103 99.5 157t152.5 54q46 0 89.5 -17t71.5 -37t58.5 -37t53.5 -17q70 0 96 88 l166 -84q-29 -103 -99 -157t-153 -54q-46 0 -89.5 17t-71 38t-58 38t-52.5 17q-70 0 -96 -90zM328 528q0 -170 69.5 -251.5t180.5 -81.5q110 0 179.5 81.5t69.5 251.5t-69.5 252t-179.5 82q-111 0 -180.5 -82t-69.5 -252z" />
<glyph unicode="&#xf6;" horiz-adv-x="1155" d="M72 528q0 129 39 234t107.5 173t160.5 105t199 37t198.5 -37t160 -105t107.5 -173t39 -234t-39 -233.5t-107.5 -173t-160 -105t-198.5 -36.5q-221 0 -363.5 146t-142.5 402zM197 1346q0 62 43.5 105.5t105.5 43.5t106 -44t44 -105q0 -62 -44 -106t-106 -44q-61 0 -105 44 t-44 106zM328 528q0 -170 69.5 -251.5t180.5 -81.5q110 0 179.5 81.5t69.5 251.5t-69.5 252t-179.5 82q-111 0 -180.5 -82t-69.5 -252zM659 1346q0 61 44 105t106 44q61 0 105 -43.5t44 -105.5t-44 -106t-105 -44t-105.5 44t-44.5 106z" />
<glyph unicode="&#xf7;" horiz-adv-x="1089" d="M57 600v240h975v-240h-975zM381 283q0 66 48 113.5t114 47.5q69 0 117.5 -47.5t48.5 -113.5q0 -67 -48.5 -114.5t-117.5 -47.5q-66 0 -114 47.5t-48 114.5zM381 1157q0 67 48 115.5t114 48.5q69 0 117.5 -48t48.5 -116q0 -67 -48.5 -114.5t-117.5 -47.5q-66 0 -114 47.5 t-48 114.5z" />
<glyph unicode="&#xf8;" horiz-adv-x="1163" d="M72 528q0 129 39 234t107.5 173t160.5 105t199 37q128 0 237 -53l117 170l155 -90l-131 -191q127 -146 127 -385q0 -129 -39 -233.5t-107.5 -173t-160 -105t-198.5 -36.5q-133 0 -232 51l-117 -168l-153 90l127 184q-131 147 -131 391zM328 528q0 -99 26 -172l332 482 q-50 24 -108 24q-111 0 -180.5 -82t-69.5 -252zM473 217q45 -22 105 -22q110 0 179.5 81.5t69.5 251.5q0 98 -24 166z" />
<glyph unicode="&#xf9;" horiz-adv-x="1185" d="M137 387v670h250v-656q0 -109 53 -157.5t135 -48.5q112 0 234 90v772h250v-1057h-238v115q-81 -68 -156.5 -101.5t-166.5 -33.5q-75 0 -138.5 23.5t-114 71t-79.5 127.5t-29 185zM311 1483l264 10l150 -319h-205z" />
<glyph unicode="&#xfa;" horiz-adv-x="1185" d="M137 387v670h250v-656q0 -109 53 -157.5t135 -48.5q112 0 234 90v772h250v-1057h-238v115q-81 -68 -156.5 -101.5t-166.5 -33.5q-75 0 -138.5 23.5t-114 71t-79.5 127.5t-29 185zM465 1174l147 319l267 -10l-209 -309h-205z" />
<glyph unicode="&#xfb;" horiz-adv-x="1185" d="M137 387v670h250v-656q0 -109 53 -157.5t135 -48.5q112 0 234 90v772h250v-1057h-238v115q-81 -68 -156.5 -101.5t-166.5 -33.5q-75 0 -138.5 23.5t-114 71t-79.5 127.5t-29 185zM248 1184l231 309h226l231 -309l-205 -10l-139 172l-139 -172z" />
<glyph unicode="&#xfc;" horiz-adv-x="1185" d="M137 387v670h250v-656q0 -109 53 -157.5t135 -48.5q112 0 234 90v772h250v-1057h-238v115q-81 -68 -156.5 -101.5t-166.5 -33.5q-75 0 -138.5 23.5t-114 71t-79.5 127.5t-29 185zM213 1346q0 62 43.5 105.5t105.5 43.5t106 -44t44 -105q0 -62 -44 -106t-106 -44 q-61 0 -105 44t-44 106zM676 1346q0 62 44 105.5t105 43.5q62 0 106 -44t44 -105q0 -62 -44.5 -106t-105.5 -44t-105 44t-44 106z" />
<glyph unicode="&#xfd;" horiz-adv-x="1107" d="M18 1057h269l274 -623l275 623h254l-660 -1467h-260l258 562zM426 1174l147 319l267 -10l-209 -309h-205z" />
<glyph unicode="&#xfe;" horiz-adv-x="1193" d="M137 -410v1926h250v-566q148 127 320 127q81 0 154 -35t131 -101.5t92 -173.5t34 -239t-37.5 -239t-100.5 -173t-140 -101t-160 -35q-152 0 -293 92v-482h-250zM387 281q116 -86 221 -86q107 0 180.5 85.5t73.5 247.5q0 163 -69 248.5t-170 85.5q-125 0 -236 -108v-473z " />
<glyph unicode="&#xff;" horiz-adv-x="1107" d="M18 1057h269l274 -623l275 623h254l-660 -1467h-260l258 562zM174 1346q0 61 44 105t106 44t105.5 -43.5t43.5 -105.5t-44 -106t-105 -44q-62 0 -106 44t-44 106zM637 1346q0 62 43.5 105.5t105.5 43.5t106 -44t44 -105q0 -62 -44 -106t-106 -44q-61 0 -105 44t-44 106z " />
<glyph unicode="&#x152;" horiz-adv-x="2238" d="M92 717q0 169 54 309t148.5 233t222 144t274.5 51q252 0 421 -164v144h930v-228h-667v-336h485v-227h-485v-416h667v-227h-930v162q-188 -182 -458 -182q-297 0 -479.5 198t-182.5 539zM373 717q0 -241 113 -372.5t305 -131.5q191 0 306 132t115 372t-115 372t-306 132 q-192 0 -305 -131.5t-113 -372.5z" />
<glyph unicode="&#x153;" horiz-adv-x="1910" d="M72 528q0 129 39 234t107.5 173t160.5 105t199 37q118 0 218.5 -44.5t168.5 -129.5q70 84 167 129t205 45q79 0 151.5 -20.5t138.5 -68.5t113 -118t72.5 -177t20.5 -238h-748q16 -143 89 -208t176 -65q84 0 145 43t86 131l223 -82q-48 -145 -169 -219.5t-289 -74.5 q-237 0 -383 172q-68 -84 -167.5 -128t-217.5 -44q-221 0 -363.5 146t-142.5 402zM328 528q0 -170 69.5 -251.5t180.5 -81.5q110 0 179.5 81.5t69.5 251.5t-69.5 252t-179.5 82q-111 0 -180.5 -82t-69.5 -252zM1090 639h489q-12 113 -76 174t-160 61q-94 0 -162 -57 t-91 -178z" />
<glyph unicode="&#x178;" horiz-adv-x="1339" d="M18 1434h301l357 -529l360 529h285l-520 -787v-647h-262v647zM260 1690q0 63 45.5 108t108.5 45t108 -45t45 -108t-45 -108.5t-108 -45.5t-108.5 45.5t-45.5 108.5zM772 1690q0 63 45.5 108t108.5 45t108 -45t45 -108t-45 -108.5t-108 -45.5t-108.5 45.5t-45.5 108.5z " />
<glyph unicode="&#x2000;" horiz-adv-x="978" />
<glyph unicode="&#x2001;" horiz-adv-x="1956" />
<glyph unicode="&#x2002;" horiz-adv-x="978" />
<glyph unicode="&#x2003;" horiz-adv-x="1956" />
<glyph unicode="&#x2004;" horiz-adv-x="652" />
<glyph unicode="&#x2005;" horiz-adv-x="489" />
<glyph unicode="&#x2006;" horiz-adv-x="326" />
<glyph unicode="&#x2007;" horiz-adv-x="326" />
<glyph unicode="&#x2008;" horiz-adv-x="244" />
<glyph unicode="&#x2009;" horiz-adv-x="391" />
<glyph unicode="&#x200a;" horiz-adv-x="108" />
<glyph unicode="&#x2010;" horiz-adv-x="690" d="M74 420v221h542v-221h-542z" />
<glyph unicode="&#x2011;" horiz-adv-x="690" d="M74 420v221h542v-221h-542z" />
<glyph unicode="&#x2012;" horiz-adv-x="690" d="M74 420v221h542v-221h-542z" />
<glyph unicode="&#x2013;" horiz-adv-x="1024" d="M31 420v221h962v-221h-962z" />
<glyph unicode="&#x2014;" horiz-adv-x="2048" d="M31 420v221h1986v-221h-1986z" />
<glyph unicode="&#x2018;" horiz-adv-x="593" d="M111 1063l122 524h246l-90 -524h-278z" />
<glyph unicode="&#x2019;" horiz-adv-x="593" d="M113 1063l90 524h278l-123 -524h-245z" />
<glyph unicode="&#x201a;" horiz-adv-x="593" d="M113 -229l90 526h278l-123 -526h-245z" />
<glyph unicode="&#x201c;" horiz-adv-x="1007" d="M113 1063l123 524h247l-92 -524h-278zM526 1063l123 524h246l-92 -524h-277z" />
<glyph unicode="&#x201d;" horiz-adv-x="1007" d="M113 1063l92 524h278l-123 -524h-247zM526 1063l92 524h277l-123 -524h-246z" />
<glyph unicode="&#x201e;" horiz-adv-x="1007" d="M113 -229l92 526h278l-123 -526h-247zM526 -229l92 526h277l-123 -526h-246z" />
<glyph unicode="&#x2022;" horiz-adv-x="978" d="M100 717q0 163 113 276t276 113t276.5 -113t113.5 -276t-113.5 -276t-276.5 -113t-276 113t-113 276z" />
<glyph unicode="&#x2026;" horiz-adv-x="2068" d="M131 150q0 69 48.5 117t117.5 48t117.5 -48t48.5 -117t-48.5 -117.5t-117.5 -48.5t-117.5 48.5t-48.5 117.5zM868 150q0 69 48.5 117t117.5 48t117.5 -48t48.5 -117t-48.5 -117.5t-117.5 -48.5t-117.5 48.5t-48.5 117.5zM1606 150q0 69 48.5 117t117.5 48t117 -48 t48 -117t-48 -117.5t-117 -48.5t-117.5 48.5t-48.5 117.5z" />
<glyph unicode="&#x202f;" horiz-adv-x="391" />
<glyph unicode="&#x2039;" horiz-adv-x="782" d="M55 528l471 498l201 -135l-356 -363l356 -362l-201 -135z" />
<glyph unicode="&#x203a;" horiz-adv-x="782" d="M55 166l357 362l-357 363l201 135l471 -498l-471 -497z" />
<glyph unicode="&#x205f;" horiz-adv-x="489" />
<glyph unicode="&#x20ac;" horiz-adv-x="1519" d="M-2 606v228h156q31 291 207 455.5t450 164.5q229 0 387 -107.5t199 -275.5l-260 -70q-33 101 -117.5 160.5t-208.5 59.5q-152 0 -251.5 -100.5t-123.5 -286.5h545v-228h-547q24 -189 124 -291t253 -102q146 0 244 78.5t119 230.5l253 -63q-25 -216 -194 -347.5 t-422 -131.5q-275 0 -451.5 166.5t-205.5 459.5h-156z" />
<glyph unicode="&#x2122;" horiz-adv-x="1193" d="M63 1321v113h398v-113h-133v-403h-129v403h-136zM535 918v516h155l123 -222l125 222h145v-516h-122v329l-115 -207h-72l-117 209v-331h-122z" />
<glyph unicode="&#x25fc;" horiz-adv-x="1054" d="M0 0v1055h1055v-1055h-1055z" />
</font>
</defs>
</svg>
