<?xml version="1.0" standalone="no"?>
<!DOCTYPE svg PUBLIC "-//W3C//DTD SVG 1.1//EN" "http://www.w3.org/Graphics/SVG/1.1/DTD/svg11.dtd" >
<svg xmlns="http://www.w3.org/2000/svg" xmlns:xlink="http://www.w3.org/1999/xlink" version="1.1">
<metadata></metadata>
<defs>
<font id="live_nationbold_italic" horiz-adv-x="1187" >
<font-face units-per-em="2048" ascent="1516" descent="-532" />
<missing-glyph horiz-adv-x="573" />
<glyph horiz-adv-x="0" />
<glyph horiz-adv-x="682" />
<glyph unicode=" "  horiz-adv-x="573" />
<glyph unicode="&#x09;" horiz-adv-x="573" />
<glyph unicode="&#xa0;" horiz-adv-x="573" />
<glyph unicode="!" horiz-adv-x="581" d="M78 139q0 69 57 122.5t137 53.5q58 0 102 -43t44 -110q0 -71 -56.5 -124.5t-138.5 -53.5q-57 0 -101 43.5t-44 111.5zM182 457l224 977h262l-230 -977h-256z" />
<glyph unicode="&#x22;" horiz-adv-x="864" d="M170 791l139 643h271l-162 -643h-248zM600 791l139 643h271l-162 -643h-248z" />
<glyph unicode="#" horiz-adv-x="1564" d="M12 340l119 227h231l160 299h-233l121 228h231l180 340h258l-180 -340h334l180 340h258l-180 -340h231l-120 -228h-230l-160 -299h232l-119 -227h-231l-181 -340h-258l181 340h-334l-180 -340h-259l181 340h-232zM621 567h333l160 299h-334z" />
<glyph unicode="$" horiz-adv-x="1239" d="M98 451h260q-13 -118 50.5 -181t181.5 -63q142 0 222.5 66t80.5 167q0 53 -36 89t-93.5 56t-126.5 37.5t-138.5 44t-127 65.5t-93.5 111.5t-36 172.5q0 78 32.5 151.5t93 134.5t157 101.5t214.5 48.5l66 289h250l-72 -307q144 -35 228 -127t83 -230l-266 -51 q1 96 -60.5 148.5t-168.5 52.5q-134 0 -206.5 -56t-72.5 -143q0 -39 22.5 -66.5t60 -44.5t87 -30.5t103.5 -27.5t108 -32t103.5 -48.5t87 -71.5t60 -106t22.5 -148q0 -185 -140.5 -319.5t-384.5 -151.5l-67 -289h-250l71 309q-161 42 -245.5 156.5t-59.5 292.5z" />
<glyph unicode="%" horiz-adv-x="2068" d="M193 887q0 253 128.5 407t350.5 154q149 0 242.5 -91.5t93.5 -234.5q0 -254 -129.5 -406.5t-352.5 -152.5q-149 0 -241 90.5t-92 233.5zM377 -25l1392 1586l185 -103l-1393 -1583zM426 911q-3 -157 111 -157q101 0 165 86t70 258q1 79 -28 118t-82 39q-99 2 -165.5 -85.5 t-70.5 -258.5zM1317 311q0 253 128.5 406t350.5 153q149 0 242.5 -90t93.5 -233q0 -254 -129.5 -407.5t-351.5 -153.5q-147 0 -240.5 91t-93.5 234zM1550 336q-1 -79 28.5 -118.5t82.5 -39.5q101 0 165 86t70 258q3 155 -110 158q-98 2 -165 -85.5t-71 -258.5z" />
<glyph unicode="&#x26;" horiz-adv-x="1411" d="M66 342q0 106 63.5 198.5t200.5 186.5l112 78l-26 39q-80 117 -80 248q0 61 27.5 123.5t77.5 116.5t131 88t178 34q155 0 243 -84.5t88 -212.5q0 -179 -245 -348l-68 -45l225 -309q92 145 109 325h262q-41 -314 -225 -526l186 -254h-295l-72 98q-191 -118 -423 -118 q-202 0 -335.5 99.5t-133.5 262.5zM352 371q0 -70 52.5 -117t150.5 -47q139 0 266 80l-250 342l-57 -39q-84 -57 -123 -108t-39 -111zM575 1102q0 -76 54 -148l10 -12l45 31q150 105 150 180q0 41 -25.5 71.5t-75.5 30.5q-71 0 -114.5 -48t-43.5 -105z" />
<glyph unicode="'" horiz-adv-x="434" d="M180 791l139 643h269l-160 -643h-248z" />
<glyph unicode="(" horiz-adv-x="712" d="M182 414q0 755 619 1339l211 -113q-557 -587 -557 -1226q0 -169 34.5 -335t94.5 -286l-228 -112q-74 123 -124 334t-50 399z" />
<glyph unicode=")" horiz-adv-x="712" d="M-156 -207q557 587 557 1227q0 169 -34.5 334.5t-94.5 285.5l228 113q74 -123 124 -334t50 -399q0 -755 -619 -1339z" />
<glyph unicode="*" horiz-adv-x="980" d="M248 1233l100 180l250 -100l59 293h207l-76 -295l289 98l19 -201l-295 -84l133 -245l-182 -107l-115 260l-234 -260l-145 127l248 250z" />
<glyph unicode="+" horiz-adv-x="1089" d="M115 600l53 240h362l84 362h250l-84 -362h363l-53 -240h-363l-84 -362h-250l84 362h-362z" />
<glyph unicode="," horiz-adv-x="618" d="M-33 -229l215 526h277l-244 -526h-248z" />
<glyph unicode="-" horiz-adv-x="677" d="M76 420l51 221h543l-52 -221h-542z" />
<glyph unicode="." horiz-adv-x="669" d="M115 139q0 69 57 122.5t137 53.5q58 0 102 -43t44 -110q0 -71 -56.5 -124.5t-138.5 -53.5q-57 0 -101 43.5t-44 111.5z" />
<glyph unicode="/" horiz-adv-x="980" d="M-154 -305l1248 2101l209 -57l-1250 -2101z" />
<glyph unicode="0" horiz-adv-x="1392" d="M154 532q0 200 59 372t161.5 292.5t246.5 189t309 68.5q214 0 345.5 -151.5t131.5 -401.5q0 -200 -59 -372t-161.5 -292t-245.5 -188.5t-308 -68.5q-215 0 -347 151t-132 401zM424 541q0 -164 60.5 -248t168.5 -84q100 0 187.5 45.5t154.5 130.5t105.5 216t38.5 292 q0 164 -61 248t-171 84q-101 0 -188 -45t-153 -129t-104 -215.5t-38 -294.5z" />
<glyph unicode="1" horiz-adv-x="792" d="M158 899l61 275l451 260h235l-332 -1434h-256l263 1135z" />
<glyph unicode="2" horiz-adv-x="1245" d="M20 0l11 47q26 115 76 212t112.5 165t136 124.5t148.5 97.5t148.5 78t137 72t112 72.5t76.5 86.5t28 108q0 74 -52 119t-139 45q-122 0 -205.5 -80.5t-101.5 -200.5l-250 33q18 99 62 183.5t113.5 150.5t170.5 103.5t223 37.5q202 0 326.5 -101.5t124.5 -285.5 q0 -88 -28.5 -161.5t-76.5 -126t-114 -101t-137 -85t-149.5 -78t-148.5 -79.5t-136.5 -91t-110.5 -112h717l-54 -233h-1020z" />
<glyph unicode="3" horiz-adv-x="1175" d="M47.5 269q-21.5 92 9.5 206h254q-34 -121 22.5 -194.5t184.5 -73.5q134 0 226 84.5t92 197.5q0 96 -77.5 143.5t-242.5 47.5h-20l45 192l360 322h-618l55 240h969l-56 -236l-397 -350q256 -85 256 -359q0 -222 -167.5 -365.5t-446.5 -143.5q-116 0 -210.5 34.5 t-155.5 98.5t-82.5 156z" />
<glyph unicode="4" horiz-adv-x="1198" d="M20 338l52 221l860 875h256l-201 -873h227l-51 -223h-229l-78 -338h-256l78 338h-658zM365 559l366 2l111 477z" />
<glyph unicode="5" horiz-adv-x="1226" d="M108 241.5q-25 85.5 5 196.5h254q-29 -103 26 -167t176 -64q148 0 241 90t93 227q0 92 -56.5 142.5t-152.5 50.5q-135 0 -291 -86l-200 74l262 729h831l-57 -240h-618l-119 -332q135 66 262 66q86 0 159.5 -23.5t132 -70.5t91.5 -126.5t33 -183.5q0 -238 -176 -391 t-457 -153q-101 0 -191 30t-156.5 88t-91.5 143.5z" />
<glyph unicode="6" horiz-adv-x="1269" d="M96 381q0 166 115 315l567 738h314l-396 -514q34 6 72 6q198 0 324.5 -113t126.5 -291q0 -104 -46.5 -202t-128.5 -173.5t-203.5 -121t-260.5 -45.5q-216 0 -350 114.5t-134 286.5zM371 408q0 -89 61 -146t168 -57q148 0 246 89.5t98 213.5q0 89 -60 146t-167 57 q-150 0 -248 -89t-98 -214z" />
<glyph unicode="7" horiz-adv-x="1097" d="M160 0l786 1200h-708l55 234h1012l-56 -234l-776 -1200h-313z" />
<glyph unicode="8" horiz-adv-x="1255" d="M80 365q0 135 89.5 239.5t248.5 167.5q-52 47 -79.5 111.5t-27.5 134.5q0 115 76 216.5t200.5 160.5t262.5 59q179 0 296.5 -107t117.5 -266q0 -110 -63.5 -201t-174.5 -155q79 -46 123.5 -124t44.5 -171q0 -187 -176.5 -318.5t-442.5 -131.5q-215 0 -355 110t-140 275z M356 379q0 -76 65 -124t173 -48q141 0 237.5 69.5t96.5 174.5q0 78 -64.5 126t-171.5 48q-142 0 -239 -70t-97 -176zM569 993q0 -68 47.5 -113.5t122.5 -45.5q102 0 181 69t79 164q0 72 -47.5 116t-122.5 44q-103 0 -181.5 -68t-78.5 -166z" />
<glyph unicode="9" horiz-adv-x="1243" d="M193 911q0 104 46.5 202.5t128 174t202 121t259.5 45.5q216 0 351 -114.5t135 -286.5q0 -167 -115 -316l-567 -737h-316l396 514q-35 -6 -72 -6q-197 0 -322.5 112.5t-125.5 290.5zM467 926q0 -90 59 -146.5t168 -56.5q149 0 246.5 88.5t97.5 214.5q0 89 -60 146t-167 57 q-148 0 -246 -89.5t-98 -213.5z" />
<glyph unicode=":" horiz-adv-x="671" d="M117 139q0 69 57 122.5t137 53.5q58 0 102 -43t44 -110q0 -71 -56.5 -124.5t-138.5 -53.5q-57 0 -101 43.5t-44 111.5zM291 899q0 69 57 122.5t137 53.5q58 0 102 -43t44 -110q0 -70 -57.5 -124.5t-137.5 -54.5q-58 0 -101.5 44t-43.5 112z" />
<glyph unicode=";" horiz-adv-x="628" d="M-53 -229l213 526h276l-243 -526h-246zM250 899q0 69 57 122.5t137 53.5q58 0 102 -43t44 -110q0 -70 -57.5 -124.5t-137.5 -54.5q-58 0 -101.5 44t-43.5 112z" />
<glyph unicode="&#x3c;" horiz-adv-x="1091" d="M115 600l53 240l1067 391l-61 -270l-715 -259l596 -253l-56 -240z" />
<glyph unicode="=" horiz-adv-x="1105" d="M66 358l55 240h975l-56 -240h-974zM178 842l55 239h975l-55 -239h-975z" />
<glyph unicode="&#x3e;" horiz-adv-x="1091" d="M51 209l62 270l714 258l-598 254l58 240l884 -391l-55 -240z" />
<glyph unicode="?" horiz-adv-x="1089" d="M205 993q11 70 38.5 134.5t75 124.5t110 104.5t150 71t189.5 26.5q190 0 311 -99t121 -268q0 -73 -24 -133t-64 -101.5t-88.5 -77t-100 -68.5t-96.5 -67t-81 -81t-50 -102h-256q19 86 56 155t81 112.5t93 79.5t93.5 63.5t81 56t58 65.5t21.5 84q0 65 -46.5 109.5 t-136.5 44.5q-117 0 -194.5 -76t-93.5 -186zM362 139q0 69 57.5 122.5t137.5 53.5q58 0 101.5 -43t43.5 -110q0 -71 -56.5 -124.5t-137.5 -53.5q-57 0 -101.5 43.5t-44.5 111.5z" />
<glyph unicode="@" horiz-adv-x="2158" d="M102 373q0 149 41 293t116 270t185.5 233t244 184t297.5 120t341 43q190 0 346.5 -58.5t260 -162.5t160 -246t56.5 -308q0 -156 -37 -286t-96.5 -216t-136 -146t-154.5 -86.5t-153 -26.5q-97 0 -168 36.5t-102 100.5q-78 -66 -162 -101.5t-193 -35.5q-162 0 -269.5 113 t-107.5 319q0 154 51 282t137 210.5t195.5 127.5t229.5 45q135 0 243 -100l19 80h250l-170 -735q-13 -57 12 -92t74 -35q39 0 81.5 20.5t85 65.5t75.5 107t54 154t21 199q0 127 -41 234.5t-118.5 186.5t-196.5 123t-268 44q-207 0 -391.5 -78.5t-312.5 -209.5t-202.5 -305.5 t-74.5 -362.5q0 -131 42.5 -243.5t121 -195.5t198.5 -130.5t268 -47.5q240 0 461 97l-45 -203q-216 -80 -438 -80q-190 0 -347.5 61.5t-262.5 169.5t-162.5 255t-57.5 317zM834 430q0 -116 53.5 -175.5t146.5 -59.5q58 0 112 22t122 68l112 491q-92 86 -196 86 q-66 0 -128 -28.5t-112 -81.5t-80 -136.5t-30 -185.5z" />
<glyph unicode="A" horiz-adv-x="1480" d="M-59 0l985 1442h116l334 -1442h-266l-61 268h-635l-185 -268h-288zM549 489h463l-113 527z" />
<glyph unicode="B" horiz-adv-x="1351" d="M55 0l332 1434h543q208 0 328 -92.5t120 -264.5q0 -125 -70 -218.5t-184 -141.5q71 -41 111.5 -111.5t40.5 -161.5q0 -92 -32.5 -167.5t-88.5 -126t-132.5 -85t-161.5 -50t-179 -15.5h-627zM354 215h334q66 0 120 13t98 39.5t68.5 73.5t24.5 110q0 81 -59.5 122 t-159.5 41h-334zM496 829h305q305 0 305 234q0 79 -57.5 117.5t-157.5 38.5h-305z" />
<glyph unicode="C" horiz-adv-x="1525" d="M156 571q0 189 63.5 353t174.5 280.5t267.5 183t337.5 66.5q248 0 391.5 -124t151.5 -324l-268 -50q-9 126 -85 195.5t-204 69.5q-156 0 -281.5 -86t-195.5 -235.5t-70 -332.5q0 -166 81.5 -259t228.5 -93q153 0 273 78t181 231l258 -61q-78 -234 -271.5 -358.5 t-459.5 -124.5q-263 0 -418 156t-155 435z" />
<glyph unicode="D" horiz-adv-x="1456" d="M55 0l332 1434h551q127 0 228.5 -45t167 -125t100 -187.5t34.5 -234.5q0 -131 -29.5 -248.5t-82.5 -209t-126 -164.5t-160.5 -121t-186.5 -73.5t-203 -25.5h-625zM371 227h309q102 0 191 36.5t160.5 109t113 194.5t41.5 281v17q0 163 -74 249q-78 92 -215 92h-301z" />
<glyph unicode="E" horiz-adv-x="1163" d="M55 0l332 1434h930l-53 -228h-668l-78 -336h486l-52 -227h-485l-96 -416h667l-53 -227h-930z" />
<glyph unicode="F" horiz-adv-x="1093" d="M55 0l332 1434h909l-53 -228h-647l-78 -336h465l-51 -227h-465l-150 -643h-262z" />
<glyph unicode="G" horiz-adv-x="1546" d="M156 573q0 185 63 347.5t174.5 280t273 185.5t349.5 68q251 0 401 -115t150 -299l-271 -69q-5 117 -84.5 183.5t-218.5 66.5q-155 0 -281.5 -82t-200 -231.5t-73.5 -338.5q0 -174 86 -264t236 -90q328 0 461 326h-418l51 227h707q-29 -169 -88 -303.5t-136 -224 t-175 -149t-202 -85.5t-219 -26q-271 0 -428 153.5t-157 439.5z" />
<glyph unicode="H" horiz-adv-x="1460" d="M55 0l332 1434h262l-137 -590h659l140 590h262l-332 -1434h-262l139 610h-659l-142 -610h-262z" />
<glyph unicode="I" horiz-adv-x="532" d="M53 0l332 1434h262l-332 -1434h-262z" />
<glyph unicode="J" horiz-adv-x="1120" d="M61 459l267 2q-8 -45 -8 -82q0 -168 169 -168q116 0 184 73t103 222l213 928h262l-221 -963q-112 -491 -563 -491q-218 0 -333 136q-84 101 -84 239q0 50 11 104z" />
<glyph unicode="K" horiz-adv-x="1351" d="M55 0l332 1434h262l-137 -590h205l508 590h311l-600 -689l301 -745h-279l-237 610h-262l-142 -610h-262z" />
<glyph unicode="L" horiz-adv-x="1095" d="M55 0l332 1434h262l-278 -1207h643l-53 -227h-906z" />
<glyph unicode="M" horiz-adv-x="1720" d="M55 0l332 1434h305l236 -693l598 693h307l-332 -1434h-250l248 1071l-581 -688h-119l-240 713l-254 -1096h-250z" />
<glyph unicode="N" horiz-adv-x="1468" d="M55 0l334 1442h119l600 -944l217 936h256l-334 -1442h-119l-602 944l-215 -936h-256z" />
<glyph unicode="O" horiz-adv-x="1599" d="M154 563q0 140 36 271t109 243.5t174 196.5t240 132t299 48q273 0 437.5 -151.5t164.5 -432.5q0 -176 -58.5 -335.5t-165.5 -283.5t-272 -197.5t-364 -73.5q-272 0 -436 151t-164 432zM432 565q0 -155 91 -251.5t237 -96.5q164 0 294 80t204.5 229t74.5 342 q0 156 -90 252.5t-237 96.5q-123 0 -229 -47t-182 -131t-119.5 -206.5t-43.5 -267.5z" />
<glyph unicode="P" horiz-adv-x="1263" d="M55 0l332 1434h506q149 0 253 -39.5t163 -130.5q55 -85 55 -213v-17q-3 -153 -83 -260t-209.5 -157t-297.5 -50h-325l-132 -567h-262zM467 645l35 150h278q301 0 301 252q0 79 -54 119q-55 40 -153 40h-278z" />
<glyph unicode="Q" horiz-adv-x="1599" d="M154 563q0 140 36 271t109 243.5t174 196.5t240 132t299 48q273 0 437.5 -151.5t164.5 -432.5q0 -147 -41.5 -284.5t-118.5 -252t-194.5 -199.5t-262.5 -124l21 -219h-250l-16 189q-272 0 -435 151t-163 432zM432 565q0 -147 81.5 -242t215.5 -104l-20 236h249l19 -197 q163 67 259.5 228t96.5 382q0 156 -90 252.5t-237 96.5q-123 0 -229 -47t-182 -131t-119.5 -206.5t-43.5 -267.5z" />
<glyph unicode="R" horiz-adv-x="1310" d="M55 0l332 1434h506q149 0 253 -39.5t163 -130.5q55 -85 55 -213v-17q-3 -174 -102 -285.5t-267 -154.5l189 -594h-271l-174 567h-290l-132 -567h-262zM467 645l35 150h278q301 0 301 252q0 79 -54 119q-55 40 -153 40h-278z" />
<glyph unicode="S" horiz-adv-x="1239" d="M98 451h260q-2 -20 -2 -39q0 -90 52 -142q64 -63 182 -63q142 0 222.5 66t80.5 167q0 53 -36 89t-93.5 56t-126.5 37.5t-138.5 44t-127 65.5t-93.5 111.5t-36 172.5q0 83 37 160.5t105 140t176 100t239 37.5q220 0 358 -98t137 -279l-266 -51q1 96 -60.5 148.5 t-168.5 52.5q-134 0 -206.5 -56t-72.5 -143q0 -39 22.5 -66.5t60 -44.5t87 -30.5t103.5 -27.5t108 -32t103.5 -48.5t87 -71.5t60 -106t22.5 -148q0 -95 -39 -179.5t-111.5 -150.5t-185 -104.5t-248.5 -38.5q-114 0 -209 29.5t-165 86t-102 148.5q-21 61 -21 132q0 36 5 75z " />
<glyph unicode="T" horiz-adv-x="1165" d="M236 1206l53 228h1087l-53 -228h-412l-278 -1206h-262l278 1206h-413z" />
<glyph unicode="U" horiz-adv-x="1419" d="M168 575l199 859h262l-209 -904q-11 -48 -11 -89q0 -85 47 -143q70 -85 222 -85t260.5 85t142.5 232l209 904h262l-211 -916q-40 -175 -141 -297.5t-239.5 -181.5t-305.5 -59q-192 0 -316.5 79t-166.5 213q-22 70 -22 150q0 73 18 153z" />
<glyph unicode="V" horiz-adv-x="1443" d="M260 1434h264l215 -963l645 963h291l-975 -1442h-116z" />
<glyph unicode="W" horiz-adv-x="2127" d="M260 1434h270l129 -924l594 932h115l150 -953l544 945h297l-878 -1442h-123l-166 901l-594 -901h-111z" />
<glyph unicode="X" horiz-adv-x="1388" d="M-51 0l678 731l-318 703h287l221 -504l461 504h330l-680 -732l319 -702h-286l-224 504l-461 -504h-327z" />
<glyph unicode="Y" horiz-adv-x="1327" d="M256 1434h276l234 -523l477 523h316l-701 -787l-151 -647h-263l152 647z" />
<glyph unicode="Z" horiz-adv-x="1196" d="M-12 0l53 227l926 979h-701l53 228h1053l-53 -228l-926 -979h701l-54 -227h-1052z" />
<glyph unicode="[" horiz-adv-x="698" d="M4 -307l473 2048h527l-50 -221h-270l-373 -1606h271l-52 -221h-526z" />
<glyph unicode="\" horiz-adv-x="954" d="M317 1739l209 57l279 -2101l-207 -57z" />
<glyph unicode="]" horiz-adv-x="698" d="M-139 -307l51 221h270l373 1606h-270l49 221h526l-473 -2048h-526z" />
<glyph unicode="^" horiz-adv-x="1140" d="M59 459l656 1057h248l167 -1057h-247l-105 747l-448 -747h-271z" />
<glyph unicode="_" horiz-adv-x="1040" d="M-123 -217l45 197h1024l-45 -197h-1024z" />
<glyph unicode="a" d="M98 430q0 142 47.5 264.5t127.5 205.5t184 130t217 47q171 0 278 -104l21 84h250l-244 -1057h-238l17 76q-136 -96 -273 -96q-80 0 -148 25.5t-122.5 78t-85.5 141t-31 205.5zM360 430q0 -116 54.5 -175.5t148.5 -59.5q105 0 230 84l114 497q-89 86 -196 86 q-66 0 -128.5 -28.5t-112.5 -81.5t-80 -136.5t-30 -185.5z" />
<glyph unicode="b" horiz-adv-x="1200" d="M55 0l351 1516h249l-120 -521q135 82 258 82q175 0 281 -112t106 -338q0 -148 -51 -273t-134 -205t-185.5 -124.5t-209.5 -44.5q-173 0 -285 116l-22 -96h-238zM371 287q80 -92 190 -92q149 0 253 116.5t104 315.5q0 116 -54 175.5t-143 59.5q-107 0 -236 -80z" />
<glyph unicode="c" horiz-adv-x="1122" d="M98 426q0 140 46 262t125 207t189.5 133.5t235.5 48.5q88 0 163.5 -22.5t134.5 -66.5q60 -44 93 -118q31 -69 31 -157v-11l-256 -45v12q0 92 -42 141q-46 52 -128 52q-64 0 -123.5 -27t-108.5 -79t-78.5 -137.5t-29.5 -192.5q0 -115 54 -173t139 -58q52 0 98 17.5 t91 63.5t73 117l242 -57q-146 -356 -529 -356q-121 0 -214 48t-149.5 150.5t-56.5 247.5z" />
<glyph unicode="d" horiz-adv-x="1198" d="M98 430q0 142 47.5 264.5t127.5 205.5t184 130t217 47q171 0 278 -104l127 543h250l-350 -1516h-238l17 76q-136 -96 -273 -96q-80 0 -148 25.5t-122.5 78t-85.5 141t-31 205.5zM360 430q0 -116 54.5 -175.5t148.5 -59.5q105 0 230 84l114 497q-89 86 -196 86 q-66 0 -128.5 -28.5t-112.5 -81.5t-80 -136.5t-30 -185.5z" />
<glyph unicode="e" horiz-adv-x="1132" d="M96 420q0 143 49 267t132 208.5t194.5 133t233.5 48.5q74 0 142.5 -21.5t130 -67.5t96.5 -119t43 -176q1 -18 1 -37q0 -90 -31 -201h-751v-35q0 -124 57 -181t148 -57q84 0 155.5 43t116.5 131l215 -82q-166 -294 -504 -294q-185 0 -306.5 118t-121.5 322zM373 639h504 q3 26 3 49q0 76 -38 124q-50 62 -146 62q-104 0 -191.5 -59.5t-131.5 -175.5z" />
<glyph unicode="f" horiz-adv-x="770" d="M119 0l194 842h-161l49 215h161l29 121q44 188 143 273t263 85q107 0 192 -27l-51 -217q-74 19 -133 19q-133 0 -166 -144l-27 -110h262l-49 -215h-262l-194 -842h-250z" />
<glyph unicode="g" horiz-adv-x="1185" d="M16 -88l246 47q-2 -15 -2 -30q0 -73 44 -111q52 -45 138 -45q111 0 187 69t106 193l19 84q-68 -47 -129.5 -66.5t-135.5 -19.5q-78 0 -146 26t-122 76.5t-85.5 135.5t-31.5 194q0 137 48 254t128 194t182.5 120.5t211.5 43.5q165 0 284 -116l25 96h238l-242 -1039 q-101 -448 -553 -448q-66 0 -127 12.5t-115 39.5t-92.5 66.5t-59.5 97.5q-17 46 -17 100q0 13 1 26zM365 465q0 -108 56.5 -163.5t149.5 -55.5q105 0 230 84l100 434q-47 50 -91 73t-103 23q-66 0 -126.5 -25.5t-109 -73.5t-77.5 -125t-29 -171z" />
<glyph unicode="h" horiz-adv-x="1185" d="M55 0l351 1516h249l-125 -535q159 96 301 96q179 0 264 -100q55 -64 55 -173q0 -60 -17 -134l-156 -670h-250l152 655q9 40 9 71q0 55 -27 87q-42 49 -124 49q-111 0 -254 -90l-178 -772h-250z" />
<glyph unicode="i" horiz-adv-x="522" d="M57 0l244 1057h250l-244 -1057h-250zM338 1343q0 71 56.5 125t125.5 54q61 0 97 -37t36 -96q0 -68 -58 -123.5t-126 -55.5q-58 0 -94.5 38.5t-36.5 94.5z" />
<glyph unicode="j" horiz-adv-x="536" d="M-254 -418l51 219q40 -10 74 -10q58 0 101 29q66 47 91 147l252 1090h250l-258 -1112q-15 -65 -36.5 -118t-54.5 -101t-76.5 -79.5t-101.5 -53t-130 -23.5h-15q-66 0 -147 12zM352 1343q0 71 58 125t127 54q59 0 95 -37t36 -96q0 -68 -57.5 -123.5t-125.5 -55.5 q-60 0 -96.5 38.5t-36.5 94.5z" />
<glyph unicode="k" horiz-adv-x="1118" d="M55 0l351 1516h249l-198 -859h159l330 400h281l-408 -490l199 -567h-258l-152 442h-200l-103 -442h-250z" />
<glyph unicode="l" horiz-adv-x="524" d="M55 0l351 1516h249l-350 -1516h-250z" />
<glyph unicode="m" horiz-adv-x="1726" d="M55 0l244 1057h238l-19 -82q80 56 142.5 79t138.5 23q186 0 254 -131q99 68 180 99.5t172 31.5q76 0 134 -23t99 -72q40 -48 49 -126q3 -22 3 -47q0 -62 -17 -139l-155 -670h-250l151 655q12 52 12 91q1 44 -15 68q-28 48 -105 48q-56 0 -109 -22t-121 -70 q-3 -50 -14 -100l-156 -670h-249l151 655q12 52 12 90q0 43 -16 69q-29 48 -104 48q-54 0 -104.5 -20t-115.5 -64l-180 -778h-250z" />
<glyph unicode="n" d="M55 0l244 1057h238l-21 -86q169 106 315 106q181 0 265 -100q54 -64 54 -172q0 -60 -17 -135l-154 -670h-250l150 655q10 42 10 75q0 53 -26 83q-42 49 -124 49q-114 0 -256 -92l-178 -770h-250z" />
<glyph unicode="o" horiz-adv-x="1148" d="M94 401q0 188 74 341t217 244t330 91q88 0 160 -25t119 -66t79 -97t46 -114.5t14 -121.5q0 -187 -74 -339t-217 -243t-330 -91q-88 0 -160 25t-119 66t-79 96t-46 113.5t-14 120.5zM346 422q0 -107 48 -166t143 -59q104 0 184 63t120 162t40 213q0 107 -48 166t-143 59 q-104 0 -184 -63t-120 -162t-40 -213z" />
<glyph unicode="p" horiz-adv-x="1200" d="M-39 -412l338 1469h238l-17 -76q138 96 273 96q80 0 148 -25.5t122.5 -78t85.5 -141t31 -205.5q0 -142 -47.5 -264.5t-127.5 -205.5t-184 -130t-217 -47q-169 0 -278 104l-115 -496h-250zM371 281q92 -86 196 -86q67 0 129.5 28.5t112 81.5t79.5 136.5t30 185.5 q0 116 -54 175.5t-147 59.5q-107 0 -232 -84z" />
<glyph unicode="q" d="M98 430q0 148 51 273t134 205t185.5 124.5t209.5 44.5q178 0 285 -116l22 96h238l-338 -1467h-250l108 471q-134 -81 -258 -81q-175 0 -281 112t-106 338zM362 430q0 -116 53.5 -175.5t141.5 -59.5q109 0 236 79l114 496q-80 92 -190 92q-149 0 -252 -116.5t-103 -315.5z " />
<glyph unicode="r" horiz-adv-x="815" d="M55 0l244 1057h238l-21 -92q54 46 116 74q63 29 142 37q19 2 38 1q61 0 124 -20l-51 -221q-74 27 -146 27q-31 -1 -61 -5q-102 -16 -193 -82l-180 -776h-250z" />
<glyph unicode="s" horiz-adv-x="1017" d="M66 317h241q0 -4 -1 -8q0 -61 46 -97q48 -38 127 -38t142 41t63 107q0 34 -28 56.5t-73 34t-99 23t-108 30.5t-99 48.5t-73 85.5t-28 133q0 142 124 243t323 101q78 0 148 -19t125 -55t87.5 -94.5t32.5 -132.5l-244 -47q1 9 1 17q1 63 -41 97q-46 38 -116 38 q-74 0 -131 -36.5t-57 -99.5q0 -36 28 -59.5t72.5 -36t98.5 -23.5t108 -30t98.5 -48t72.5 -84t28 -132q0 -142 -127.5 -247t-335.5 -105q-118 0 -210 36q-93 36 -147 114q-49 70 -49 166q0 10 1 21z" />
<glyph unicode="t" horiz-adv-x="794" d="M152 842l47 215h163l84 360h250l-84 -360h262l-49 -215h-262l-114 -496q-6 -28 -6 -50q0 -91 108 -91q66 0 137 16l-49 -217q-88 -24 -164 -24q-169 0 -243 92q-48 60 -48 156q0 50 13 110l116 504h-161z" />
<glyph unicode="u" d="M145 387l154 670h250l-150 -656q-10 -42 -10 -75q-1 -52 25 -82q42 -48 125 -49q114 0 256 92l178 770h250l-244 -1057h-238l21 86q-169 -106 -316 -106q-180 0 -264 100q-54 64 -54 172q0 61 17 135z" />
<glyph unicode="v" horiz-adv-x="1107" d="M180 1057h250l131 -621l418 621h272l-725 -1065h-112z" />
<glyph unicode="w" horiz-adv-x="1658" d="M180 1057h252l94 -613l412 621h109l106 -619l373 611h276l-682 -1065h-116l-115 606l-414 -606h-106z" />
<glyph unicode="x" horiz-adv-x="1107" d="M-53 0l502 541l-236 516h274l142 -340l303 340h309l-504 -543l234 -514h-275l-139 336l-299 -336h-311z" />
<glyph unicode="y" horiz-adv-x="1107" d="M-27 -410l402 584l-195 883h250l131 -621l418 621h272l-997 -1467h-281z" />
<glyph unicode="z" horiz-adv-x="978" d="M-12 0l49 215l645 627h-479l49 215h815l-49 -215l-647 -627h501l-49 -215h-835z" />
<glyph unicode="{" horiz-adv-x="813" d="M92 608l51 217q103 0 175 62.5t92 148.5l69 301q16 73 42 132.5t73.5 117t112 95.5t162 60t218.5 19l-51 -221q-116 6 -199.5 -61.5t-109.5 -175.5l-76 -324q-22 -96 -80 -174t-133 -113q59 -35 81.5 -112.5t0.5 -173.5l-63 -275q-25 -108 27.5 -174t170.5 -63l-51 -222 q-69 -2 -129 11t-104 37t-80.5 57.5t-57.5 72t-35 81t-13 84.5t8 81l69 301q20 86 -23.5 148.5t-146.5 62.5z" />
<glyph unicode="|" horiz-adv-x="524" d="M-39 -410l520 2253h250l-520 -2253h-250z" />
<glyph unicode="}" horiz-adv-x="452" d="M-618 -328l51 222q116 -6 199.5 61.5t109.5 175.5l76 324q22 96 79.5 173t133.5 113q-59 35 -81.5 113t-0.5 174l63 275q25 108 -27.5 174t-170.5 63l51 221q69 2 129 -11t104 -37t80.5 -57.5t57.5 -72t35 -81t13 -84.5t-8 -81l-69 -301q-20 -86 23.5 -148.5t146.5 -62.5 l-51 -217q-103 0 -175 -62.5t-92 -148.5l-69 -301q-16 -73 -42 -132.5t-73.5 -117t-112 -95.5t-162 -60t-218.5 -19z" />
<glyph unicode="~" horiz-adv-x="1048" d="M96 651q72 136 159 200t198 64q54 0 107 -22.5t87 -49t73 -49t68 -22.5q89 0 152 117l180 -103q-72 -135 -159 -199.5t-197 -64.5q-53 0 -106 23t-87 50t-73 50t-68 23q-91 0 -151 -117z" />
<glyph unicode="&#xa1;" horiz-adv-x="581" d="M-6 -377l229 977h256l-223 -977h-262zM244 895q0 71 56.5 124.5t137.5 53.5q57 0 101.5 -43.5t44.5 -111.5q0 -69 -57.5 -123t-137.5 -54q-58 0 -101.5 43.5t-43.5 110.5z" />
<glyph unicode="&#xa2;" horiz-adv-x="1122" d="M98 426q0 255 140.5 432t361.5 211l62 264h249l-65 -274q127 -34 200 -123.5t70 -233.5l-256 -45q3 101 -42.5 153t-127.5 52q-64 0 -123.5 -27t-108.5 -79t-78.5 -137.5t-29.5 -192.5q0 -115 54 -173t139 -58q52 0 98 17.5t91 63.5t73 117l242 -57q-130 -315 -447 -352 l-59 -260h-250l65 282q-120 43 -189 149.5t-69 270.5z" />
<glyph unicode="&#xa3;" horiz-adv-x="1382" d="M-16 0l51 221h219l88 387h-217l51 221h217l45 193q49 211 199 321.5t350 110.5q135 0 235.5 -37.5t159.5 -122.5t54 -211l-273 -51q6 99 -45.5 146t-146.5 47q-92 0 -172.5 -61t-106.5 -171l-37 -164h414l-51 -221h-414l-90 -387h731l-51 -221h-1210z" />
<glyph unicode="&#xa4;" horiz-adv-x="1413" d="M-23 207l267 215q-54 108 -54 231q0 231 179 420l-152 197l186 149l156 -202q152 79 326 79q167 0 303 -104l280 227l140 -182l-271 -223q56 -112 56 -234q0 -115 -47 -222.5t-132 -195.5l150 -194l-186 -148l-152 197q-161 -82 -330 -82q-172 0 -309 109l-274 -224z M444 653q0 -118 75 -197t194 -79q105 0 203 55t159.5 149t61.5 199q0 119 -74.5 198t-192.5 79q-105 0 -203.5 -55t-160.5 -149.5t-62 -199.5z" />
<glyph unicode="&#xa5;" horiz-adv-x="1339" d="M193 502l49 221h321l-307 711h276l234 -523l477 523h316l-633 -711h340l-49 -221h-394l-116 -502h-263l117 502h-368z" />
<glyph unicode="&#xa6;" horiz-adv-x="524" d="M-39 -410l203 881h250l-203 -881h-250zM276 963l205 880h250l-205 -880h-250z" />
<glyph unicode="&#xa7;" horiz-adv-x="1208" d="M12 -27h256q-7 -90 52.5 -138t160.5 -48q110 0 188.5 53.5t78.5 134.5q0 45 -34.5 75.5t-89.5 48.5t-121 33.5t-132.5 38.5t-121.5 56.5t-89.5 94.5t-34.5 145q0 82 64.5 169t168.5 142q-96 83 -96 244q0 85 43 164t116 138t177 94.5t219 35.5q213 0 338 -95.5 t121 -262.5l-262 -52q4 94 -55.5 143.5t-159.5 49.5q-110 0 -188.5 -53.5t-78.5 -134.5q0 -45 34.5 -75.5t89.5 -48.5t121 -33.5t132.5 -38.5t121.5 -56.5t89.5 -94.5t34.5 -145q0 -83 -64 -171.5t-167 -141.5q94 -84 94 -242q0 -85 -43 -164t-116 -138t-177 -94.5 t-219 -35.5q-144 0 -249 43.5t-160 136t-42 223.5zM399 504q0 -25 8 -45.5t28.5 -36t37.5 -26t54.5 -21.5t58.5 -16t70.5 -15.5t70.5 -15.5q63 31 108.5 85t45.5 107q0 23 -8 41.5t-19 32t-33.5 26t-41 20t-51.5 16t-55 13.5t-62.5 13.5t-63.5 13.5q-61 -31 -104.5 -85 t-43.5 -107z" />
<glyph unicode="&#xa9;" horiz-adv-x="1642" d="M147 604q0 157 74 312t196.5 273t291 191.5t346.5 73.5q165 0 302 -76t220.5 -220.5t83.5 -328.5q0 -126 -47 -251.5t-132 -232t-196.5 -189t-249 -129.5t-280.5 -47q-123 0 -233.5 45t-194 124.5t-132.5 197.5t-49 257zM315 604q0 -203 127 -340t326 -137 q135 0 267 57.5t232.5 152t163 225t62.5 267.5q0 133 -56 241.5t-160 172.5t-237 64q-179 0 -346.5 -96.5t-273 -260.5t-105.5 -346zM553 651q0 187 121.5 310.5t290.5 123.5q42 0 81 -8.5t75 -27.5t62 -46.5t41 -68.5t13 -90l-178 -39q4 65 -26 97t-79 32q-86 0 -153.5 -75 t-67.5 -208q0 -74 34 -112.5t87 -38.5q48 0 94 32.5t70 96.5l174 -39q-108 -242 -358 -242q-119 0 -200 80.5t-81 222.5z" />
<glyph unicode="&#xaa;" horiz-adv-x="704" d="M197 1042q0 176 107 290t253 114q87 0 160 -64l12 52h164l-152 -650h-153l10 43q-78 -55 -170 -55q-98 0 -164.5 67t-66.5 203zM385 1055q0 -61 27 -95t77 -34q61 0 132 39l63 278q-52 49 -113 49q-75 0 -130.5 -66.5t-55.5 -170.5z" />
<glyph unicode="&#xab;" horiz-adv-x="1208" d="M55 528l504 498l199 -123l-420 -401l213 -363l-221 -108zM563 528l504 498l199 -123l-420 -401l213 -363l-221 -108z" />
<glyph unicode="&#xac;" horiz-adv-x="1062" d="M96 600l54 240h974l-137 -602h-250l84 362h-725z" />
<glyph unicode="&#xad;" horiz-adv-x="677" d="M76 420l51 221h543l-52 -221h-542z" />
<glyph unicode="&#xae;" horiz-adv-x="950" d="M238 1116q0 123 72.5 234.5t189.5 178t243 66.5q153 0 252 -101.5t99 -254.5q0 -123 -72.5 -234.5t-190 -178t-243.5 -66.5q-153 0 -251.5 101.5t-98.5 254.5zM348 1116q0 -109 68 -182.5t176 -73.5q96 0 186 52t146.5 140t56.5 187q0 109 -68 182.5t-176 73.5 q-95 0 -185 -51.5t-147 -140t-57 -187.5zM436 954l101 443h170q153 0 153 -129q0 -55 -30.5 -90t-79.5 -50l53 -174h-113l-45 162h-63l-37 -162h-109zM602 1206h62q33 0 53 15.5t20 46.5q0 39 -51 39h-59z" />
<glyph unicode="&#xb0;" horiz-adv-x="858" d="M231 1051q0 84 36.5 160t96 128.5t136 83.5t155.5 31q136 0 224 -90t88 -221q0 -111 -62 -205t-160 -146.5t-204 -52.5q-135 0 -222.5 90.5t-87.5 221.5zM453 1069q0 -52 32.5 -87.5t83.5 -35.5q67 0 120.5 54t53.5 124q0 52 -31.5 87.5t-82.5 35.5q-67 0 -121.5 -54 t-54.5 -124z" />
<glyph unicode="&#xb1;" horiz-adv-x="1089" d="M-25 0l56 240h975l-56 -240h-975zM141 725l58 240h362l84 362h250l-84 -362h363l-58 -240h-362l-82 -363h-250l82 363h-363z" />
<glyph unicode="&#xb5;" horiz-adv-x="1185" d="M-49 -410l254 1106h2l82 361h250l-152 -656q-24 -109 17.5 -157.5t123.5 -48.5q111 0 256 92l177 770h249l-243 -1057h-238l21 86q-165 -106 -316 -106q-78 0 -139 18l-94 -408h-250z" />
<glyph unicode="&#xb6;" horiz-adv-x="1122" d="M174 1018q0 108 52 202.5t152 154t226 59.5h631l-332 -1434h-164l295 1280h-188l-295 -1280h-164l174 752h-115q-132 0 -202 74t-70 192z" />
<glyph unicode="&#xb7;" horiz-adv-x="593" d="M244 707q0 69 56 122.5t136 53.5q58 0 103 -43.5t45 -110.5q0 -69 -57.5 -122.5t-137.5 -53.5q-58 0 -101.5 43.5t-43.5 110.5z" />
<glyph unicode="&#xba;" horiz-adv-x="696" d="M195 1057q0 91 33.5 170.5t87.5 132.5t122 83t137 30q71 0 133.5 -32.5t104 -100t41.5 -156.5q0 -114 -56.5 -208t-143.5 -144t-181 -50q-111 0 -194.5 76t-83.5 199zM395 1071q0 -61 25.5 -90t60.5 -29q27 0 55.5 12t56 36.5t45 72t17.5 109.5t-25.5 91.5t-60.5 29.5 q-26 0 -54 -12t-56 -37t-46 -72.5t-18 -110.5z" />
<glyph unicode="&#xbb;" horiz-adv-x="1226" d="M2 154l420 401l-213 363l221 108l275 -498l-504 -497zM510 154l420 401l-213 363l221 108l274 -498l-503 -497z" />
<glyph unicode="&#xbc;" horiz-adv-x="1775" d="M174 -25l1393 1586l184 -103l-1393 -1583zM240 1133l32 167l291 134h158l-199 -861h-190l151 668zM930 158l39 168l467 534h243l-123 -534h134l-39 -168h-133l-37 -158h-191l37 158h-397zM1157 313h219l78 342z" />
<glyph unicode="&#xbd;" horiz-adv-x="1757" d="M135 -25l1393 1586l184 -103l-1393 -1583zM240 1133l32 167l291 134h158l-199 -861h-190l151 668zM952 0l11 47q17 73 57.5 132.5t90.5 98.5t107 72t110 60t96.5 55.5t69.5 67t26 85.5q0 39 -25.5 63t-67.5 24q-58 0 -103 -48t-60 -129l-183 37q49 152 150 229.5 t246 77.5q117 0 183 -61t66 -162q0 -80 -35.5 -141.5t-94.5 -103t-121.5 -74.5t-131 -75.5t-108.5 -86.5h385l-39 -168h-629z" />
<glyph unicode="&#xbe;" horiz-adv-x="1837" d="M172 862h184q-15 -63 11 -101t88 -38q68 0 113.5 45t45.5 106q0 107 -190 107l25 106l243 197h-385l37 162h584l-43 -182l-234 -197q64 -5 113 -54.5t49 -129.5q0 -127 -115 -224.5t-276 -97.5q-160 0 -225 82t-25 219zM244 -25l1392 1586l185 -103l-1393 -1583zM993 158 l37 168l469 534h244l-125 -534h133l-37 -168h-133l-37 -158h-190l37 158h-398zM1221 313h217l80 344z" />
<glyph unicode="&#xbf;" horiz-adv-x="1089" d="M-31 -31q0 73 24 133t64 101.5t88.5 77.5t100 69t96.5 67t81 81t50 102h254q-19 -86 -56 -155t-81 -112.5t-92.5 -79.5t-93 -63.5t-81 -56t-58 -65.5t-21.5 -84q0 -65 46.5 -109.5t135.5 -44.5q118 0 195.5 76t93.5 186l248 -29q-11 -70 -38.5 -134.5t-75 -124.5 t-110 -104t-149.5 -70.5t-189 -26.5q-190 0 -311 99t-121 267zM465 895q0 70 57 124t137 54q58 0 102 -43.5t44 -111.5q0 -69 -56.5 -123t-136.5 -54q-58 0 -102.5 43.5t-44.5 110.5z" />
<glyph unicode="&#xc0;" horiz-adv-x="1480" d="M-59 0l985 1442h116l334 -1442h-266l-61 268h-635l-185 -268h-288zM549 489h463l-113 527zM772 1819l277 8l75 -291h-186z" />
<glyph unicode="&#xc1;" horiz-adv-x="1480" d="M-59 0l985 1442h116l334 -1442h-266l-61 268h-635l-185 -268h-288zM549 489h463l-113 527zM879 1536l211 289l307 -10l-303 -279h-215z" />
<glyph unicode="&#xc2;" horiz-adv-x="1480" d="M-59 0l985 1442h116l334 -1442h-266l-61 268h-635l-185 -268h-288zM549 489h463l-113 527zM602 1546l338 281h225l209 -281l-227 -10l-121 143l-186 -143z" />
<glyph unicode="&#xc3;" horiz-adv-x="1480" d="M-59 0l985 1442h116l334 -1442h-266l-61 268h-635l-185 -268h-288zM549 489h463l-113 527zM614 1649q53 103 129.5 154.5t157.5 51.5q50 0 98 -17t79 -37t66 -37t62 -17q69 0 119 98l166 -96q-53 -103 -134 -155t-165 -52q-57 0 -116 28t-106 55.5t-75 27.5 q-65 0 -117 -99z" />
<glyph unicode="&#xc4;" horiz-adv-x="1480" d="M-59 0l985 1442h116l334 -1442h-266l-61 268h-635l-185 -268h-288zM549 489h463l-113 527zM813 1667q0 71 56.5 124.5t125.5 53.5q49 0 86 -26q44 26 90 26q61 0 97.5 -37t36.5 -96q0 -68 -58.5 -123t-126.5 -55q-47 0 -84 29q-47 -29 -92 -29q-58 0 -94.5 38.5 t-36.5 94.5z" />
<glyph unicode="&#xc5;" horiz-adv-x="1480" d="M-59 0l985 1442h116l334 -1442h-266l-61 268h-635l-185 -268h-288zM549 489h463l-113 527zM748 1673q0 121 98 208t252 87q116 0 186 -58t70 -145q0 -119 -98 -205.5t-252 -86.5q-114 0 -185 58t-71 142zM940 1696q0 -35 23.5 -59.5t62.5 -24.5q54 0 94.5 39.5t40.5 93.5 q0 37 -23.5 60.5t-64.5 23.5q-56 0 -94.5 -43t-38.5 -90z" />
<glyph unicode="&#xc6;" horiz-adv-x="2062" d="M-72 0l1246 1434h1042l-53 -228h-668l-78 -336h486l-54 -227h-483l-96 -416h665l-51 -227h-930l64 272h-549l-233 -272h-308zM666 500h403l148 641z" />
<glyph unicode="&#xc7;" horiz-adv-x="1525" d="M156 571q0 189 63.5 353t174.5 280.5t267.5 183t337.5 66.5q248 0 391.5 -124t151.5 -324l-268 -50q-9 126 -85 195.5t-204 69.5q-156 0 -281.5 -86t-195.5 -235.5t-70 -332.5q0 -166 81.5 -259t228.5 -93q153 0 273 78t181 231l258 -61q-77 -228 -262.5 -352.5 t-441.5 -130.5q51 -17 86 -58t35 -100q0 -119 -88.5 -183.5t-235.5 -64.5q-105 0 -182 43l80 145q42 -26 114 -26q107 0 107 67q0 47 -103 47h-55l55 146q-194 45 -303.5 193.5t-109.5 381.5z" />
<glyph unicode="&#xc8;" horiz-adv-x="1163" d="M55 0l332 1434h930l-53 -228h-668l-78 -336h486l-52 -227h-485l-96 -416h667l-53 -227h-930zM643 1819l277 8l75 -291h-186z" />
<glyph unicode="&#xc9;" horiz-adv-x="1163" d="M55 0l332 1434h930l-53 -228h-668l-78 -336h486l-52 -227h-485l-96 -416h667l-53 -227h-930zM750 1536l211 289l307 -10l-303 -279h-215z" />
<glyph unicode="&#xca;" horiz-adv-x="1163" d="M55 0l332 1434h930l-53 -228h-668l-78 -336h486l-52 -227h-485l-96 -416h667l-53 -227h-930zM471 1546l338 281h225l209 -281l-227 -10l-121 143l-186 -143z" />
<glyph unicode="&#xcb;" horiz-adv-x="1163" d="M55 0l332 1434h930l-53 -228h-668l-78 -336h486l-52 -227h-485l-96 -416h667l-53 -227h-930zM684 1667q0 71 56.5 124.5t125.5 53.5q49 0 86 -26q44 26 90 26q61 0 97.5 -37t36.5 -96q0 -68 -58.5 -123t-126.5 -55q-47 0 -84 29q-47 -29 -92 -29q-58 0 -94.5 38.5 t-36.5 94.5z" />
<glyph unicode="&#xcc;" horiz-adv-x="532" d="M53 0l332 1434h262l-332 -1434h-262zM297 1819l276 8l76 -291h-186z" />
<glyph unicode="&#xcd;" horiz-adv-x="532" d="M53 0l332 1434h262l-332 -1434h-262zM406 1536l210 289l308 -10l-303 -279h-215z" />
<glyph unicode="&#xce;" horiz-adv-x="532" d="M53 0l332 1434h262l-332 -1434h-262zM127 1546l338 281h225l209 -281l-227 -10l-121 143l-186 -143z" />
<glyph unicode="&#xcf;" horiz-adv-x="532" d="M53 0l332 1434h262l-332 -1434h-262zM338 1667q0 71 56.5 124.5t125.5 53.5q49 0 86 -26q44 26 90 26q61 0 97 -37t36 -96q0 -68 -58 -123t-126 -55q-47 0 -84 29q-47 -29 -92 -29q-58 0 -94.5 38.5t-36.5 94.5z" />
<glyph unicode="&#xd0;" horiz-adv-x="1456" d="M55 0l144 618h-129l45 197h129l143 619h551q127 0 228.5 -45t167 -125t100 -187.5t34.5 -234.5q0 -131 -29.5 -248.5t-82.5 -209t-126 -164.5t-160.5 -121t-186.5 -73.5t-203 -25.5h-625zM371 227h309q102 0 191 36.5t160.5 109t113 194.5t41.5 281q4 175 -73.5 266.5 t-215.5 91.5h-301l-90 -391h325l-45 -197h-325z" />
<glyph unicode="&#xd1;" horiz-adv-x="1468" d="M55 0l334 1442h119l600 -944l217 936h256l-334 -1442h-119l-602 944l-215 -936h-256zM608 1649q53 103 129.5 154.5t157.5 51.5q50 0 98 -17t79 -37t66 -37t62 -17q69 0 119 98l166 -96q-53 -103 -134 -155t-165 -52q-57 0 -116 28t-106 55.5t-75 27.5q-65 0 -117 -99z " />
<glyph unicode="&#xd2;" horiz-adv-x="1599" d="M154 563q0 140 36 271t109 243.5t174 196.5t240 132t299 48q273 0 437.5 -151.5t164.5 -432.5q0 -176 -58.5 -335.5t-165.5 -283.5t-272 -197.5t-364 -73.5q-272 0 -436 151t-164 432zM432 565q0 -155 91 -251.5t237 -96.5q164 0 294 80t204.5 229t74.5 342 q0 156 -90 252.5t-237 96.5q-123 0 -229 -47t-182 -131t-119.5 -206.5t-43.5 -267.5zM831 1819l277 8l76 -291h-187z" />
<glyph unicode="&#xd3;" horiz-adv-x="1599" d="M154 563q0 140 36 271t109 243.5t174 196.5t240 132t299 48q273 0 437.5 -151.5t164.5 -432.5q0 -176 -58.5 -335.5t-165.5 -283.5t-272 -197.5t-364 -73.5q-272 0 -436 151t-164 432zM432 565q0 -155 91 -251.5t237 -96.5q164 0 294 80t204.5 229t74.5 342 q0 156 -90 252.5t-237 96.5q-123 0 -229 -47t-182 -131t-119.5 -206.5t-43.5 -267.5zM938 1536l211 289l307 -10l-303 -279h-215z" />
<glyph unicode="&#xd4;" horiz-adv-x="1599" d="M154 563q0 140 36 271t109 243.5t174 196.5t240 132t299 48q273 0 437.5 -151.5t164.5 -432.5q0 -176 -58.5 -335.5t-165.5 -283.5t-272 -197.5t-364 -73.5q-272 0 -436 151t-164 432zM432 565q0 -155 91 -251.5t237 -96.5q164 0 294 80t204.5 229t74.5 342 q0 156 -90 252.5t-237 96.5q-123 0 -229 -47t-182 -131t-119.5 -206.5t-43.5 -267.5zM659 1546l338 281h226l209 -281l-228 -10l-121 143l-186 -143z" />
<glyph unicode="&#xd5;" horiz-adv-x="1599" d="M154 563q0 140 36 271t109 243.5t174 196.5t240 132t299 48q273 0 437.5 -151.5t164.5 -432.5q0 -176 -58.5 -335.5t-165.5 -283.5t-272 -197.5t-364 -73.5q-272 0 -436 151t-164 432zM432 565q0 -155 91 -251.5t237 -96.5q164 0 294 80t204.5 229t74.5 342 q0 156 -90 252.5t-237 96.5q-123 0 -229 -47t-182 -131t-119.5 -206.5t-43.5 -267.5zM674 1649q53 103 129.5 154.5t157.5 51.5q50 0 98 -17t79 -37t66 -37t62 -17q68 0 118 98l166 -96q-53 -103 -134 -155t-165 -52q-57 0 -116 28t-106 55.5t-75 27.5q-64 0 -116 -99z" />
<glyph unicode="&#xd6;" horiz-adv-x="1599" d="M154 563q0 140 36 271t109 243.5t174 196.5t240 132t299 48q273 0 437.5 -151.5t164.5 -432.5q0 -176 -58.5 -335.5t-165.5 -283.5t-272 -197.5t-364 -73.5q-272 0 -436 151t-164 432zM432 565q0 -155 91 -251.5t237 -96.5q164 0 294 80t204.5 229t74.5 342 q0 156 -90 252.5t-237 96.5q-123 0 -229 -47t-182 -131t-119.5 -206.5t-43.5 -267.5zM872 1667q0 71 57 124.5t126 53.5q49 0 86 -26q44 26 90 26q61 0 97 -37t36 -96q0 -68 -58 -123t-126 -55q-47 0 -84 29q-47 -29 -92 -29q-59 0 -95.5 38.5t-36.5 94.5z" />
<glyph unicode="&#xd7;" horiz-adv-x="1089" d="M106 446l353 287l-219 285l192 158l219 -287l353 287l147 -185l-354 -289l221 -286l-193 -156l-221 287l-354 -287z" />
<glyph unicode="&#xd8;" horiz-adv-x="1599" d="M66 -35l202 221q-114 145 -114 377q0 140 36 271t109 243.5t174 196.5t240 132t299 48q200 0 342 -80l202 221l152 -102l-215 -236q121 -153 121 -387q0 -176 -58.5 -335.5t-165.5 -283.5t-272 -197.5t-364 -73.5q-206 0 -351 86l-186 -203zM432 565q0 -86 33 -164 l706 775q-71 41 -165 41q-123 0 -229 -47t-182 -131t-119.5 -206.5t-43.5 -267.5zM584 264q74 -47 176 -47q164 0 294 80t204.5 229t74.5 342q0 101 -37 174z" />
<glyph unicode="&#xd9;" horiz-adv-x="1419" d="M168 575l199 859h262l-209 -904q-34 -147 36 -232t222 -85t260.5 85t142.5 232l209 904h262l-211 -916q-40 -175 -141 -297.5t-239.5 -181.5t-305.5 -59q-192 0 -316.5 79t-166.5 213t-4 303zM741 1819l277 8l76 -291h-187z" />
<glyph unicode="&#xda;" horiz-adv-x="1419" d="M168 575l199 859h262l-209 -904q-34 -147 36 -232t222 -85t260.5 85t142.5 232l209 904h262l-211 -916q-40 -175 -141 -297.5t-239.5 -181.5t-305.5 -59q-192 0 -316.5 79t-166.5 213t-4 303zM848 1536l211 289l307 -10l-303 -279h-215z" />
<glyph unicode="&#xdb;" horiz-adv-x="1419" d="M168 575l199 859h262l-209 -904q-34 -147 36 -232t222 -85t260.5 85t142.5 232l209 904h262l-211 -916q-40 -175 -141 -297.5t-239.5 -181.5t-305.5 -59q-192 0 -316.5 79t-166.5 213t-4 303zM569 1546l338 281h226l208 -281l-227 -10l-121 143l-186 -143z" />
<glyph unicode="&#xdc;" horiz-adv-x="1419" d="M168 575l199 859h262l-209 -904q-34 -147 36 -232t222 -85t260.5 85t142.5 232l209 904h262l-211 -916q-40 -175 -141 -297.5t-239.5 -181.5t-305.5 -59q-192 0 -316.5 79t-166.5 213t-4 303zM782 1667q0 71 57 124.5t126 53.5q49 0 86 -26q44 26 90 26q61 0 97 -37 t36 -96q0 -68 -58 -123t-126 -55q-47 0 -84 29q-47 -29 -93 -29q-58 0 -94.5 38.5t-36.5 94.5z" />
<glyph unicode="&#xdd;" horiz-adv-x="1327" d="M256 1434h276l234 -523l477 523h316l-701 -787l-151 -647h-263l152 647zM799 1536l211 289l307 -10l-303 -279h-215z" />
<glyph unicode="&#xde;" horiz-adv-x="1253" d="M55 0l332 1434h262l-61 -258h219q107 0 192.5 -22.5t152 -69.5t102.5 -127.5t36 -188.5q0 -101 -35 -185.5t-95 -143.5t-140.5 -100.5t-171 -61t-186.5 -19.5h-285l-60 -258h-262zM430 485h254q59 0 114.5 16t103.5 48t77 89t29 130q0 92 -61.5 136t-155.5 44h-254z" />
<glyph unicode="&#xdf;" horiz-adv-x="1327" d="M55 0l238 1026q60 260 217 385t395 125q193 0 317 -108.5t124 -266.5q0 -130 -85.5 -239t-207.5 -166q89 -41 143.5 -125.5t54.5 -192.5q0 -102 -36.5 -185.5t-97.5 -137.5t-142 -89t-170 -44.5t-180.5 2t-173.5 45.5l79 204q145 -55 248 -31t160 94.5t57 160.5 q0 86 -73.5 141t-231.5 55l49 215q84 0 151.5 25t107.5 66t61.5 89t21.5 97q0 74 -53 125t-147 51q-117 0 -210 -72t-128 -221l-238 -1028h-250z" />
<glyph unicode="&#xe0;" d="M98 430q0 142 47.5 264.5t127.5 205.5t184 130t217 47q171 0 278 -104l21 84h250l-244 -1057h-238l17 76q-136 -96 -273 -96q-80 0 -148 25.5t-122.5 78t-85.5 141t-31 205.5zM360 430q0 -116 54.5 -175.5t148.5 -59.5q105 0 230 84l114 497q-89 86 -196 86 q-66 0 -128.5 -28.5t-112.5 -81.5t-80 -136.5t-30 -185.5zM524 1483l258 10l76 -319h-188z" />
<glyph unicode="&#xe1;" d="M98 430q0 142 47.5 264.5t127.5 205.5t184 130t217 47q171 0 278 -104l21 84h250l-244 -1057h-238l17 76q-136 -96 -273 -96q-80 0 -148 25.5t-122.5 78t-85.5 141t-31 205.5zM360 430q0 -116 54.5 -175.5t148.5 -59.5q105 0 230 84l114 497q-89 86 -196 86 q-66 0 -128.5 -28.5t-112.5 -81.5t-80 -136.5t-30 -185.5zM649 1174l211 319l277 -10l-283 -309h-205z" />
<glyph unicode="&#xe2;" d="M98 430q0 142 47.5 264.5t127.5 205.5t184 130t217 47q171 0 278 -104l21 84h250l-244 -1057h-238l17 76q-136 -96 -273 -96q-80 0 -148 25.5t-122.5 78t-85.5 141t-31 205.5zM360 430q0 -116 54.5 -175.5t148.5 -59.5q105 0 230 84l114 497q-89 86 -196 86 q-66 0 -128.5 -28.5t-112.5 -81.5t-80 -136.5t-30 -185.5zM418 1184l303 309h223l160 -309l-199 -10l-98 172l-180 -172z" />
<glyph unicode="&#xe3;" d="M98 430q0 142 47.5 264.5t127.5 205.5t184 130t217 47q171 0 278 -104l21 84h250l-244 -1057h-238l17 76q-136 -96 -273 -96q-80 0 -148 25.5t-122.5 78t-85.5 141t-31 205.5zM360 430q0 -116 54.5 -175.5t148.5 -59.5q105 0 230 84l114 497q-89 86 -196 86 q-66 0 -128.5 -28.5t-112.5 -81.5t-80 -136.5t-30 -185.5zM399 1296q52 101 133 151t164 50q46 0 88 -17t67.5 -37t54.5 -37t52 -17q69 0 119 92l156 -97q-52 -102 -129 -148t-162 -46q-46 0 -88 17t-68 37t-55 37t-51 17q-69 0 -119 -92z" />
<glyph unicode="&#xe4;" d="M98 430q0 142 47.5 264.5t127.5 205.5t184 130t217 47q171 0 278 -104l21 84h250l-244 -1057h-238l17 76q-136 -96 -273 -96q-80 0 -148 25.5t-122.5 78t-85.5 141t-31 205.5zM360 430q0 -116 54.5 -175.5t148.5 -59.5q105 0 230 84l114 497q-89 86 -196 86 q-66 0 -128.5 -28.5t-112.5 -81.5t-80 -136.5t-30 -185.5zM586 1321q0 72 56.5 126t125.5 54q44 0 74 -18q37 18 76 18q61 0 97 -37t36 -96q0 -68 -58.5 -123t-126.5 -55q-38 0 -71 20q-42 -20 -78 -20q-58 0 -94.5 38.5t-36.5 92.5z" />
<glyph unicode="&#xe5;" d="M98 430q0 142 47.5 264.5t127.5 205.5t184 130t217 47q171 0 278 -104l21 84h250l-244 -1057h-238l17 76q-136 -96 -273 -96q-80 0 -148 25.5t-122.5 78t-85.5 141t-31 205.5zM360 430q0 -116 54.5 -175.5t148.5 -59.5q105 0 230 84l114 497q-89 86 -196 86 q-66 0 -128.5 -28.5t-112.5 -81.5t-80 -136.5t-30 -185.5zM545 1337q0 116 93 202.5t232 86.5q107 0 171.5 -57t64.5 -144q0 -114 -93.5 -200t-230.5 -86q-107 0 -172 57t-65 141zM721 1358q0 -35 22.5 -59.5t59.5 -24.5q51 0 89 39.5t38 93.5q0 37 -22 60.5t-60 23.5 q-54 0 -90.5 -43t-36.5 -90z" />
<glyph unicode="&#xe6;" horiz-adv-x="1896" d="M98 430q0 142 47.5 264.5t127.5 205.5t184 130t217 47q171 0 278 -104l21 84h237l-16 -68q142 88 299 88q67 0 131 -21.5t122.5 -67.5t93 -119t42 -176t-30.5 -238h-751v-35q0 -124 57 -181t148 -57q84 0 155.5 43t116.5 131l215 -82q-166 -294 -504 -294 q-173 0 -287 120l-22 -100h-238l17 76q-136 -96 -273 -96q-80 0 -148 25.5t-122.5 78t-85.5 141t-31 205.5zM360 430q0 -116 54.5 -175.5t148.5 -59.5q105 0 230 84l114 497q-89 86 -196 86q-66 0 -128.5 -28.5t-112.5 -81.5t-80 -136.5t-30 -185.5zM1137 639h503 q15 113 -35 174t-145 61q-104 0 -191.5 -59.5t-131.5 -175.5z" />
<glyph unicode="&#xe7;" horiz-adv-x="1122" d="M98 426q0 140 46 262t125 207t189.5 133.5t235.5 48.5q88 0 163.5 -22.5t135 -67t92.5 -118t31 -167.5l-256 -45q3 101 -42.5 153t-127.5 52q-64 0 -123.5 -27t-108.5 -79t-78.5 -137.5t-29.5 -192.5q0 -115 54 -173t139 -58q52 0 98 17.5t91 63.5t73 117l242 -57 q-138 -338 -488 -354q51 -17 87 -59t36 -101q0 -119 -88.5 -183.5t-235.5 -64.5q-105 0 -182 43l80 145q42 -26 115 -26q106 0 106 67q0 47 -102 47h-56l56 150q-127 38 -202 146.5t-75 279.5z" />
<glyph unicode="&#xe8;" horiz-adv-x="1132" d="M96 420q0 143 49 267t132 208.5t194.5 133t233.5 48.5q74 0 142.5 -21.5t130 -67.5t96.5 -119t43 -176t-30 -238h-751v-35q0 -124 57 -181t148 -57q84 0 155.5 43t116.5 131l215 -82q-166 -294 -504 -294q-185 0 -306.5 118t-121.5 322zM373 639h504q15 112 -35.5 173.5 t-145.5 61.5q-104 0 -191.5 -59.5t-131.5 -175.5zM508 1483l258 10l76 -319h-189z" />
<glyph unicode="&#xe9;" horiz-adv-x="1132" d="M96 420q0 143 49 267t132 208.5t194.5 133t233.5 48.5q74 0 142.5 -21.5t130 -67.5t96.5 -119t43 -176t-30 -238h-751v-35q0 -124 57 -181t148 -57q84 0 155.5 43t116.5 131l215 -82q-166 -294 -504 -294q-185 0 -306.5 118t-121.5 322zM373 639h504q15 112 -35.5 173.5 t-145.5 61.5q-104 0 -191.5 -59.5t-131.5 -175.5zM633 1174l211 319l276 -10l-282 -309h-205z" />
<glyph unicode="&#xea;" horiz-adv-x="1132" d="M96 420q0 143 49 267t132 208.5t194.5 133t233.5 48.5q74 0 142.5 -21.5t130 -67.5t96.5 -119t43 -176t-30 -238h-751v-35q0 -124 57 -181t148 -57q84 0 155.5 43t116.5 131l215 -82q-166 -294 -504 -294q-185 0 -306.5 118t-121.5 322zM373 639h504q15 112 -35.5 173.5 t-145.5 61.5q-104 0 -191.5 -59.5t-131.5 -175.5zM401 1184l304 309h223l159 -309l-198 -10l-98 172l-181 -172z" />
<glyph unicode="&#xeb;" horiz-adv-x="1132" d="M96 420q0 143 49 267t132 208.5t194.5 133t233.5 48.5q74 0 142.5 -21.5t130 -67.5t96.5 -119t43 -176t-30 -238h-751v-35q0 -124 57 -181t148 -57q84 0 155.5 43t116.5 131l215 -82q-166 -294 -504 -294q-185 0 -306.5 118t-121.5 322zM373 639h504q15 112 -35.5 173.5 t-145.5 61.5q-104 0 -191.5 -59.5t-131.5 -175.5zM567 1321q0 72 57 126t126 54q43 0 73 -18q37 18 76 18q61 0 97 -37t36 -96q0 -68 -58 -123t-126 -55q-39 0 -72 20q-42 -20 -78 -20q-58 0 -94.5 38.5t-36.5 92.5z" />
<glyph unicode="&#xec;" horiz-adv-x="524" d="M55 0l244 1057h250l-244 -1057h-250zM197 1483l258 10l75 -319h-188z" />
<glyph unicode="&#xed;" horiz-adv-x="524" d="M55 0l244 1057h250l-244 -1057h-250zM322 1174l210 319l277 -10l-283 -309h-204z" />
<glyph unicode="&#xee;" horiz-adv-x="524" d="M55 0l244 1057h250l-244 -1057h-250zM90 1184l303 309h223l160 -309l-198 -10l-99 172l-180 -172z" />
<glyph unicode="&#xef;" horiz-adv-x="524" d="M55 0l244 1057h250l-244 -1057h-250zM258 1321q0 72 56.5 126t125.5 54q44 0 74 -18q38 18 76 18q61 0 97 -37t36 -96q0 -68 -58 -123t-126 -55q-39 0 -72 20q-42 -20 -78 -20q-58 0 -94.5 38.5t-36.5 92.5z" />
<glyph unicode="&#xf0;" horiz-adv-x="1193" d="M84 420q0 154 75.5 286t203 208.5t274.5 76.5q110 0 209 -41q-36 108 -109 219l-319 -135l-56 162l265 111q-78 84 -185 168l260 61q86 -59 154 -133l274 115l54 -160l-217 -92q88 -130 134 -279.5t46 -294.5q0 -153 -48.5 -286t-132.5 -226.5t-199.5 -146.5t-246.5 -53 q-84 0 -161.5 28.5t-139 82.5t-98.5 139t-37 190zM344 420q0 -100 52 -162.5t141 -62.5q47 0 94 16.5t94 54.5t82.5 94t57.5 142t22 190v19q-93 69 -205 69q-138 0 -238 -101.5t-100 -258.5z" />
<glyph unicode="&#xf1;" d="M55 0l244 1057h238l-21 -86q169 106 315 106q181 0 265 -100t37 -307l-154 -670h-250l150 655q26 109 -16 158t-124 49q-114 0 -256 -92l-178 -770h-250zM408 1296q52 101 133 151t164 50q46 0 88 -17t67.5 -37t54.5 -37t52 -17q68 0 118 92l156 -97q-52 -102 -129 -148 t-162 -46q-46 0 -88 17t-68 37t-55 37t-51 17q-69 0 -119 -92z" />
<glyph unicode="&#xf2;" horiz-adv-x="1148" d="M94 401q0 188 74 341t217 244t330 91q88 0 160 -25t119 -66t79 -97t46 -114.5t14 -121.5q0 -187 -74 -339t-217 -243t-330 -91q-88 0 -160 25t-119 66t-79 96t-46 113.5t-14 120.5zM346 422q0 -107 48 -166t143 -59q104 0 184 63t120 162t40 213q0 107 -48 166t-143 59 q-104 0 -184 -63t-120 -162t-40 -213zM508 1483l258 10l76 -319h-189z" />
<glyph unicode="&#xf3;" horiz-adv-x="1148" d="M94 401q0 188 74 341t217 244t330 91q88 0 160 -25t119 -66t79 -97t46 -114.5t14 -121.5q0 -187 -74 -339t-217 -243t-330 -91q-88 0 -160 25t-119 66t-79 96t-46 113.5t-14 120.5zM346 422q0 -107 48 -166t143 -59q104 0 184 63t120 162t40 213q0 107 -48 166t-143 59 q-104 0 -184 -63t-120 -162t-40 -213zM633 1174l211 319l276 -10l-282 -309h-205z" />
<glyph unicode="&#xf4;" horiz-adv-x="1148" d="M94 401q0 188 74 341t217 244t330 91q88 0 160 -25t119 -66t79 -97t46 -114.5t14 -121.5q0 -187 -74 -339t-217 -243t-330 -91q-88 0 -160 25t-119 66t-79 96t-46 113.5t-14 120.5zM346 422q0 -107 48 -166t143 -59q104 0 184 63t120 162t40 213q0 107 -48 166t-143 59 q-104 0 -184 -63t-120 -162t-40 -213zM401 1184l304 309h223l159 -309l-198 -10l-98 172l-181 -172z" />
<glyph unicode="&#xf5;" horiz-adv-x="1148" d="M94 401q0 188 74 341t217 244t330 91q88 0 160 -25t119 -66t79 -97t46 -114.5t14 -121.5q0 -187 -74 -339t-217 -243t-330 -91q-88 0 -160 25t-119 66t-79 96t-46 113.5t-14 120.5zM346 422q0 -107 48 -166t143 -59q104 0 184 63t120 162t40 213q0 107 -48 166t-143 59 q-104 0 -184 -63t-120 -162t-40 -213zM383 1296q52 101 133 151t164 50q46 0 88 -17t67.5 -37t54.5 -37t52 -17q69 0 119 92l156 -97q-52 -102 -129 -148t-162 -46q-46 0 -88 17t-68 37t-55 37t-51 17q-69 0 -119 -92z" />
<glyph unicode="&#xf6;" horiz-adv-x="1148" d="M94 401q0 188 74 341t217 244t330 91q88 0 160 -25t119 -66t79 -97t46 -114.5t14 -121.5q0 -187 -74 -339t-217 -243t-330 -91q-88 0 -160 25t-119 66t-79 96t-46 113.5t-14 120.5zM346 422q0 -107 48 -166t143 -59q104 0 184 63t120 162t40 213q0 107 -48 166t-143 59 q-104 0 -184 -63t-120 -162t-40 -213zM569 1321q0 72 57 126t126 54q43 0 73 -18q37 18 76 18q61 0 97 -37t36 -96q0 -68 -58 -123t-126 -55q-39 0 -72 20q-42 -20 -78 -20q-58 0 -94.5 38.5t-36.5 92.5z" />
<glyph unicode="&#xf7;" horiz-adv-x="1089" d="M115 600l53 240h975l-53 -240h-975zM403 270q0 67 55.5 119.5t133.5 52.5q55 0 98 -42t43 -107q0 -67 -55.5 -119.5t-132.5 -52.5q-56 0 -99 42t-43 107zM604 1147q0 67 56 118.5t133 51.5q56 0 98.5 -42t42.5 -106q0 -69 -55.5 -120.5t-133.5 -51.5q-55 0 -98 42.5 t-43 107.5z" />
<glyph unicode="&#xf8;" horiz-adv-x="1155" d="M-20 -45l182 199q-68 107 -68 247q0 188 74 341t217 244t330 91q142 0 241 -63l166 180l138 -90l-191 -207q64 -105 64 -244q0 -187 -74 -339t-217 -243t-330 -91q-139 0 -233 59l-162 -176zM346 422q0 -28 4 -64l443 478q-44 24 -103 24q-104 0 -184 -63t-120 -162 t-40 -213zM442 217q39 -20 95 -20q104 0 184 63t120 162t40 213q0 21 -4 53z" />
<glyph unicode="&#xf9;" d="M145 387l154 670h250l-150 -656q-26 -109 15.5 -157.5t124.5 -48.5q114 0 256 92l178 770h250l-244 -1057h-238l21 86q-169 -106 -316 -106q-180 0 -264 100t-37 307zM530 1483l258 10l76 -319h-188z" />
<glyph unicode="&#xfa;" d="M145 387l154 670h250l-150 -656q-26 -109 15.5 -157.5t124.5 -48.5q114 0 256 92l178 770h250l-244 -1057h-238l21 86q-169 -106 -316 -106q-180 0 -264 100t-37 307zM653 1174l211 319l277 -10l-283 -309h-205z" />
<glyph unicode="&#xfb;" d="M145 387l154 670h250l-150 -656q-26 -109 15.5 -157.5t124.5 -48.5q114 0 256 92l178 770h250l-244 -1057h-238l21 86q-169 -106 -316 -106q-180 0 -264 100t-37 307zM424 1184l303 309h223l160 -309l-199 -10l-98 172l-180 -172z" />
<glyph unicode="&#xfc;" d="M145 387l154 670h250l-150 -656q-26 -109 15.5 -157.5t124.5 -48.5q114 0 256 92l178 770h250l-244 -1057h-238l21 86q-169 -106 -316 -106q-180 0 -264 100t-37 307zM590 1321q0 72 56.5 126t125.5 54q44 0 74 -18q37 18 76 18q61 0 97 -37t36 -96q0 -68 -58.5 -123 t-126.5 -55q-38 0 -71 20q-42 -20 -78 -20q-58 0 -94.5 38.5t-36.5 92.5z" />
<glyph unicode="&#xfd;" horiz-adv-x="1107" d="M-27 -410l402 584l-195 883h250l131 -621l418 621h272l-997 -1467h-281zM612 1174l211 319l277 -10l-283 -309h-205z" />
<glyph unicode="&#xfe;" horiz-adv-x="1204" d="M-39 -412l445 1928h249l-120 -525q130 86 258 86q80 0 148 -25.5t122.5 -78t85.5 -141t31 -205.5q0 -142 -47.5 -264.5t-127.5 -205.5t-184 -130t-217 -47q-169 0 -278 104l-115 -496h-250zM371 281q92 -86 196 -86q67 0 129.5 28.5t112 81.5t79.5 136.5t30 185.5 q0 116 -54 175.5t-147 59.5q-107 0 -232 -84z" />
<glyph unicode="&#xff;" horiz-adv-x="1107" d="M-27 -410l402 584l-195 883h250l131 -621l418 621h272l-997 -1467h-281zM549 1321q0 72 56.5 126t125.5 54q44 0 74 -18q38 18 76 18q61 0 97 -37t36 -96q0 -68 -58.5 -123t-126.5 -55q-38 0 -71 20q-42 -20 -78 -20q-58 0 -94.5 38.5t-36.5 92.5z" />
<glyph unicode="&#x152;" horiz-adv-x="2265" d="M154 563q0 140 36 271t109 243.5t174 196.5t240 132t299 48q134 0 247 -51.5t187 -151.5l43 183h930l-54 -228h-667l-78 -336h485l-51 -227h-487l-97 -416h670l-53 -227h-930l29 121q-200 -141 -432 -141q-272 0 -436 151t-164 432zM432 565q0 -155 91 -251.5t237 -96.5 q164 0 294 80t204.5 229t74.5 342q0 156 -90 252.5t-237 96.5q-123 0 -229 -47t-182 -131t-119.5 -206.5t-43.5 -267.5z" />
<glyph unicode="&#x153;" horiz-adv-x="1908" d="M94 401q0 188 74 341t217 244t330 91q240 0 348 -172q84 82 192 127t226 45q75 0 143.5 -21.5t130 -67.5t97 -119t43.5 -176t-31 -238h-752v-35q0 -124 57 -181t150 -57q82 0 153.5 43t118.5 131l213 -82q-166 -294 -504 -294q-111 0 -203.5 45.5t-150.5 130.5 q-165 -176 -434 -176q-88 0 -160 25t-119 66t-79 96t-46 113.5t-14 120.5zM346 422q0 -107 48 -166t143 -59q104 0 184 63t120 162t40 213q0 107 -48 166t-143 59q-104 0 -184 -63t-120 -162t-40 -213zM1149 639h504q15 113 -34.5 174t-145.5 61q-104 0 -192 -59.5 t-132 -175.5z" />
<glyph unicode="&#x178;" horiz-adv-x="1327" d="M256 1434h276l234 -523l477 523h316l-701 -787l-151 -647h-263l152 647zM731 1667q0 71 56.5 124.5t125.5 53.5q49 0 86 -26q44 26 91 26q61 0 97 -37t36 -96q0 -68 -58.5 -123t-126.5 -55q-47 0 -84 29q-47 -29 -92 -29q-58 0 -94.5 38.5t-36.5 94.5z" />
<glyph unicode="&#x2000;" horiz-adv-x="984" />
<glyph unicode="&#x2001;" horiz-adv-x="1968" />
<glyph unicode="&#x2002;" horiz-adv-x="984" />
<glyph unicode="&#x2003;" horiz-adv-x="1968" />
<glyph unicode="&#x2004;" horiz-adv-x="656" />
<glyph unicode="&#x2005;" horiz-adv-x="492" />
<glyph unicode="&#x2006;" horiz-adv-x="328" />
<glyph unicode="&#x2007;" horiz-adv-x="328" />
<glyph unicode="&#x2008;" horiz-adv-x="246" />
<glyph unicode="&#x2009;" horiz-adv-x="393" />
<glyph unicode="&#x200a;" horiz-adv-x="109" />
<glyph unicode="&#x2010;" horiz-adv-x="677" d="M76 420l51 221h543l-52 -221h-542z" />
<glyph unicode="&#x2011;" horiz-adv-x="677" d="M76 420l51 221h543l-52 -221h-542z" />
<glyph unicode="&#x2012;" horiz-adv-x="677" d="M76 420l51 221h543l-52 -221h-542z" />
<glyph unicode="&#x2013;" horiz-adv-x="1050" d="M45 420l51 221h963l-51 -221h-963z" />
<glyph unicode="&#x2014;" horiz-adv-x="2048" d="M45 420l51 221h1987l-51 -221h-1987z" />
<glyph unicode="&#x2018;" horiz-adv-x="546" d="M254 1063l246 524h245l-213 -524h-278z" />
<glyph unicode="&#x2019;" horiz-adv-x="540" d="M248 1063l215 524h276l-243 -524h-248z" />
<glyph unicode="&#x201a;" horiz-adv-x="593" d="M-23 -229l213 526h279l-246 -526h-246z" />
<glyph unicode="&#x201c;" horiz-adv-x="964" d="M244 1063l245 524h246l-213 -524h-278zM662 1061l243 526h248l-213 -526h-278z" />
<glyph unicode="&#x201d;" horiz-adv-x="952" d="M248 1063l215 524h276l-243 -524h-248zM662 1063l212 524h279l-246 -524h-245z" />
<glyph unicode="&#x201e;" horiz-adv-x="1007" d="M-23 -229l216 526h276l-244 -526h-248zM391 -229l213 526h279l-246 -526h-246z" />
<glyph unicode="&#x2022;" horiz-adv-x="995" d="M131 750q0 124 70.5 235.5t195 180.5t269.5 69q76 0 148.5 -30.5t129 -84.5t91 -134.5t34.5 -172.5q0 -93 -42 -182.5t-113 -157t-171.5 -108.5t-210.5 -41q-75 0 -147 31t-128.5 85t-91 135t-34.5 175z" />
<glyph unicode="&#x2026;" horiz-adv-x="2144" d="M115 139q0 69 57 122.5t137 53.5q58 0 102 -43t44 -110q0 -71 -56.5 -124.5t-138.5 -53.5q-57 0 -101 43.5t-44 111.5zM852 139q0 69 57.5 122.5t137.5 53.5q58 0 101.5 -43t43.5 -110q0 -71 -56.5 -124.5t-138.5 -53.5q-57 0 -101 43.5t-44 111.5zM1589 139 q0 69 57.5 122.5t137.5 53.5q58 0 101.5 -43t43.5 -110q0 -71 -56.5 -124.5t-137.5 -53.5q-57 0 -101.5 43.5t-44.5 111.5z" />
<glyph unicode="&#x202f;" horiz-adv-x="393" />
<glyph unicode="&#x2039;" horiz-adv-x="792" d="M20 528l586 498l178 -143l-456 -379l262 -348l-213 -125z" />
<glyph unicode="&#x203a;" horiz-adv-x="794" d="M14 174l459 377l-264 350l213 125l356 -498l-583 -497z" />
<glyph unicode="&#x205f;" horiz-adv-x="492" />
<glyph unicode="&#x20ac;" horiz-adv-x="1509" d="M55 606l54 228h129q75 282 292 451t502 169q242 0 385 -108t146 -277l-277 -68q-9 101 -79.5 160.5t-194.5 59.5q-163 0 -293.5 -104.5t-190.5 -282.5h564l-52 -228h-553v-41q0 -167 78 -259.5t213 -92.5q146 0 261.5 78.5t172.5 230.5l244 -63q-76 -217 -265 -348 t-433 -131q-260 0 -407.5 157t-147.5 428v41h-148z" />
<glyph unicode="&#x2122;" horiz-adv-x="1193" d="M287 1321l26 113h398l-27 -113h-133l-94 -403h-129l94 403h-135zM664 918l120 516h144l71 -220l177 220h157l-121 -516h-122l77 329l-163 -207h-70l-70 209l-78 -331h-122z" />
<glyph unicode="&#x25fc;" horiz-adv-x="1054" d="M0 0v1055h1055v-1055h-1055z" />
</font>
</defs>
</svg>
