<?xml version="1.0" standalone="no"?>
<!DOCTYPE svg PUBLIC "-//W3C//DTD SVG 1.1//EN" "http://www.w3.org/Graphics/SVG/1.1/DTD/svg11.dtd" >
<svg xmlns="http://www.w3.org/2000/svg" xmlns:xlink="http://www.w3.org/1999/xlink" version="1.1">
<metadata></metadata>
<defs>
<font id="live_nationextrabold_italic" horiz-adv-x="1189" >
<font-face units-per-em="2048" ascent="1516" descent="-532" />
<missing-glyph horiz-adv-x="573" />
<glyph horiz-adv-x="0" />
<glyph horiz-adv-x="682" />
<glyph unicode=" "  horiz-adv-x="573" />
<glyph unicode="&#x09;" horiz-adv-x="573" />
<glyph unicode="&#xa0;" horiz-adv-x="573" />
<glyph unicode="!" horiz-adv-x="604" d="M68 162q0 80 64.5 141.5t156.5 61.5q67 0 119.5 -51t52.5 -128q0 -81 -65.5 -142.5t-157.5 -61.5q-68 0 -119 50.5t-51 129.5zM170 473l219 961h316l-228 -961h-307z" />
<glyph unicode="&#x22;" horiz-adv-x="933" d="M164 778l141 656h320l-164 -656h-297zM635 778l141 656h320l-164 -656h-297z" />
<glyph unicode="#" horiz-adv-x="1562" d="M-6 315l141 273h211l135 258h-209l144 272h209l166 316h309l-166 -316h287l165 316h308l-166 -316h209l-142 -272h-211l-135 -258h209l-143 -273h-209l-166 -315h-307l166 315h-287l-166 -315h-309l166 315h-209zM655 588h287l135 258h-286z" />
<glyph unicode="$" horiz-adv-x="1255" d="M90 465h313q-12 -101 45 -157t158 -56q125 0 189.5 52t64.5 134q0 41 -27.5 70.5t-72 45t-101.5 32.5t-116.5 32t-116.5 45.5t-101.5 71t-72 110.5t-27.5 161q0 162 132 292.5t362 151.5l65 291h299l-69 -314q141 -40 222.5 -132t80.5 -228l-322 -61q1 85 -51 130.5 t-147 45.5q-117 0 -177.5 -45t-60.5 -115q0 -37 27.5 -63t72.5 -39t102.5 -28.5t118 -30.5t118 -46.5t102.5 -74t72.5 -116t27.5 -169.5q0 -89 -34 -169.5t-98 -145t-164.5 -106.5t-225.5 -52l-68 -289h-299l74 317q-158 47 -240.5 163t-54.5 292z" />
<glyph unicode="%" horiz-adv-x="2107" d="M184 889q0 254 130.5 406.5t361.5 152.5q154 0 254 -92.5t100 -233.5q0 -256 -129.5 -407.5t-361.5 -151.5q-155 0 -255 91.5t-100 234.5zM385 -14l1393 1583l215 -121l-1393 -1581zM461 920q-3 -132 88 -132q86 0 140.5 71.5t60.5 232.5q5 128 -88 131q-82 0 -138.5 -72 t-62.5 -231zM1339 311q0 256 130.5 407.5t363.5 151.5q154 0 253 -91.5t99 -233.5q0 -256 -129 -407.5t-362 -151.5q-154 0 -254.5 92t-100.5 233zM1618 342q-3 -67 21 -99t67 -32q85 0 139.5 71t61.5 232q5 127 -88 131q-81 2 -138 -71t-63 -232z" />
<glyph unicode="&#x26;" horiz-adv-x="1443" d="M61 348q0 107 62 194.5t201 186.5l98 70l-16 22q-84 118 -84 256q0 63 28.5 128t81 121.5t138 92t188.5 35.5q162 0 258 -88t96 -225q0 -90 -64 -182.5t-190 -178.5l-49 -32l184 -252q81 124 101 297h315q-47 -319 -240 -537l189 -256h-350l-58 80q-177 -100 -401 -100 q-132 0 -242 43t-178 128t-68 197zM408 387q0 -58 43.5 -96.5t126.5 -38.5q104 0 206 51l-206 285l-27 -19q-75 -51 -109 -91.5t-34 -90.5zM606 1094q0 -72 47 -136l17 13q72 50 108.5 89.5t36.5 76.5q0 34 -20.5 58t-59.5 24q-57 0 -93 -38.5t-36 -86.5z" />
<glyph unicode="'" horiz-adv-x="462" d="M172 778l143 656h320l-164 -656h-299z" />
<glyph unicode="(" horiz-adv-x="716" d="M168 399q0 773 602 1358l256 -131q-257 -288 -392.5 -589.5t-135.5 -637.5q0 -161 28 -319t80 -273l-274 -131q-68 121 -116 331.5t-48 391.5z" />
<glyph unicode=")" horiz-adv-x="714" d="M-156 -193q258 288 393.5 589.5t135.5 637.5q0 161 -28.5 319t-80.5 273l275 131q68 -120 115.5 -331t47.5 -392q0 -773 -602 -1358z" />
<glyph unicode="*" horiz-adv-x="1003" d="M242 1221l116 206l242 -100l55 283h238l-72 -281l275 94l22 -233l-280 -76l129 -233l-213 -125l-107 254l-227 -254l-166 147l238 238z" />
<glyph unicode="+" horiz-adv-x="1118" d="M111 575l65 289h350l82 350h299l-82 -350h351l-66 -289h-350l-82 -350h-299l82 350h-350z" />
<glyph unicode="," horiz-adv-x="649" d="M-43 -238l217 545h334l-256 -545h-295z" />
<glyph unicode="-" horiz-adv-x="710" d="M72 401l61 265h572l-62 -265h-571z" />
<glyph unicode="." horiz-adv-x="704" d="M117 162q0 80 64.5 141.5t156.5 61.5q67 0 119.5 -51t52.5 -128q0 -81 -65.5 -142.5t-157.5 -61.5q-68 0 -119 50.5t-51 129.5z" />
<glyph unicode="/" horiz-adv-x="1009" d="M-158 -299l1248 2099l243 -67l-1249 -2100z" />
<glyph unicode="0" horiz-adv-x="1394" d="M143 539q0 200 59 371t163 290t250 186.5t315 67.5q215 0 352 -154t137 -405q0 -200 -59 -371t-162 -290t-248.5 -186.5t-314.5 -67.5q-216 0 -354 154t-138 405zM469 551q0 -295 193 -295q87 0 164 38.5t138 113t96.5 197t35.5 278.5q0 151 -52 223t-145 72 q-88 0 -164 -37t-136.5 -111t-95 -197t-34.5 -282z" />
<glyph unicode="1" horiz-adv-x="829" d="M147 858l74 322l455 254h276l-329 -1434h-308l248 1083z" />
<glyph unicode="2" horiz-adv-x="1259" d="M10 0l10 43q26 117 75.5 215.5t110 168t132 128t144 100.5t143 78.5t132 69.5t108 67t73.5 76.5t27 93.5q0 65 -43.5 103.5t-114.5 38.5q-108 0 -180 -74t-86 -182l-301 37q17 103 61 189.5t114.5 155t175 107.5t232.5 39q211 0 341 -105.5t130 -299.5q0 -92 -31 -169 t-85.5 -133.5t-122 -103.5t-148.5 -89.5t-155.5 -81t-152.5 -89t-132 -102.5h649l-65 -281h-1041z" />
<glyph unicode="3" horiz-adv-x="1185" d="M36 281q-22 95 11 213h305q-34 -110 14.5 -176t161.5 -66q115 0 192 71.5t77 161.5q0 85 -68.5 126.5t-218.5 41.5h-25l54 228l299 264h-580l66 289h999l-66 -287l-352 -303q223 -96 223 -359q0 -220 -168.5 -362.5t-461.5 -142.5q-119 0 -216.5 36t-160.5 103t-85 162z " />
<glyph unicode="4" horiz-adv-x="1214" d="M12 313l62 267l844 854h307l-197 -854h213l-61 -265h-213l-74 -315h-307l73 315zM420 580h301l90 393z" />
<glyph unicode="5" horiz-adv-x="1247" d="M101.5 251.5q-27.5 88.5 4.5 203.5h306q-26 -89 23.5 -146t152.5 -57q129 0 209 77t80 193q0 81 -49.5 125.5t-133.5 44.5q-119 0 -258 -80l-243 86l262 736h864l-68 -289h-612l-92 -258q118 55 237 55q87 0 161 -23.5t134 -72t94.5 -131.5t34.5 -193q0 -239 -180 -390.5 t-471 -151.5q-99 0 -192 31t-164.5 91.5t-99 149z" />
<glyph unicode="6" horiz-adv-x="1286" d="M88 391q0 168 117 320l555 723h377l-377 -494q10 2 28 2q198 0 327.5 -116t129.5 -296q0 -107 -46.5 -206t-129.5 -175.5t-207.5 -122.5t-269.5 -46q-223 0 -363.5 118t-140.5 293zM420 424q0 -76 52 -125t146 -49q129 0 213 77t84 185q0 76 -51 124t-145 48 q-132 0 -215.5 -75.5t-83.5 -184.5z" />
<glyph unicode="7" horiz-adv-x="1120" d="M141 0l762 1153h-672l66 281h1036l-65 -281l-752 -1153h-375z" />
<glyph unicode="8" horiz-adv-x="1269" d="M72 375q0 132 84 233t237 166q-44 47 -68 111t-24 129q0 115 78 217.5t205.5 162.5t267.5 60q187 0 309.5 -113t122.5 -276q0 -107 -58.5 -196t-162.5 -152q73 -49 114.5 -126.5t41.5 -164.5q0 -187 -178.5 -316.5t-454.5 -129.5q-221 0 -367.5 114t-146.5 281zM406 395 q0 -65 55.5 -104t148.5 -39q122 0 204.5 57t82.5 144q0 66 -56 106.5t-149 40.5q-123 0 -204.5 -57.5t-81.5 -147.5zM608 983q0 -58 38.5 -96.5t103.5 -38.5q86 0 151.5 59t65.5 140q0 59 -39 97t-101 38q-88 0 -153.5 -59t-65.5 -140z" />
<glyph unicode="9" horiz-adv-x="1261" d="M182 903q0 107 47 206.5t130 176t207.5 122.5t269.5 46q223 0 363 -118.5t140 -293.5q0 -172 -116 -319l-555 -723h-377l377 494q-10 -2 -29 -2q-198 0 -327.5 115.5t-129.5 295.5zM512 922q0 -76 51.5 -124t145.5 -48q132 0 215.5 75.5t83.5 184.5q0 76 -52.5 125 t-146.5 49q-129 0 -213 -77t-84 -185z" />
<glyph unicode=":" horiz-adv-x="706" d="M119 162q0 80 65.5 141.5t157.5 61.5q67 0 118.5 -51t51.5 -128q0 -81 -65.5 -142.5t-157.5 -61.5q-68 0 -119 50.5t-51 129.5zM283 883q0 80 65.5 141t157.5 61q67 0 118.5 -50.5t51.5 -127.5q0 -81 -65.5 -143t-157.5 -62q-67 0 -118.5 51t-51.5 130z" />
<glyph unicode=";" horiz-adv-x="665" d="M-59 -238l215 545h333l-253 -545h-295zM244 883q0 80 65.5 141t157.5 61q67 0 118.5 -50.5t51.5 -127.5q0 -81 -65.5 -143t-157.5 -62q-67 0 -118.5 51t-51.5 130z" />
<glyph unicode="&#x3c;" horiz-adv-x="1120" d="M111 575l65 289l1088 383l-74 -325l-655 -222l555 -217l-68 -290z" />
<glyph unicode="=" horiz-adv-x="1126" d="M55 322l68 288h999l-67 -288h-1000zM172 829l68 289h999l-68 -289h-999z" />
<glyph unicode="&#x3e;" horiz-adv-x="1120" d="M43 193l74 325l655 221l-555 217l70 291l911 -383l-68 -289z" />
<glyph unicode="?" horiz-adv-x="1103" d="M190 981q12 72 39 138t75 128t112 107.5t155 72.5t199 27q196 0 324.5 -102.5t128.5 -282.5q0 -74 -24 -135t-63 -102.5t-86.5 -76.5t-98 -65t-94.5 -60t-78 -70t-46 -87h-307q18 83 54 150t78 108.5t88.5 75.5t90 59t78 50.5t55.5 59t21 75.5q0 56 -39.5 93.5 t-114.5 37.5q-103 0 -169.5 -67.5t-80.5 -168.5zM350 162q0 80 64.5 141.5t156.5 61.5q67 0 119.5 -51t52.5 -128q0 -81 -65.5 -142.5t-157.5 -61.5q-68 0 -119 50.5t-51 129.5z" />
<glyph unicode="@" horiz-adv-x="2150" d="M94 377q0 178 56.5 347.5t165 312t256.5 250.5t342 168.5t409 60.5q194 0 351.5 -60t261 -165t159 -247.5t55.5 -308.5q0 -156 -37 -286t-96 -215t-136.5 -144t-156.5 -84.5t-157 -25.5q-101 0 -175 36t-110 99q-80 -67 -161.5 -101t-190.5 -34q-163 0 -270 115.5 t-107 322.5q0 156 52 284.5t139 211t198.5 127t233.5 44.5q115 0 217 -84l14 64h299l-164 -709q-13 -54 10 -87t66 -33q45 0 91.5 31.5t88 91t68 158t26.5 218.5q0 122 -39 224t-113 177.5t-189 117.5t-259 42q-162 0 -309.5 -48.5t-261 -135.5t-197.5 -201.5t-128 -252 t-44 -281.5q0 -168 69.5 -299.5t209.5 -210t330 -78.5q254 0 471 94l-54 -233q-114 -42 -216.5 -61t-229.5 -19q-194 0 -353 62t-264.5 171t-163 256t-57.5 318zM868 442q0 -102 46.5 -154t125.5 -52q85 0 191 71l106 457q-78 65 -161 65q-125 0 -216.5 -103.5t-91.5 -283.5 z" />
<glyph unicode="A" horiz-adv-x="1507" d="M-66 0l981 1438h150l344 -1438h-319l-56 229h-596l-155 -229h-349zM598 494h393l-96 452z" />
<glyph unicode="B" horiz-adv-x="1366" d="M43 0l332 1434h575q207 0 332 -97.5t125 -273.5q0 -119 -68 -209t-178 -137q139 -95 139 -273q0 -93 -33.5 -168.5t-90.5 -126t-134 -85t-160.5 -49.5t-174.5 -15h-664zM399 256h314q49 0 91.5 10t80.5 31.5t60 62t22 95.5q0 69 -48.5 104t-125.5 35h-314zM539 850h284 q254 0 254 192q0 69 -49 102.5t-129 33.5h-285z" />
<glyph unicode="C" horiz-adv-x="1544" d="M147 580q0 186 62.5 348t173.5 277.5t271 182t347 66.5q259 0 409 -134.5t153 -346.5l-326 -55q-4 122 -72 189t-182 67q-145 0 -258.5 -80.5t-174.5 -216.5t-61 -302q0 -148 72.5 -229.5t206.5 -81.5q139 0 247.5 71t162.5 210l311 -78q-75 -235 -274 -361t-474 -126 q-271 0 -432.5 157.5t-161.5 442.5z" />
<glyph unicode="D" horiz-adv-x="1454" d="M43 0l332 1434h579q167 0 287.5 -80t179 -212t58.5 -300q0 -157 -43 -294t-118 -236t-174 -170.5t-212 -106.5t-232 -35h-657zM422 272h278q64 0 124.5 18.5t118 62.5t100 109t68.5 165.5t26 224.5v18q0 142 -59 214q-63 76 -177 77h-274z" />
<glyph unicode="E" horiz-adv-x="1161" d="M43 0l332 1434h952l-63 -273h-637l-62 -268h449l-64 -272h-448l-80 -349h635l-62 -272h-952z" />
<glyph unicode="F" horiz-adv-x="1095" d="M43 0l332 1434h932l-64 -273h-616l-62 -268h428l-63 -272h-428l-144 -621h-315z" />
<glyph unicode="G" horiz-adv-x="1564" d="M145 584q0 180 62.5 339t174 276.5t277.5 186t363 68.5q259 0 415 -123q150 -118 150 -301v-14l-327 -80q0 111 -71.5 174.5t-197.5 63.5q-218 0 -361 -167t-143 -429q0 -158 78 -236t213 -78q277 0 400 254h-369l61 273h723q-28 -173 -87 -311t-138 -230.5t-179.5 -154 t-208 -88.5t-226.5 -27q-282 0 -445.5 155t-163.5 449z" />
<glyph unicode="H" horiz-adv-x="1456" d="M43 0l332 1434h315l-133 -566h576l133 566h315l-332 -1434h-315l135 588h-575l-136 -588h-315z" />
<glyph unicode="I" horiz-adv-x="561" d="M41 0l332 1434h315l-332 -1434h-315z" />
<glyph unicode="J" horiz-adv-x="1142" d="M60 286q-10 44 -10 90q0 52 13 107l320 2q-10 -49 -10 -88q0 -53 19 -85q32 -54 120 -54q102 0 159.5 63.5t88.5 204.5l211 908h315l-219 -955q-58 -253 -203.5 -376t-382.5 -123q-109 0 -199 39t-144.5 107t-77.5 160z" />
<glyph unicode="K" horiz-adv-x="1386" d="M43 0l332 1434h315l-131 -566h170l473 566h371l-580 -682l285 -752h-332l-215 588h-237l-136 -588h-315z" />
<glyph unicode="L" horiz-adv-x="1097" d="M43 0l332 1434h315l-268 -1162h610l-63 -272h-926z" />
<glyph unicode="M" horiz-adv-x="1732" d="M43 0l332 1434h368l201 -633l545 633h369l-332 -1434h-299l231 1001l-524 -626h-152l-204 647l-236 -1022h-299z" />
<glyph unicode="N" horiz-adv-x="1460" d="M43 0l332 1438h151l555 -850l197 846h307l-334 -1438h-151l-555 852l-195 -848h-307z" />
<glyph unicode="O" horiz-adv-x="1607" d="M143 567q0 134 34.5 262t106 241.5t172.5 198.5t243.5 135t308.5 50q137 0 250 -37t197 -108.5t130.5 -184.5t46.5 -258q0 -134 -34.5 -262t-106 -241t-172.5 -198.5t-243.5 -135t-309.5 -49.5q-136 0 -248.5 36.5t-197 108t-131 184.5t-46.5 258zM481 571 q0 -132 82.5 -218.5t208.5 -86.5q230 0 375 162.5t145 433.5q0 134 -82 219.5t-209 85.5q-230 0 -375 -162.5t-145 -433.5z" />
<glyph unicode="P" horiz-adv-x="1286" d="M43 0l332 1434h524q114 0 203 -24t156 -74q66 -50 100 -132q31 -76 31 -176v-18q-3 -95 -36.5 -173.5t-90 -132.5t-132.5 -91.5t-163 -54.5t-183 -17h-301l-125 -541h-315zM547 813h246q254 0 254 212q-1 67 -47 101q-48 34 -126 35h-247z" />
<glyph unicode="Q" horiz-adv-x="1607" d="M143 567q0 134 34.5 262t106 241.5t172.5 198.5t243.5 135t308.5 50q137 0 250 -37t197 -108.5t130.5 -184.5t46.5 -258q0 -139 -38.5 -271.5t-111 -247t-188 -202t-260.5 -129.5l21 -225h-299l-17 189q-131 4 -239 42.5t-188.5 110t-124.5 182.5t-44 252zM481 571 q0 -115 64.5 -197t167.5 -102l-21 222h299l17 -175q133 69 208.5 210t75.5 333q0 134 -82 219.5t-209 85.5q-230 0 -375 -162.5t-145 -433.5z" />
<glyph unicode="R" horiz-adv-x="1333" d="M43 0l332 1434h524q114 0 203 -24t156 -74q66 -50 100 -132q31 -76 31 -176v-18q-6 -165 -97.5 -273.5t-244.5 -158.5l172 -578h-324l-156 541h-256l-125 -541h-315zM547 813h246q254 0 254 212q-1 67 -47 101q-48 34 -126 35h-247z" />
<glyph unicode="S" horiz-adv-x="1255" d="M90 465h313q-2 -18 -2 -34q0 -77 47 -123q57 -56 158 -56q125 0 189.5 52t64.5 134q0 41 -27.5 70.5t-72 45t-101.5 32.5t-116.5 32t-116.5 45.5t-101.5 71t-72 110.5t-27.5 161q0 82 37.5 161t107 143.5t181 104t246.5 39.5q229 0 375 -100.5t145 -286.5l-322 -61 q1 85 -51 130.5t-147 45.5q-117 0 -177.5 -45t-60.5 -115q0 -37 27.5 -63t72.5 -39t102.5 -28.5t118 -30.5t118 -46.5t102.5 -74t72.5 -116t27.5 -169.5t-39 -181t-111.5 -151t-187 -104.5t-256.5 -38.5q-118 0 -218 30t-174.5 88t-108.5 152q-22 61 -22 132q0 40 7 83z" />
<glyph unicode="T" horiz-adv-x="1179" d="M221 1161l64 273h1110l-64 -273h-397l-268 -1161h-316l268 1161h-397z" />
<glyph unicode="U" horiz-adv-x="1417" d="M144 400q0 13 -1 25q0 81 19 171l192 838h316l-207 -893q-10 -44 -10 -81q0 -76 41 -126q61 -74 192 -74t226.5 74.5t125.5 206.5l207 893h316l-209 -908q-31 -138 -98.5 -244t-160 -171t-202.5 -98t-234 -33q-120 0 -216 31t-157.5 86.5t-98.5 133t-41 169.5z" />
<glyph unicode="V" horiz-adv-x="1478" d="M260 1434h318l202 -873l584 873h350l-971 -1438h-149z" />
<glyph unicode="W" horiz-adv-x="2152" d="M260 1434h324l123 -834l544 838h144l149 -863l488 859h356l-877 -1438h-157l-164 809l-549 -809h-141z" />
<glyph unicode="X" horiz-adv-x="1429" d="M-61 0l679 737l-313 697h344l199 -461l416 461h395l-680 -736l315 -698h-344l-200 463l-416 -463h-395z" />
<glyph unicode="Y" horiz-adv-x="1359" d="M248 1434h332l206 -476l433 476h376l-698 -793l-149 -641h-316l150 641z" />
<glyph unicode="Z" horiz-adv-x="1210" d="M-16 0l63 272l856 889h-651l63 273h1078l-64 -273l-856 -889h649l-61 -272h-1077z" />
<glyph unicode="[" horiz-adv-x="712" d="M-8 -307l473 2048h565l-59 -264h-258l-353 -1520h258l-61 -264h-565z" />
<glyph unicode="\" horiz-adv-x="978" d="M313 1733l244 67l277 -2099l-242 -68z" />
<glyph unicode="]" horiz-adv-x="712" d="M-152 -307l62 264h258l352 1520h-258l60 264h565l-473 -2048h-566z" />
<glyph unicode="^" horiz-adv-x="1146" d="M45 451l647 1065h299l154 -1065h-295l-82 688l-399 -688h-324z" />
<glyph unicode="_" horiz-adv-x="1032" d="M-135 -252l53 232h1024l-53 -232h-1024z" />
<glyph unicode="a" horiz-adv-x="1193" d="M90 442q0 139 47.5 260.5t127 204.5t184 130.5t217.5 47.5q159 0 262 -88l16 68h299l-246 -1065h-282l14 63q-122 -83 -246 -83q-81 0 -149.5 26t-124 79t-87.5 144.5t-32 212.5zM406 442q0 -102 47 -154t127 -52q90 0 188 65l106 463q-75 65 -161 65q-124 0 -215.5 -104 t-91.5 -283z" />
<glyph unicode="b" horiz-adv-x="1206" d="M43 0l350 1516h299l-114 -496q113 65 227 65q84 0 153 -26t123.5 -80t84.5 -144.5t30 -211.5q0 -145 -50.5 -268.5t-133 -204t-185.5 -125.5t-211 -45q-166 0 -270 108l-20 -88h-283zM414 309q67 -73 155 -73q131 0 221.5 103.5t90.5 283.5q0 101 -47 153.5t-123 52.5 q-88 0 -191 -59z" />
<glyph unicode="c" horiz-adv-x="1128" d="M90 436q0 141 46 262.5t125.5 206t190.5 132.5t238 48q90 0 168.5 -23t141.5 -68q62 -46 98 -122q35 -74 35 -171v-5l-310 -53v8q0 178 -139 178q-40 0 -80 -13t-79 -43.5t-68.5 -74.5t-47.5 -112t-18 -150q0 -105 46.5 -152.5t117.5 -47.5q154 0 225 178l291 -70 q-151 -364 -547 -364q-91 0 -169 29t-137.5 84.5t-93.5 143.5t-34 199z" />
<glyph unicode="d" horiz-adv-x="1204" d="M90 442q0 139 47.5 260.5t127 204.5t184 130.5t217.5 47.5q159 0 262 -88l121 519h299l-351 -1516h-282l14 63q-122 -83 -246 -83q-81 0 -149.5 26t-124 79t-87.5 144.5t-32 212.5zM406 442q0 -102 47 -154t127 -52q90 0 188 65l106 463q-75 65 -161 65 q-124 0 -215.5 -104t-91.5 -283z" />
<glyph unicode="e" horiz-adv-x="1140" d="M88 428q0 144 49.5 268t133.5 208.5t196 132.5t235 48q58 0 116 -14t116.5 -45.5t102 -81.5t71.5 -122q28 -70 28 -160v-6q-1 -94 -32 -216l-729 2v-14q0 -113 50.5 -161t127.5 -48q158 0 240 154l251 -103q-169 -290 -514 -290q-120 0 -219 51t-161 154.5t-62 242.5z M416 655h432q3 20 3 37q1 64 -35 104q-44 50 -124 50q-87 0 -161 -47.5t-115 -143.5z" />
<glyph unicode="f" horiz-adv-x="786" d="M109 0l184 809h-154l60 256h155l23 96q46 196 148.5 285.5t281.5 89.5q113 0 207 -27l-60 -258q-73 15 -133 15q-124 0 -149 -117l-19 -84h254l-61 -256h-254l-184 -809h-299z" />
<glyph unicode="g" horiz-adv-x="1191" d="M14 -82l293 55q-2 -16 -2 -30q0 -62 35 -94q43 -39 119 -39q93 0 157.5 60.5t88.5 160.5l18 75q-63 -40 -116.5 -54.5t-121.5 -14.5q-79 0 -147.5 26.5t-122.5 79t-85.5 139.5t-31.5 199q0 135 48 250t127 191.5t181.5 119.5t211.5 43q154 0 272 -106l20 86h283 l-244 -1055q-103 -440 -561 -440q-87 0 -164 21.5t-137.5 63t-93.5 109.5q-28 58 -28 128q0 13 1 26zM412 481q0 -93 49 -141.5t129 -48.5q81 0 188 63l92 398q-39 39 -74.5 57t-84.5 18q-125 0 -212 -91t-87 -255z" />
<glyph unicode="h" d="M43 0l350 1516h299l-121 -515q153 84 281 84q178 0 261 -99q54 -64 54 -172q0 -59 -16 -130l-158 -684h-299l152 666q8 33 8 59q0 43 -22 67q-35 38 -103 37q-95 0 -211 -67l-176 -762h-299z" />
<glyph unicode="i" horiz-adv-x="546" d="M45 0l246 1065h299l-246 -1065h-299zM324 1337q0 83 66.5 145t146.5 62q70 0 111.5 -42.5t41.5 -110.5q0 -80 -67 -143.5t-146 -63.5q-68 0 -110.5 44.5t-42.5 108.5z" />
<glyph unicode="j" horiz-adv-x="563" d="M-250 -416l62 262q39 -11 73 -11q52 0 91 25q64 43 85 136l248 1069h299l-252 -1096q-16 -71 -39.5 -128t-59 -108t-81.5 -84t-109 -56t-141 -23t-176 14zM344 1337q0 83 66.5 145t146.5 62q70 0 112 -42.5t42 -110.5q0 -80 -67 -143.5t-146 -63.5q-69 0 -111.5 44.5 t-42.5 108.5z" />
<glyph unicode="k" horiz-adv-x="1150" d="M43 0l350 1516h299l-192 -836h135l301 385h332l-391 -492l178 -573h-303l-129 424h-183l-98 -424h-299z" />
<glyph unicode="l" horiz-adv-x="548" d="M43 0l350 1516h299l-350 -1516h-299z" />
<glyph unicode="m" horiz-adv-x="1732" d="M43 0l246 1065h282l-16 -74q78 52 135 73t135 21q174 0 248 -116q102 61 178.5 88.5t171.5 27.5q73 0 131 -23t100 -72q42 -48 52 -124q3 -25 2 -52q0 -58 -14 -130l-158 -684h-299l154 666q9 41 9 70q0 36 -14 56q-26 36 -88 37q-82 0 -188 -65q-3 -34 -12 -80 l-158 -684h-299l152 666q10 42 10 72q1 34 -13 54q-26 36 -88 37q-81 0 -182 -63l-178 -766h-299z" />
<glyph unicode="n" d="M43 0l246 1065h282l-16 -74q158 94 299 94q176 0 260 -99q53 -63 54 -169q0 -60 -17 -133l-158 -684h-299l154 666q7 31 7 56q0 46 -23 70q-36 38 -103 37q-95 0 -211 -67l-176 -762h-299z" />
<glyph unicode="o" horiz-adv-x="1150" d="M86 406q0 112 26.5 213.5t80 186.5t128 147.5t176.5 97t220 34.5q95 0 171 -27.5t123.5 -71t79 -101t44 -113.5t12.5 -113q0 -112 -26.5 -213.5t-80 -186.5t-128 -147.5t-176.5 -97t-220 -34.5q-95 0 -171 27.5t-123.5 71t-79 101t-44 113.5t-12.5 113zM387 430 q0 -192 160 -192q58 0 107.5 23t84 62t59 90t36.5 107.5t12 114.5q0 192 -160 192q-58 0 -107.5 -23t-84 -62t-59 -90t-36.5 -107.5t-12 -114.5z" />
<glyph unicode="p" horiz-adv-x="1206" d="M-51 -412l340 1477h282l-14 -64q129 84 246 84q81 0 150 -26t124.5 -79t87 -144.5t31.5 -212.5q0 -139 -47 -260.5t-126 -204.5t-183.5 -130.5t-218.5 -47.5q-161 0 -263 90l-110 -482h-299zM412 301q78 -65 161 -65q125 0 216.5 103.5t91.5 283.5q0 102 -46.5 154 t-125.5 52q-91 0 -189 -65z" />
<glyph unicode="q" horiz-adv-x="1193" d="M92 442q0 145 50 268.5t132 204t185 125.5t211 45q168 0 272 -108l21 88h282l-342 -1475h-299l107 457q-112 -67 -230 -67q-84 0 -153 26t-122.5 80t-83.5 144.5t-30 211.5zM408 442q0 -102 46 -154t121 -52q85 0 193 59l106 461q-67 73 -157 73q-131 0 -220 -103.5 t-89 -283.5z" />
<glyph unicode="r" horiz-adv-x="841" d="M43 0l246 1065h282l-20 -86q129 106 278 106q68 0 140 -22l-62 -262q-82 30 -159 30q-22 -1 -44 -3q-98 -12 -186 -66l-176 -762h-299z" />
<glyph unicode="s" horiz-adv-x="1026" d="M57 326h289q-1 -55 39.5 -86t101.5 -31q65 0 116.5 31.5t51.5 83.5q0 29 -27 47.5t-70.5 29t-95.5 21.5t-104.5 31.5t-96 51.5t-70.5 89t-27 137q0 67 31.5 130.5t88.5 113.5t146 80t195 30q109 0 200 -33t150.5 -104t60.5 -168l-291 -55q1 9 1 17q0 52 -34 80 q-39 32 -96 32q-59 0 -105 -28t-46 -78q0 -28 21 -47.5t55.5 -29t78.5 -21t89.5 -21.5t89.5 -32t78.5 -52t55.5 -83t21 -122q0 -68 -32 -131.5t-90 -115t-150.5 -82.5t-204.5 -31q-120 0 -215.5 37.5t-153.5 117.5q-52 72 -52 170q0 11 1 21z" />
<glyph unicode="t" horiz-adv-x="819" d="M139 809l58 256h155l84 360h299l-84 -360h254l-59 -256h-254l-100 -442q-5 -22 -5 -40q0 -79 99 -79q66 0 139 16l-61 -258q-104 -26 -179 -26q-183 0 -260 97q-50 63 -50 161q0 54 15 118l103 453h-154z" />
<glyph unicode="u" d="M131 381l158 684h299l-154 -666q-7 -31 -7 -56q0 -45 23 -69q36 -38 103 -38q95 0 211 67l176 762h299l-246 -1065h-282l16 74q-158 -94 -299 -94q-176 0 -260 99q-53 63 -54 169q0 60 17 133z" />
<glyph unicode="v" horiz-adv-x="1130" d="M178 1065h297l113 -547l364 547h328l-727 -1069h-141z" />
<glyph unicode="w" horiz-adv-x="1665" d="M178 1065h301l78 -541l369 545h139l94 -539l328 535h328l-685 -1069h-149l-104 536l-375 -536h-133z" />
<glyph unicode="x" horiz-adv-x="1144" d="M-61 0l501 547l-229 518h330l114 -305l263 305h370l-506 -551l228 -514h-330l-113 297l-256 -297h-372z" />
<glyph unicode="y" horiz-adv-x="1130" d="M-55 -410l422 615l-189 860h297l113 -549l364 549h328l-1001 -1475h-334z" />
<glyph unicode="z" horiz-adv-x="983" d="M-16 0l57 256l577 553h-428l60 256h829l-59 -256l-578 -553h449l-57 -256h-850z" />
<glyph unicode="{" horiz-adv-x="815" d="M76 586l61 262q96 0 165 61t85 142l64 270q18 77 45 138.5t77.5 121t119 98.5t172.5 61.5t235 20.5l-62 -264q-103 6 -184 -55.5t-106 -165.5l-70 -299q-22 -95 -79.5 -174t-133.5 -115q59 -36 80.5 -116.5t-0.5 -172.5l-56 -241q-24 -102 30 -162.5t159 -58.5l-62 -265 q-124 -3 -220.5 39.5t-148 109.5t-72 144t-3.5 148l64 270q16 82 -24.5 142.5t-135.5 60.5z" />
<glyph unicode="|" horiz-adv-x="548" d="M-51 -410l520 2253h299l-520 -2253h-299z" />
<glyph unicode="}" horiz-adv-x="333" d="M-780 -328l61 265q103 -6 184.5 55.5t106.5 165.5l70 299q22 95 79.5 173.5t133.5 114.5q-59 36 -80.5 116.5t0.5 172.5l55 242q24 102 -29.5 162.5t-158.5 58.5l61 264q72 2 136 -12t111 -39.5t86.5 -60.5t62.5 -75t39 -83.5t16 -86.5t-7 -83l-63 -270 q-16 -82 24.5 -142.5t135.5 -60.5l-62 -262q-96 0 -165 -61t-85 -142l-63 -270q-18 -77 -45 -138.5t-77.5 -121t-119 -99t-172.5 -62t-235 -20.5z" />
<glyph unicode="~" horiz-adv-x="1062" d="M86 645q73 148 166.5 218.5t214.5 70.5q51 0 103.5 -20t88.5 -44.5t73.5 -44.5t62.5 -20q79 0 131 106l219 -116q-73 -150 -166.5 -220.5t-214.5 -70.5q-50 0 -102 20t-87.5 44.5t-73.5 44.5t-63 20q-82 0 -131 -107z" />
<glyph unicode="&#xa1;" horiz-adv-x="604" d="M-18 -369l227 961h307l-219 -961h-315zM225 879q0 81 66 142.5t158 61.5q67 0 118 -50.5t51 -129.5q0 -80 -64.5 -141.5t-156.5 -61.5q-67 0 -119.5 51t-52.5 128z" />
<glyph unicode="&#xa2;" horiz-adv-x="1128" d="M90 436q0 250 133.5 423.5t347.5 215.5l64 266h299l-66 -280q122 -37 194 -129t71 -236l-310 -53q3 186 -139 186q-40 0 -80 -13t-79 -43.5t-68.5 -74.5t-47.5 -112t-18 -150q0 -105 46.5 -152.5t117.5 -47.5q154 0 225 178l291 -70q-132 -320 -450 -358l-60 -262h-299 l68 294q-111 49 -175.5 155.5t-64.5 262.5z" />
<glyph unicode="&#xa3;" horiz-adv-x="1382" d="M-29 0l62 264h209l75 322h-211l62 264h209l39 166q33 143 117.5 243t200.5 147.5t255 47.5q106 0 192.5 -22.5t151.5 -69t99 -122.5t30 -177l-327 -59q11 176 -168 176q-80 0 -151.5 -53.5t-92.5 -145.5l-31 -131h414l-62 -264h-413l-74 -322h725l-61 -264h-1250z" />
<glyph unicode="&#xa4;" horiz-adv-x="1452" d="M-29 217l265 215q-50 110 -50 225q0 230 170 418l-147 193l223 178l154 -201q154 72 317 72q159 0 299 -100l283 229l168 -217l-271 -223q52 -110 52 -230q0 -227 -168 -416l145 -188l-223 -178l-150 194q-152 -73 -321 -73t-305 102l-277 -223zM492 657q0 -107 68 -179 t177 -72q150 0 270.5 111t120.5 259q0 108 -68 180t-177 72q-150 0 -270.5 -111.5t-120.5 -259.5z" />
<glyph unicode="&#xa5;" horiz-adv-x="1376" d="M184 475l60 264h297l-293 695h332l206 -476l433 476h376l-612 -695h326l-60 -264h-391l-110 -475h-316l111 475h-359z" />
<glyph unicode="&#xa6;" horiz-adv-x="548" d="M-51 -410l209 902h299l-209 -902h-299zM260 942l209 901h299l-209 -901h-299z" />
<glyph unicode="&#xa7;" horiz-adv-x="1214" d="M4 -14h307q-7 -76 44.5 -116t138.5 -40q94 0 158.5 43t64.5 109q0 39 -33.5 65t-87 42t-118 31t-129 38.5t-118 58t-87 96.5t-33.5 146q0 78 61 163.5t160 139.5q-90 84 -90 246q0 86 44.5 167.5t120 143t183 98.5t225.5 37q221 0 351 -97t126 -267l-317 -60 q4 82 -47.5 123t-136.5 41q-93 0 -157.5 -43t-64.5 -109q0 -34 26 -59t68.5 -38.5t97 -29t111 -29t111 -39.5t97 -59.5t68.5 -91t26 -131.5q0 -80 -59 -166.5t-157 -140.5q86 -86 86 -242q0 -86 -44.5 -167.5t-120 -143t-183 -98.5t-225.5 -37q-231 0 -360 106.5t-107 309.5 zM442 510q0 -44 40.5 -74t82 -41.5t134.5 -30.5q25 -5 38 -8q43 30 75 74.5t32 83.5q0 23 -8 41t-28.5 32t-38.5 24t-54.5 19.5t-59.5 15t-69 14.5q-26 5 -39 8q-42 -26 -73.5 -71.5t-31.5 -86.5z" />
<glyph unicode="&#xa9;" horiz-adv-x="1636" d="M143 608q0 154 73 307.5t193.5 272t290.5 192.5t351 74q119 0 228.5 -44.5t193.5 -123.5t134 -199t50 -262q0 -123 -45.5 -247t-130 -230.5t-195 -189.5t-249.5 -130.5t-285 -47.5q-119 0 -229 44t-194.5 123.5t-135 199t-50.5 261.5zM332 608q0 -198 122 -330.5 t314 -132.5q130 0 257.5 56t224.5 147.5t157.5 218t60.5 258.5q0 198 -121 330.5t-315 132.5q-129 0 -256.5 -56t-225 -147.5t-158 -218t-60.5 -258.5zM541 653q0 124 57 223.5t152 154t206 54.5q42 0 81.5 -8t77 -27t65.5 -47t44.5 -70.5t14.5 -94.5l-207 -47 q4 64 -21.5 92t-66.5 28q-75 0 -133.5 -65t-58.5 -193q0 -67 29 -99t73 -32q41 0 80 28.5t65 92.5l199 -47q-110 -248 -371 -248q-118 0 -202 81.5t-84 223.5z" />
<glyph unicode="&#xaa;" horiz-adv-x="694" d="M180 1044q0 174 107 288t256 114q81 0 147 -55l10 43h189l-152 -654h-176l8 37q-68 -49 -159 -49q-96 0 -163 67.5t-67 208.5zM397 1061q0 -54 23.5 -84.5t64.5 -30.5q44 0 111 31l57 252q-45 39 -94 39q-65 0 -113.5 -60t-48.5 -147z" />
<glyph unicode="&#xab;" horiz-adv-x="1282" d="M53 532l516 515l238 -148l-416 -395l207 -354l-266 -132zM594 532l516 515l238 -148l-416 -395l207 -354l-267 -132z" />
<glyph unicode="&#xac;" horiz-adv-x="1073" d="M86 575l66 289h999l-147 -639h-299l81 350h-700z" />
<glyph unicode="&#xad;" horiz-adv-x="710" d="M72 401l61 265h572l-62 -265h-571z" />
<glyph unicode="&#xae;" horiz-adv-x="940" d="M225 1118q0 93 44.5 182.5t115.5 155t164.5 106t187.5 40.5q157 0 257 -104t100 -261q0 -124 -74 -236.5t-192.5 -179.5t-245.5 -67q-157 0 -257 103.5t-100 260.5zM348 1118q0 -109 66.5 -180.5t173.5 -71.5q95 0 184 51t144 137.5t55 182.5q0 109 -66.5 180.5 t-173.5 71.5q-94 0 -182.5 -51t-144.5 -137.5t-56 -182.5zM426 956l100 439h172q76 0 117 -34t41 -99q0 -52 -29 -87t-75 -51l47 -168h-125l-43 154h-49l-35 -154h-121zM604 1206h47q68 0 68 56q0 32 -47 32h-47z" />
<glyph unicode="&#xb0;" horiz-adv-x="878" d="M219 1032q0 91 39 171t102.5 134t143.5 85.5t162 31.5q143 0 234 -95t91 -231q0 -119 -66 -217t-167.5 -150t-212.5 -52q-143 0 -234.5 94.5t-91.5 228.5zM483 1057q0 -42 28 -71.5t71 -29.5q55 0 100 45t45 103q0 44 -27 73t-71 29q-55 0 -100.5 -45t-45.5 -104z" />
<glyph unicode="&#xb1;" horiz-adv-x="1118" d="M-23 0l66 289h999l-65 -289h-1000zM147 741l68 289h350l82 350h299l-82 -350h350l-67 -289h-350l-80 -350h-299l80 350h-351z" />
<glyph unicode="&#xb5;" d="M-61 -410l254 1106h2l84 369h299l-154 -666q-20 -88 15 -125.5t104 -37.5q96 0 211 69l176 760h299l-246 -1065h-283l17 76q-154 -96 -299 -96q-51 0 -90 8l-90 -398h-299z" />
<glyph unicode="&#xb6;" horiz-adv-x="1130" d="M162 1018q0 108 52 202.5t152 154t226 59.5h663l-331 -1434h-185l291 1260h-176l-291 -1260h-184l174 752h-119q-132 0 -202 74t-70 192z" />
<glyph unicode="&#xb7;" horiz-adv-x="636" d="M238 707q0 80 65.5 141t157.5 61q67 0 118.5 -50.5t51.5 -127.5q0 -81 -65.5 -143t-157.5 -62q-67 0 -118.5 51t-51.5 130z" />
<glyph unicode="&#xba;" horiz-adv-x="698" d="M186 1053q0 93 34 174.5t89.5 135t124.5 84t141 30.5q115 0 201 -79.5t86 -217.5q0 -115 -57.5 -209.5t-145.5 -145.5t-184 -51q-113 0 -201 77.5t-88 201.5zM422 1073q0 -54 19.5 -76t45.5 -22q20 0 41.5 8.5t46 28.5t40.5 63t16 103q0 54 -19.5 77t-46.5 23 q-20 0 -41.5 -8.5t-46 -29t-40 -64t-15.5 -103.5z" />
<glyph unicode="&#xbb;" horiz-adv-x="1292" d="M-4 166l416 395l-207 354l266 132l279 -515l-517 -514zM537 166l415 395l-207 354l267 132l278 -515l-516 -514z" />
<glyph unicode="&#xbc;" horiz-adv-x="1808" d="M172 -14l1395 1583l215 -121l-1395 -1581zM223 1110l43 195l283 129h184l-198 -861h-224l148 639zM946 143l43 197l447 520h295l-121 -520h123l-45 -197h-121l-35 -143h-223l34 143h-397zM1210 324h191l72 311z" />
<glyph unicode="&#xbd;" horiz-adv-x="1808" d="M137 -14l1393 1583l215 -121l-1393 -1581zM223 1110l43 195l283 129h184l-198 -861h-224l148 639zM995 0l11 53q17 70 55.5 128.5t87 97t103 71.5t105.5 60t93 54.5t67 62.5t25 77q0 34 -22 53t-54 19q-50 0 -88.5 -43t-50.5 -113l-213 45q112 307 410 307q122 0 193 -64 t71 -169q0 -73 -30 -130.5t-82 -98t-106 -71t-119.5 -69t-104.5 -73.5h335l-45 -197h-641z" />
<glyph unicode="&#xbe;" horiz-adv-x="1873" d="M168 872h215q-14 -58 5.5 -90t70.5 -32q59 0 96 35.5t37 88.5q0 39 -25.5 61.5t-62 29t-92.5 6.5l26 114l226 172h-373l43 189h606l-49 -211l-213 -170q60 -8 102.5 -57t42.5 -121q0 -131 -117.5 -228.5t-285.5 -97.5q-167 0 -231.5 85t-20.5 226zM248 -14l1392 1583 l215 -121l-1392 -1581zM1010 143l45 197l446 520h295l-121 -520h123l-45 -197h-123l-33 -143h-223l33 143h-397zM1274 324h192l72 311z" />
<glyph unicode="&#xbf;" horiz-adv-x="1103" d="M-37 -4q0 74 24 135t63 102.5t86.5 76.5t98 65t94.5 60t78 70t46 87h307q-18 -83 -54 -150t-78 -108.5t-88.5 -75.5t-90 -59t-78 -50.5t-55.5 -59t-21 -75.5q0 -56 39.5 -93.5t114.5 -37.5q103 0 169 67.5t80 168.5l297 -35q-12 -72 -38.5 -138t-75 -128t-112.5 -107.5 t-155.5 -72.5t-199.5 -27q-195 0 -323 102.5t-128 282.5zM442 879q0 81 66 142.5t158 61.5q68 0 119 -50.5t51 -129.5q0 -80 -66 -141.5t-158 -61.5q-67 0 -118.5 51t-51.5 128z" />
<glyph unicode="&#xc0;" horiz-adv-x="1507" d="M-66 0l981 1438h150l344 -1438h-319l-56 229h-596l-155 -229h-349zM598 494h393l-96 452zM754 1825l325 8l74 -297h-223z" />
<glyph unicode="&#xc1;" horiz-adv-x="1507" d="M-66 0l981 1438h150l344 -1438h-319l-56 229h-596l-155 -229h-349zM598 494h393l-96 452zM866 1536l215 295l361 -12l-318 -283h-258z" />
<glyph unicode="&#xc2;" horiz-adv-x="1507" d="M-66 0l981 1438h150l344 -1438h-319l-56 229h-596l-155 -229h-349zM586 1546l342 287h266l213 -287l-264 -10l-113 127l-170 -127zM598 494h393l-96 452z" />
<glyph unicode="&#xc3;" horiz-adv-x="1507" d="M-66 0l981 1438h150l344 -1438h-319l-56 229h-596l-155 -229h-349zM598 494h393l-96 452zM606 1640q58 115 138 171.5t169 56.5q63 0 124 -25t108 -49.5t76 -24.5q63 0 110 95l197 -107q-55 -115 -142 -171t-180 -56q-56 0 -117.5 25t-109 50t-70.5 25q-60 0 -106 -94z " />
<glyph unicode="&#xc4;" horiz-adv-x="1507" d="M-66 0l981 1438h150l344 -1438h-319l-56 229h-596l-155 -229h-349zM598 494h393l-96 452zM700 1673q0 83 66.5 145t146.5 62q68 0 110 -43t42 -111q0 -81 -66 -143.5t-145 -62.5q-69 0 -111.5 44.5t-42.5 108.5zM1079 1673q0 83 66.5 145t146.5 62q70 0 112 -43t42 -111 q0 -80 -67 -143t-146 -63q-69 0 -111.5 44.5t-42.5 108.5z" />
<glyph unicode="&#xc5;" horiz-adv-x="1507" d="M-66 0l981 1438h150l344 -1438h-319l-56 229h-596l-155 -229h-349zM598 494h393l-96 452zM729 1675q0 124 106.5 217t276.5 93q127 0 204 -60.5t77 -150.5q0 -124 -105.5 -215t-277.5 -91q-126 0 -203.5 59.5t-77.5 147.5zM956 1700q0 -33 21.5 -54.5t58.5 -21.5 q52 0 90.5 38t38.5 89q0 34 -21 55t-59 21q-57 0 -93 -42t-36 -85z" />
<glyph unicode="&#xc6;" horiz-adv-x="2043" d="M-72 0l1198 1434h1084l-64 -273h-635l-61 -268h448l-63 -272h-449l-79 -349h635l-64 -272h-950l53 236h-494l-194 -236h-365zM713 508h331l130 559z" />
<glyph unicode="&#xc7;" horiz-adv-x="1544" d="M147 580q0 186 62.5 348t173.5 277.5t271 182t347 66.5q259 0 409 -134.5t153 -346.5l-326 -55q-4 122 -72 189t-182 67q-145 0 -258.5 -80.5t-174.5 -216.5t-61 -302q0 -148 72.5 -229.5t206.5 -81.5q139 0 247.5 71t162.5 210l311 -78q-71 -222 -250.5 -346.5 t-431.5 -138.5q86 -53 86 -148q0 -127 -94 -195.5t-250 -68.5q-111 0 -191 39l86 170q20 -11 56 -18t59 -7q96 0 96 60q0 41 -98 41h-57l61 145q-194 48 -304 197.5t-110 382.5z" />
<glyph unicode="&#xc8;" horiz-adv-x="1161" d="M43 0l332 1434h952l-63 -273h-637l-62 -268h449l-64 -272h-448l-80 -349h635l-62 -272h-952zM610 1825l326 8l74 -297h-224z" />
<glyph unicode="&#xc9;" horiz-adv-x="1161" d="M43 0l332 1434h952l-63 -273h-637l-62 -268h449l-64 -272h-448l-80 -349h635l-62 -272h-952zM725 1536l215 295l360 -12l-317 -283h-258z" />
<glyph unicode="&#xca;" horiz-adv-x="1161" d="M43 0l332 1434h952l-63 -273h-637l-62 -268h449l-64 -272h-448l-80 -349h635l-62 -272h-952zM442 1546l342 287h267l213 -287l-265 -10l-112 127l-170 -127z" />
<glyph unicode="&#xcb;" horiz-adv-x="1161" d="M43 0l332 1434h952l-63 -273h-637l-62 -268h449l-64 -272h-448l-80 -349h635l-62 -272h-952zM557 1673q0 83 66.5 145t146.5 62q68 0 110 -43t42 -111q0 -81 -66 -143.5t-145 -62.5q-69 0 -111.5 44.5t-42.5 108.5zM936 1673q0 83 66.5 145t146.5 62q70 0 112 -43 t42 -111q0 -80 -67 -143t-146 -63q-69 0 -111.5 44.5t-42.5 108.5z" />
<glyph unicode="&#xcc;" horiz-adv-x="561" d="M41 0l332 1434h315l-332 -1434h-315zM281 1825l325 8l74 -297h-223z" />
<glyph unicode="&#xcd;" horiz-adv-x="561" d="M41 0l332 1434h315l-332 -1434h-315zM393 1536l215 295l361 -12l-318 -283h-258z" />
<glyph unicode="&#xce;" horiz-adv-x="561" d="M41 0l332 1434h315l-332 -1434h-315zM111 1546l342 287h266l213 -287l-264 -10l-113 127l-170 -127z" />
<glyph unicode="&#xcf;" horiz-adv-x="561" d="M41 0l332 1434h315l-332 -1434h-315zM227 1673q0 83 66.5 145t146.5 62q68 0 110 -43t42 -111q0 -81 -66 -143.5t-145 -62.5q-69 0 -111.5 44.5t-42.5 108.5zM606 1673q0 83 66.5 145t146.5 62q70 0 112 -43t42 -111q0 -80 -67 -143t-146 -63q-69 0 -111.5 44.5 t-42.5 108.5z" />
<glyph unicode="&#xd0;" horiz-adv-x="1454" d="M43 0l139 600h-110l53 231h111l139 603h579q167 0 287.5 -80t179 -212t58.5 -300q0 -157 -43 -294t-118 -236t-174 -170.5t-212 -106.5t-232 -35h-657zM422 272h278q64 0 124.5 18.5t118 62.5t100 109t68.5 165.5t26 224.5q4 156 -59 232.5t-177 76.5h-274l-76 -330h311 l-53 -231h-311z" />
<glyph unicode="&#xd1;" horiz-adv-x="1460" d="M43 0l332 1438h151l555 -850l197 846h307l-334 -1438h-151l-555 852l-195 -848h-307zM582 1640q58 115 138 171.5t169 56.5q63 0 124 -25t107.5 -49.5t75.5 -24.5q64 0 111 95l196 -107q-55 -115 -141.5 -171t-179.5 -56q-56 0 -117.5 25t-109 50t-70.5 25 q-61 0 -107 -94z" />
<glyph unicode="&#xd2;" horiz-adv-x="1607" d="M143 567q0 134 34.5 262t106 241.5t172.5 198.5t243.5 135t308.5 50q137 0 250 -37t197 -108.5t130.5 -184.5t46.5 -258q0 -134 -34.5 -262t-106 -241t-172.5 -198.5t-243.5 -135t-309.5 -49.5q-136 0 -248.5 36.5t-197 108t-131 184.5t-46.5 258zM481 571 q0 -132 82.5 -218.5t208.5 -86.5q230 0 375 162.5t145 433.5q0 134 -82 219.5t-209 85.5q-230 0 -375 -162.5t-145 -433.5zM803 1825l325 8l74 -297h-223z" />
<glyph unicode="&#xd3;" horiz-adv-x="1607" d="M143 567q0 134 34.5 262t106 241.5t172.5 198.5t243.5 135t308.5 50q137 0 250 -37t197 -108.5t130.5 -184.5t46.5 -258q0 -134 -34.5 -262t-106 -241t-172.5 -198.5t-243.5 -135t-309.5 -49.5q-136 0 -248.5 36.5t-197 108t-131 184.5t-46.5 258zM481 571 q0 -132 82.5 -218.5t208.5 -86.5q230 0 375 162.5t145 433.5q0 134 -82 219.5t-209 85.5q-230 0 -375 -162.5t-145 -433.5zM918 1536l215 295l360 -12l-317 -283h-258z" />
<glyph unicode="&#xd4;" horiz-adv-x="1607" d="M143 567q0 134 34.5 262t106 241.5t172.5 198.5t243.5 135t308.5 50q137 0 250 -37t197 -108.5t130.5 -184.5t46.5 -258q0 -134 -34.5 -262t-106 -241t-172.5 -198.5t-243.5 -135t-309.5 -49.5q-136 0 -248.5 36.5t-197 108t-131 184.5t-46.5 258zM481 571 q0 -132 82.5 -218.5t208.5 -86.5q230 0 375 162.5t145 433.5q0 134 -82 219.5t-209 85.5q-230 0 -375 -162.5t-145 -433.5zM635 1546l342 287h266l213 -287l-264 -10l-113 127l-170 -127z" />
<glyph unicode="&#xd5;" horiz-adv-x="1607" d="M143 567q0 134 34.5 262t106 241.5t172.5 198.5t243.5 135t308.5 50q137 0 250 -37t197 -108.5t130.5 -184.5t46.5 -258q0 -134 -34.5 -262t-106 -241t-172.5 -198.5t-243.5 -135t-309.5 -49.5q-136 0 -248.5 36.5t-197 108t-131 184.5t-46.5 258zM481 571 q0 -132 82.5 -218.5t208.5 -86.5q230 0 375 162.5t145 433.5q0 134 -82 219.5t-209 85.5q-230 0 -375 -162.5t-145 -433.5zM655 1640q58 115 138.5 171.5t169.5 56.5q63 0 124 -25t107.5 -49.5t75.5 -24.5q62 0 110 95l197 -107q-55 -115 -142 -171t-180 -56 q-56 0 -117.5 25t-109 50t-70.5 25q-60 0 -106 -94z" />
<glyph unicode="&#xd6;" horiz-adv-x="1607" d="M143 567q0 134 34.5 262t106 241.5t172.5 198.5t243.5 135t308.5 50q137 0 250 -37t197 -108.5t130.5 -184.5t46.5 -258q0 -134 -34.5 -262t-106 -241t-172.5 -198.5t-243.5 -135t-309.5 -49.5q-136 0 -248.5 36.5t-197 108t-131 184.5t-46.5 258zM481 571 q0 -132 82.5 -218.5t208.5 -86.5q230 0 375 162.5t145 433.5q0 134 -82 219.5t-209 85.5q-230 0 -375 -162.5t-145 -433.5zM750 1673q0 83 66.5 145t146.5 62q68 0 109.5 -43t41.5 -111q0 -81 -66 -143.5t-145 -62.5q-68 0 -110.5 44.5t-42.5 108.5zM1128 1673 q0 83 66.5 145t146.5 62q70 0 112 -43t42 -111q0 -80 -67 -143t-146 -63q-69 0 -111.5 44.5t-42.5 108.5z" />
<glyph unicode="&#xd7;" horiz-adv-x="1118" d="M96 459l342 278l-213 275l234 190l211 -278l342 278l176 -223l-344 -281l215 -276l-232 -189l-215 279l-342 -279z" />
<glyph unicode="&#xd8;" horiz-adv-x="1607" d="M68 -18l190 211q-115 143 -115 374q0 134 34.5 262t106 241.5t172.5 198.5t243.5 135t308.5 50q187 0 329 -68l197 218l176 -119l-205 -228q127 -149 127 -391q0 -134 -34.5 -262t-106 -241t-172.5 -198.5t-243.5 -135t-309.5 -49.5q-204 0 -346 77l-174 -194zM481 571 q0 -57 19 -112l618 686q-55 22 -117 22q-230 0 -375 -162.5t-145 -433.5zM639 297q60 -31 133 -31q230 0 375 162.5t145 433.5q0 72 -24 131z" />
<glyph unicode="&#xd9;" horiz-adv-x="1417" d="M143.5 400q-3.5 92 18.5 196l192 838h316l-207 -893q-30 -132 31 -206.5t192 -74.5t226.5 74.5t125.5 206.5l207 893h316l-209 -908q-31 -138 -98.5 -244t-160 -171t-202.5 -98t-234 -33q-120 0 -216 31t-157.5 86.5t-99 133t-41 169.5zM707 1825l325 8l74 -297h-223z " />
<glyph unicode="&#xda;" horiz-adv-x="1417" d="M143.5 400q-3.5 92 18.5 196l192 838h316l-207 -893q-30 -132 31 -206.5t192 -74.5t226.5 74.5t125.5 206.5l207 893h316l-209 -908q-31 -138 -98.5 -244t-160 -171t-202.5 -98t-234 -33q-120 0 -216 31t-157.5 86.5t-99 133t-41 169.5zM821 1536l215 295l361 -12 l-318 -283h-258z" />
<glyph unicode="&#xdb;" horiz-adv-x="1417" d="M143.5 400q-3.5 92 18.5 196l192 838h316l-207 -893q-30 -132 31 -206.5t192 -74.5t226.5 74.5t125.5 206.5l207 893h316l-209 -908q-31 -138 -98.5 -244t-160 -171t-202.5 -98t-234 -33q-120 0 -216 31t-157.5 86.5t-99 133t-41 169.5zM539 1546l342 287h266l213 -287 l-264 -10l-113 127l-170 -127z" />
<glyph unicode="&#xdc;" horiz-adv-x="1417" d="M143.5 400q-3.5 92 18.5 196l192 838h316l-207 -893q-30 -132 31 -206.5t192 -74.5t226.5 74.5t125.5 206.5l207 893h316l-209 -908q-31 -138 -98.5 -244t-160 -171t-202.5 -98t-234 -33q-120 0 -216 31t-157.5 86.5t-99 133t-41 169.5zM653 1673q0 83 66.5 145t146.5 62 q68 0 110 -43t42 -111q0 -81 -66 -143.5t-145 -62.5q-69 0 -111.5 44.5t-42.5 108.5zM1032 1673q0 83 66.5 145t146.5 62q70 0 112 -43t42 -111q0 -80 -67 -143t-146 -63q-69 0 -111.5 44.5t-42.5 108.5z" />
<glyph unicode="&#xdd;" horiz-adv-x="1359" d="M248 1434h332l206 -476l433 476h376l-698 -793l-149 -641h-316l150 641zM786 1536l215 295l361 -12l-318 -283h-258z" />
<glyph unicode="&#xde;" horiz-adv-x="1263" d="M43 0l332 1434h315l-57 -244h174q88 0 161.5 -13.5t138.5 -45.5t110 -80.5t70.5 -122t25.5 -166.5q0 -127 -55 -228t-147.5 -163t-207 -94.5t-241.5 -32.5h-246l-58 -244h-315zM477 516h217q49 0 95.5 13t88.5 40.5t67.5 77t25.5 115.5q0 81 -53.5 118.5t-131.5 37.5 h-217z" />
<glyph unicode="&#xdf;" horiz-adv-x="1353" d="M43 0l233 1012q64 275 225 399.5t412 124.5q198 0 331.5 -112.5t133.5 -276.5q0 -129 -80.5 -234t-197.5 -163q80 -43 132 -127t52 -187q0 -104 -37.5 -189t-100.5 -139t-146 -87.5t-173.5 -41.5t-182.5 5t-173 47l92 239q105 -36 183.5 -32.5t130 38t77 83t25.5 102.5 q0 76 -67.5 123t-217.5 47l60 256q81 0 143 21.5t96.5 57.5t51 76t16.5 82q0 67 -49 111.5t-131 44.5q-48 0 -92.5 -13t-87.5 -42t-76 -82.5t-50 -126.5l-233 -1016h-299z" />
<glyph unicode="&#xe0;" horiz-adv-x="1193" d="M90 442q0 139 47.5 260.5t127 204.5t184 130.5t217.5 47.5q159 0 262 -88l16 68h299l-246 -1065h-282l14 63q-122 -83 -246 -83q-81 0 -149.5 26t-124 79t-87.5 144.5t-32 212.5zM406 442q0 -102 47 -154t127 -52q90 0 188 65l106 463q-75 65 -161 65q-124 0 -215.5 -104 t-91.5 -283zM492 1487l299 10l77 -321h-225z" />
<glyph unicode="&#xe1;" horiz-adv-x="1193" d="M90 442q0 139 47.5 260.5t127 204.5t184 130.5t217.5 47.5q159 0 262 -88l16 68h299l-246 -1065h-282l14 63q-122 -83 -246 -83q-81 0 -149.5 26t-124 79t-87.5 144.5t-32 212.5zM406 442q0 -102 47 -154t127 -52q90 0 188 65l106 463q-75 65 -161 65q-124 0 -215.5 -104 t-91.5 -283zM625 1176l211 321l321 -10l-291 -311h-241z" />
<glyph unicode="&#xe2;" horiz-adv-x="1193" d="M90 442q0 139 47.5 260.5t127 204.5t184 130.5t217.5 47.5q159 0 262 -88l16 68h299l-246 -1065h-282l14 63q-122 -83 -246 -83q-81 0 -149.5 26t-124 79t-87.5 144.5t-32 212.5zM397 1186l303 311h265l159 -311l-229 -10l-92 155l-164 -155zM406 442q0 -102 47 -154 t127 -52q90 0 188 65l106 463q-75 65 -161 65q-124 0 -215.5 -104t-91.5 -283z" />
<glyph unicode="&#xe3;" horiz-adv-x="1193" d="M90 442q0 139 47.5 260.5t127 204.5t184 130.5t217.5 47.5q159 0 262 -88l16 68h299l-246 -1065h-282l14 63q-122 -83 -246 -83q-81 0 -149.5 26t-124 79t-87.5 144.5t-32 212.5zM387 1292q55 113 141 167t179 54q44 0 86.5 -15.5t68.5 -34.5t53.5 -34.5t45.5 -15.5 q63 0 106 90l188 -110q-55 -112 -137.5 -162.5t-177.5 -50.5q-57 0 -108 25t-88 50t-60 25q-63 0 -106 -90zM406 442q0 -102 47 -154t127 -52q90 0 188 65l106 463q-75 65 -161 65q-124 0 -215.5 -104t-91.5 -283z" />
<glyph unicode="&#xe4;" horiz-adv-x="1193" d="M90 442q0 139 47.5 260.5t127 204.5t184 130.5t217.5 47.5q159 0 262 -88l16 68h299l-246 -1065h-282l14 63q-122 -83 -246 -83q-81 0 -149.5 26t-124 79t-87.5 144.5t-32 212.5zM406 442q0 -102 47 -154t127 -52q90 0 188 65l106 463q-75 65 -161 65q-124 0 -215.5 -104 t-91.5 -283zM471 1317q0 84 66.5 145.5t146.5 61.5q57 0 95 -28.5t50 -78.5q31 48 81.5 77.5t103.5 29.5q70 0 111.5 -42t41.5 -110q0 -81 -67 -145t-146 -64q-56 0 -95 31.5t-52 79.5q-30 -49 -79.5 -80t-102.5 -31q-68 0 -111 45.5t-43 108.5z" />
<glyph unicode="&#xe5;" horiz-adv-x="1193" d="M90 442q0 139 47.5 260.5t127 204.5t184 130.5t217.5 47.5q159 0 262 -88l16 68h299l-246 -1065h-282l14 63q-122 -83 -246 -83q-81 0 -149.5 26t-124 79t-87.5 144.5t-32 212.5zM406 442q0 -102 47 -154t127 -52q90 0 188 65l106 463q-75 65 -161 65q-124 0 -215.5 -104 t-91.5 -283zM528 1348q0 122 98.5 214.5t252.5 92.5q117 0 186.5 -59.5t69.5 -149.5q0 -122 -98.5 -213.5t-252.5 -91.5q-117 0 -186.5 59t-69.5 148zM733 1372q0 -33 20.5 -54.5t55.5 -21.5q48 0 84.5 38t36.5 89q0 34 -20.5 55t-55.5 21q-54 0 -87.5 -42t-33.5 -85z" />
<glyph unicode="&#xe6;" horiz-adv-x="1890" d="M90 442q0 139 47.5 260.5t127 204.5t184 130.5t217.5 47.5q159 0 262 -88l16 68h283l-13 -51q130 71 271 71q43 0 87.5 -10t91.5 -33.5t87.5 -58t72 -87t48 -117t13 -152t-31.5 -187.5l-729 2v-14q0 -113 51 -161t128 -48q157 0 239 154l252 -103q-169 -290 -514 -290 q-149 0 -264 100l-19 -80h-282l14 63q-122 -83 -246 -83q-81 0 -149.5 26t-124 79t-87.5 144.5t-32 212.5zM406 442q0 -102 47 -154t127 -52q90 0 188 65l106 463q-75 65 -161 65q-124 0 -215.5 -104t-91.5 -283zM1165 655h432q12 92 -32 141.5t-123 49.5q-88 0 -162 -47.5 t-115 -143.5z" />
<glyph unicode="&#xe7;" horiz-adv-x="1128" d="M90 436q0 141 46 262.5t125.5 206t190.5 132.5t238 48q90 0 168.5 -23t141.5 -68.5t98.5 -122t34.5 -175.5l-310 -53q3 186 -139 186q-40 0 -80 -13t-79 -43.5t-68.5 -74.5t-47.5 -112t-18 -150q0 -105 46.5 -152.5t117.5 -47.5q154 0 225 178l291 -70 q-133 -327 -463 -360q90 -53 90 -150q0 -127 -94 -195.5t-250 -68.5q-110 0 -190 39l86 170q20 -11 56 -18t59 -7q96 0 96 60q0 41 -99 41h-57l62 149q-127 42 -202 151.5t-75 280.5z" />
<glyph unicode="&#xe8;" horiz-adv-x="1140" d="M88 428q0 144 49.5 268t133.5 208.5t196 132.5t235 48q58 0 116 -14t116.5 -45.5t102 -81.5t72 -122t27.5 -166.5t-32 -215.5l-729 2v-14q0 -113 50.5 -161t127.5 -48q158 0 240 154l251 -103q-169 -290 -514 -290q-120 0 -219 51t-161 154.5t-62 242.5zM416 655h432 q12 92 -32.5 141.5t-123.5 49.5q-87 0 -161 -47.5t-115 -143.5zM479 1487l299 10l78 -321h-225z" />
<glyph unicode="&#xe9;" horiz-adv-x="1140" d="M88 428q0 144 49.5 268t133.5 208.5t196 132.5t235 48q58 0 116 -14t116.5 -45.5t102 -81.5t72 -122t27.5 -166.5t-32 -215.5l-729 2v-14q0 -113 50.5 -161t127.5 -48q158 0 240 154l251 -103q-169 -290 -514 -290q-120 0 -219 51t-161 154.5t-62 242.5zM416 655h432 q12 92 -32.5 141.5t-123.5 49.5q-87 0 -161 -47.5t-115 -143.5zM612 1176l211 321l322 -10l-291 -311h-242z" />
<glyph unicode="&#xea;" horiz-adv-x="1140" d="M88 428q0 144 49.5 268t133.5 208.5t196 132.5t235 48q58 0 116 -14t116.5 -45.5t102 -81.5t72 -122t27.5 -166.5t-32 -215.5l-729 2v-14q0 -113 50.5 -161t127.5 -48q158 0 240 154l251 -103q-169 -290 -514 -290q-120 0 -219 51t-161 154.5t-62 242.5zM385 1186 l303 311h264l160 -311l-229 -10l-92 155l-164 -155zM416 655h432q12 92 -32.5 141.5t-123.5 49.5q-87 0 -161 -47.5t-115 -143.5z" />
<glyph unicode="&#xeb;" horiz-adv-x="1140" d="M88 428q0 144 49.5 268t133.5 208.5t196 132.5t235 48q58 0 116 -14t116.5 -45.5t102 -81.5t72 -122t27.5 -166.5t-32 -215.5l-729 2v-14q0 -113 50.5 -161t127.5 -48q158 0 240 154l251 -103q-169 -290 -514 -290q-120 0 -219 51t-161 154.5t-62 242.5zM416 655h432 q12 92 -32.5 141.5t-123.5 49.5q-87 0 -161 -47.5t-115 -143.5zM457 1317q0 84 66.5 145.5t146.5 61.5q57 0 95 -28.5t50 -78.5q31 48 81 77.5t103 29.5q70 0 112 -42t42 -110q0 -81 -67 -145t-146 -64q-56 0 -95 31.5t-52 79.5q-30 -49 -80 -80t-103 -31q-68 0 -110.5 45.5 t-42.5 108.5z" />
<glyph unicode="&#xec;" horiz-adv-x="548" d="M43 0l246 1065h299l-246 -1065h-299zM174 1487l299 10l78 -321h-225z" />
<glyph unicode="&#xed;" horiz-adv-x="548" d="M43 0l246 1065h299l-246 -1065h-299zM307 1176l211 321l322 -10l-291 -311h-242z" />
<glyph unicode="&#xee;" horiz-adv-x="548" d="M43 0l246 1065h299l-246 -1065h-299zM80 1186l303 311h264l160 -311l-229 -10l-93 155l-163 -155z" />
<glyph unicode="&#xef;" horiz-adv-x="548" d="M43 0l246 1065h299l-246 -1065h-299zM154 1317q0 84 66.5 145.5t146.5 61.5q57 0 95 -28.5t50 -78.5q31 48 81 77.5t103 29.5q70 0 112 -42t42 -110q0 -81 -67 -145t-146 -64q-56 0 -95.5 31.5t-52.5 79.5q-30 -49 -79.5 -80t-102.5 -31q-68 0 -110.5 45.5t-42.5 108.5z " />
<glyph unicode="&#xf0;" horiz-adv-x="1198" d="M74 432q0 150 74 279t200.5 204.5t274.5 75.5q92 0 184 -30q-27 79 -88 180l-311 -131l-64 186l250 104q-87 94 -172 162l305 74q74 -51 139 -119l264 111l64 -189l-201 -84q84 -130 128 -278t44 -285q0 -201 -82 -364t-228.5 -255.5t-328.5 -92.5q-67 0 -131.5 18 t-123 55t-102 89.5t-69.5 127.5t-26 162zM387 432q0 -86 43 -141t119 -55q39 0 78.5 13t81 46.5t73 83t52 130.5t20.5 181q-77 51 -172 51q-121 0 -208 -85t-87 -224z" />
<glyph unicode="&#xf1;" d="M43 0l246 1065h282l-16 -74q158 94 299 94q177 0 260.5 -99t36.5 -302l-158 -684h-299l154 666q20 88 -16 125.5t-103 37.5q-95 0 -211 -67l-176 -762h-299zM391 1292q55 113 141 167t179 54q44 0 86.5 -15.5t68.5 -34.5t53.5 -34.5t45.5 -15.5q63 0 106 90l189 -110 q-55 -112 -138 -162.5t-178 -50.5q-57 0 -108 25t-88 50t-60 25q-63 0 -106 -90z" />
<glyph unicode="&#xf2;" horiz-adv-x="1150" d="M86 406q0 112 26.5 213.5t80 186.5t128 147.5t176.5 97t220 34.5q95 0 171 -27.5t123.5 -71t79 -101t44 -113.5t12.5 -113q0 -112 -26.5 -213.5t-80 -186.5t-128 -147.5t-176.5 -97t-220 -34.5q-95 0 -171 27.5t-123.5 71t-79 101t-44 113.5t-12.5 113zM387 430 q0 -192 160 -192q58 0 107.5 23t84 62t59 90t36.5 107.5t12 114.5q0 192 -160 192q-58 0 -107.5 -23t-84 -62t-59 -90t-36.5 -107.5t-12 -114.5zM475 1487l299 10l78 -321h-225z" />
<glyph unicode="&#xf3;" horiz-adv-x="1150" d="M86 406q0 112 26.5 213.5t80 186.5t128 147.5t176.5 97t220 34.5q95 0 171 -27.5t123.5 -71t79 -101t44 -113.5t12.5 -113q0 -112 -26.5 -213.5t-80 -186.5t-128 -147.5t-176.5 -97t-220 -34.5q-95 0 -171 27.5t-123.5 71t-79 101t-44 113.5t-12.5 113zM387 430 q0 -192 160 -192q58 0 107.5 23t84 62t59 90t36.5 107.5t12 114.5q0 192 -160 192q-58 0 -107.5 -23t-84 -62t-59 -90t-36.5 -107.5t-12 -114.5zM608 1176l211 321l322 -10l-291 -311h-242z" />
<glyph unicode="&#xf4;" horiz-adv-x="1150" d="M86 406q0 112 26.5 213.5t80 186.5t128 147.5t176.5 97t220 34.5q95 0 171 -27.5t123.5 -71t79 -101t44 -113.5t12.5 -113q0 -112 -26.5 -213.5t-80 -186.5t-128 -147.5t-176.5 -97t-220 -34.5q-95 0 -171 27.5t-123.5 71t-79 101t-44 113.5t-12.5 113zM381 1186l303 311 h264l160 -311l-229 -10l-93 155l-163 -155zM387 430q0 -192 160 -192q58 0 107.5 23t84 62t59 90t36.5 107.5t12 114.5q0 192 -160 192q-58 0 -107.5 -23t-84 -62t-59 -90t-36.5 -107.5t-12 -114.5z" />
<glyph unicode="&#xf5;" horiz-adv-x="1150" d="M86 406q0 112 26.5 213.5t80 186.5t128 147.5t176.5 97t220 34.5q95 0 171 -27.5t123.5 -71t79 -101t44 -113.5t12.5 -113q0 -112 -26.5 -213.5t-80 -186.5t-128 -147.5t-176.5 -97t-220 -34.5q-95 0 -171 27.5t-123.5 71t-79 101t-44 113.5t-12.5 113zM371 1292 q55 113 140.5 167t178.5 54q44 0 86.5 -15.5t68.5 -34.5t53.5 -34.5t45.5 -15.5q64 0 107 90l188 -110q-55 -112 -137.5 -162.5t-177.5 -50.5q-57 0 -108 25t-88 50t-60 25q-64 0 -107 -90zM387 430q0 -192 160 -192q58 0 107.5 23t84 62t59 90t36.5 107.5t12 114.5 q0 192 -160 192q-58 0 -107.5 -23t-84 -62t-59 -90t-36.5 -107.5t-12 -114.5z" />
<glyph unicode="&#xf6;" horiz-adv-x="1150" d="M86 406q0 112 26.5 213.5t80 186.5t128 147.5t176.5 97t220 34.5q95 0 171 -27.5t123.5 -71t79 -101t44 -113.5t12.5 -113q0 -112 -26.5 -213.5t-80 -186.5t-128 -147.5t-176.5 -97t-220 -34.5q-95 0 -171 27.5t-123.5 71t-79 101t-44 113.5t-12.5 113zM387 430 q0 -192 160 -192q58 0 107.5 23t84 62t59 90t36.5 107.5t12 114.5q0 192 -160 192q-58 0 -107.5 -23t-84 -62t-59 -90t-36.5 -107.5t-12 -114.5zM455 1317q0 84 66.5 145.5t146.5 61.5q57 0 95 -28.5t50 -78.5q31 48 81 77.5t103 29.5q70 0 112 -42t42 -110q0 -81 -67 -145 t-146 -64q-56 0 -95 31.5t-52 79.5q-30 -49 -80 -80t-103 -31q-68 0 -110.5 45.5t-42.5 108.5z" />
<glyph unicode="&#xf7;" horiz-adv-x="1118" d="M111 575l65 289h1000l-66 -289h-999zM387 256q0 78 64.5 138.5t154.5 60.5q66 0 117 -49.5t51 -124.5q0 -80 -64 -140.5t-155 -60.5q-67 0 -117.5 49.5t-50.5 126.5zM596 1161q0 78 64.5 138.5t154.5 60.5q66 0 117 -49.5t51 -124.5q0 -80 -64.5 -141.5t-156.5 -61.5 q-66 0 -116 50.5t-50 127.5z" />
<glyph unicode="&#xf8;" horiz-adv-x="1155" d="M-23 -33l177 193q-68 108 -68 246q0 112 26.5 213.5t80 186.5t128 147.5t176.5 97t220 34.5q139 0 235 -55l158 172l158 -102l-185 -201q64 -108 64 -240q0 -112 -26.5 -213.5t-80 -186.5t-128 -147.5t-176.5 -97t-220 -34.5q-130 0 -227 51l-154 -168zM387 414l369 401 q-30 12 -70 12q-58 0 -107.5 -23t-84 -62t-59 -90t-36.5 -107.5t-12 -114.5v-16zM487 246q32 -8 60 -8q58 0 107.5 23t84 62t59 90t36.5 107.5t12 114.5v4z" />
<glyph unicode="&#xf9;" d="M131 381l158 684h299l-154 -666q-20 -88 16 -125.5t103 -37.5q95 0 211 67l176 762h299l-246 -1065h-282l16 74q-158 -94 -299 -94q-177 0 -260.5 99t-36.5 302zM496 1487l299 10l77 -321h-225z" />
<glyph unicode="&#xfa;" d="M131 381l158 684h299l-154 -666q-20 -88 16 -125.5t103 -37.5q95 0 211 67l176 762h299l-246 -1065h-282l16 74q-158 -94 -299 -94q-177 0 -260.5 99t-36.5 302zM629 1176l211 321l321 -10l-291 -311h-241z" />
<glyph unicode="&#xfb;" d="M131 381l158 684h299l-154 -666q-20 -88 16 -125.5t103 -37.5q95 0 211 67l176 762h299l-246 -1065h-282l16 74q-158 -94 -299 -94q-177 0 -260.5 99t-36.5 302zM401 1186l304 311h264l159 -311l-229 -10l-92 155l-164 -155z" />
<glyph unicode="&#xfc;" d="M131 381l158 684h299l-154 -666q-20 -88 16 -125.5t103 -37.5q95 0 211 67l176 762h299l-246 -1065h-282l16 74q-158 -94 -299 -94q-177 0 -260.5 99t-36.5 302zM473 1317q0 84 66.5 145.5t146.5 61.5q57 0 95 -28.5t50 -78.5q31 48 81.5 77.5t103.5 29.5q70 0 111.5 -42 t41.5 -110q0 -81 -67 -145t-146 -64q-56 0 -95 31.5t-52 79.5q-30 -49 -79.5 -80t-102.5 -31q-68 0 -111 45.5t-43 108.5z" />
<glyph unicode="&#xfd;" horiz-adv-x="1130" d="M-55 -410l422 615l-189 860h297l113 -549l364 549h328l-1001 -1475h-334zM598 1176l211 321l321 -10l-290 -311h-242z" />
<glyph unicode="&#xfe;" horiz-adv-x="1208" d="M-51 -412l444 1928h299l-117 -502q118 71 228 71q81 0 150 -26t124.5 -79t87 -144.5t31.5 -212.5q0 -139 -47 -260.5t-126 -204.5t-183.5 -130.5t-218.5 -47.5q-161 0 -263 90l-110 -482h-299zM412 301q78 -65 161 -65q125 0 216.5 103.5t91.5 283.5q0 102 -46.5 154 t-125.5 52q-91 0 -189 -65z" />
<glyph unicode="&#xff;" horiz-adv-x="1130" d="M-55 -410l422 615l-189 860h297l113 -549l364 549h328l-1001 -1475h-334zM444 1317q0 84 66.5 145.5t146.5 61.5q57 0 95.5 -28.5t50.5 -78.5q31 48 81 77.5t103 29.5q70 0 112 -42t42 -110q0 -81 -67 -145t-146 -64q-56 0 -95.5 31.5t-52.5 79.5q-30 -49 -79.5 -80 t-102.5 -31q-68 0 -111 45.5t-43 108.5z" />
<glyph unicode="&#x152;" horiz-adv-x="2234" d="M143 567q0 134 34.5 262t106 241.5t172.5 198.5t243.5 135t308.5 50q119 0 224.5 -41.5t182.5 -122.5l33 144h952l-63 -273h-637l-62 -268h451l-64 -272h-450l-80 -349h637l-64 -272h-952l21 84q-175 -104 -371 -104q-136 0 -248.5 36.5t-197 108t-131 184.5t-46.5 258z M481 571q0 -132 82.5 -218.5t208.5 -86.5q230 0 375 162.5t145 433.5q0 134 -82 219.5t-209 85.5q-230 0 -375 -162.5t-145 -433.5z" />
<glyph unicode="&#x153;" horiz-adv-x="1894" d="M86 406q0 112 26.5 213.5t80 186.5t128 147.5t176.5 97t220 34.5q224 0 342 -149q169 149 397 149q58 0 116.5 -14.5t116 -45t101.5 -82.5t71 -120.5t27 -167.5t-33 -215l-729 2v-14q0 -113 51.5 -161t129.5 -48q157 0 239 154l252 -103q-88 -148 -214.5 -219t-299.5 -71 q-104 0 -194.5 39.5t-151.5 113.5q-166 -153 -422 -153q-95 0 -171 27.5t-123.5 71t-79 101t-44 113.5t-12.5 113zM387 430q0 -192 160 -192q58 0 107.5 23t84 62t59 90t36.5 107.5t12 114.5q0 192 -160 192q-58 0 -107.5 -23t-84 -62t-59 -90t-36.5 -107.5t-12 -114.5z M1167 655h435q12 92 -33 141.5t-125 49.5q-88 0 -162 -47.5t-115 -143.5z" />
<glyph unicode="&#x178;" horiz-adv-x="1359" d="M248 1434h332l206 -476l433 476h376l-698 -793l-149 -641h-316l150 641zM621 1673q0 83 66.5 145t146.5 62q68 0 109.5 -43t41.5 -111q0 -81 -66 -143.5t-145 -62.5q-68 0 -110.5 44.5t-42.5 108.5zM999 1673q0 83 66.5 145t146.5 62q70 0 112 -43t42 -111 q0 -80 -67 -143t-146 -63q-69 0 -111.5 44.5t-42.5 108.5z" />
<glyph unicode="&#x2000;" horiz-adv-x="992" />
<glyph unicode="&#x2001;" horiz-adv-x="1985" />
<glyph unicode="&#x2002;" horiz-adv-x="992" />
<glyph unicode="&#x2003;" horiz-adv-x="1985" />
<glyph unicode="&#x2004;" horiz-adv-x="661" />
<glyph unicode="&#x2005;" horiz-adv-x="496" />
<glyph unicode="&#x2006;" horiz-adv-x="330" />
<glyph unicode="&#x2007;" horiz-adv-x="330" />
<glyph unicode="&#x2008;" horiz-adv-x="248" />
<glyph unicode="&#x2009;" horiz-adv-x="397" />
<glyph unicode="&#x200a;" horiz-adv-x="110" />
<glyph unicode="&#x2010;" horiz-adv-x="710" d="M72 401l61 265h572l-62 -265h-571z" />
<glyph unicode="&#x2011;" horiz-adv-x="710" d="M72 401l61 265h572l-62 -265h-571z" />
<glyph unicode="&#x2012;" horiz-adv-x="710" d="M72 401l61 265h572l-62 -265h-571z" />
<glyph unicode="&#x2013;" horiz-adv-x="1058" d="M41 401l61 265h963l-61 -265h-963z" />
<glyph unicode="&#x2014;" horiz-adv-x="2048" d="M41 401l61 265h1987l-61 -265h-1987z" />
<glyph unicode="&#x2018;" horiz-adv-x="618" d="M258 1038l254 543h297l-217 -543h-334z" />
<glyph unicode="&#x2019;" horiz-adv-x="610" d="M250 1038l217 543h334l-256 -543h-295z" />
<glyph unicode="&#x201a;" horiz-adv-x="636" d="M-31 -238l217 545h334l-254 -545h-297z" />
<glyph unicode="&#x201c;" horiz-adv-x="1075" d="M258 1038l254 543h297l-217 -543h-334zM713 1036l254 543h295l-215 -543h-334z" />
<glyph unicode="&#x201d;" horiz-adv-x="1058" d="M250 1038l217 543h334l-256 -543h-295zM698 1038l217 543h332l-254 -543h-295z" />
<glyph unicode="&#x201e;" horiz-adv-x="1087" d="M-29 -238l217 545h334l-256 -545h-295zM420 -238l217 545h332l-254 -545h-295z" />
<glyph unicode="&#x2022;" horiz-adv-x="989" d="M137 731q0 121 68 229.5t187.5 175t260.5 66.5q101 0 191 -50.5t147.5 -147t57.5 -216.5q0 -91 -40.5 -177.5t-109.5 -151.5t-166 -104.5t-203 -39.5q-100 0 -189.5 51t-146.5 147.5t-57 217.5z" />
<glyph unicode="&#x2026;" horiz-adv-x="2260" d="M117 162q0 80 64.5 141.5t156.5 61.5q67 0 119.5 -51t52.5 -128q0 -81 -65.5 -142.5t-157.5 -61.5q-68 0 -119 50.5t-51 129.5zM895 162q0 80 64.5 141.5t156.5 61.5q67 0 119.5 -51t52.5 -128q0 -81 -65.5 -142.5t-157.5 -61.5q-68 0 -119 50.5t-51 129.5zM1673 162 q0 80 64.5 141.5t156.5 61.5q67 0 119.5 -51t52.5 -128q0 -81 -65.5 -142.5t-157.5 -61.5q-68 0 -119 50.5t-51 129.5z" />
<glyph unicode="&#x202f;" horiz-adv-x="397" />
<glyph unicode="&#x2039;" horiz-adv-x="821" d="M10 532l598 515l217 -173l-444 -368l250 -338l-260 -150z" />
<glyph unicode="&#x203a;" horiz-adv-x="823" d="M4 190l447 371l-250 336l258 150l360 -515l-596 -514z" />
<glyph unicode="&#x205f;" horiz-adv-x="496" />
<glyph unicode="&#x20ac;" horiz-adv-x="1505" d="M47 584l62 272h120q80 274 295.5 436t501.5 162q252 0 400 -113t145 -284l-336 -80q-5 90 -65.5 143.5t-170.5 53.5q-138 0 -247.5 -85t-165.5 -233h508l-64 -272h-493v-11q0 -152 66 -232.5t185 -80.5q132 0 233 72t150 209l291 -78q-70 -215 -261.5 -349t-440.5 -134 q-265 0 -417.5 159t-152.5 434v11h-143z" />
<glyph unicode="&#x2122;" horiz-adv-x="1177" d="M270 1307l31 127h401l-28 -127h-129l-92 -389h-144l90 389h-129zM657 918l121 516h160l63 -205l162 205h176l-120 -516h-140l70 301l-141 -185h-82l-62 191l-71 -307h-136z" />
<glyph unicode="&#x25fc;" horiz-adv-x="1064" d="M0 0v1065h1065v-1065h-1065z" />
</font>
</defs>
</svg>
